<?xml version="1.0" standalone="no"?>
<!DOCTYPE svg PUBLIC "-//W3C//DTD SVG 1.1//EN" "http://www.w3.org/Graphics/SVG/1.1/DTD/svg11.dtd" >
<svg xmlns="http://www.w3.org/2000/svg" xmlns:xlink="http://www.w3.org/1999/xlink" version="1.1">
<metadata>
Created by FontForge 20230101 at Thu Sep 10 20:33:00 2020
 By Unknown
Copyright 2020 Dinamo (Johannes Breyer, Fabian Harb). All rights reserved.
</metadata>
<defs>
<font id="ABCDiatype-Bold" horiz-adv-x="600" >
  <font-face 
    font-family="ABC Diatype"
    font-weight="700"
    font-stretch="normal"
    units-per-em="1000"
    panose-1="2 11 8 4 4 2 2 6 2 3"
    ascent="850"
    descent="-150"
    x-height="488"
    cap-height="700"
    bbox="-219 -319 1108 1111"
    underline-thickness="50"
    underline-position="-150"
    unicode-range="U+0020-FB02"
  />
<missing-glyph horiz-adv-x="602" 
d="M542 0h-483v700h483v-700zM162 610v-520h277v520h-277z" />
    <glyph glyph-name="uniFB01" unicode="fi" horiz-adv-x="594" 
d="M532 0h-122v391h-177v-391h-122v391h-97v97h97v56q0 85 42 129.5t115 44.5q38 0 65 -9v-96q-13 5 -34 5q-29 0 -47.5 -16.5t-18.5 -47.5v-66h299v-488zM407 562v128h128v-128h-128z" />
    <glyph glyph-name="uniFB02" unicode="fl" horiz-adv-x="594" 
d="M111 0v391h-97v97h97v56q0 85 42 129.5t115 44.5q38 0 65 -9v-96q-13 5 -34 5q-29 0 -47.5 -16.5t-18.5 -47.5v-66h102v-97h-102v-391h-122zM410 700h122v-700h-122v700z" />
    <glyph glyph-name="f_f.liga" unicode="ff" horiz-adv-x="676" 
d="M561 488h102v-97h-102v-391h-122v391h-206v-391h-122v391h-97v97h97v56q0 85 42 129.5t115 44.5q38 0 65 -9v-96q-13 5 -34 5q-29 0 -47.5 -16.5t-18.5 -47.5v-66h206v56q0 85 42.5 129.5t114.5 44.5q38 0 65 -9v-96q-13 5 -34 5q-29 0 -47.5 -16.5t-18.5 -47.5v-66z" />
    <glyph glyph-name=".notdef" horiz-adv-x="602" 
d="M542 0h-483v700h483v-700zM162 610v-520h277v520h-277z" />
    <glyph glyph-name=".null" horiz-adv-x="0" 
 />
    <glyph glyph-name="nonmarkingreturn" horiz-adv-x="333" 
 />
    <glyph glyph-name="space" unicode=" " horiz-adv-x="210" 
 />
    <glyph glyph-name="exclam" unicode="!" horiz-adv-x="263" 
d="M160 211h-57l-37 279v210h131v-210zM207 0h-151v149h151v-149z" />
    <glyph glyph-name="quotedbl" unicode="&#x22;" horiz-adv-x="400" 
d="M153 430h-88l-19 172v98h125v-98zM335 430h-88l-19 172v98h125v-98z" />
    <glyph glyph-name="numbersign" unicode="#" horiz-adv-x="647" 
d="M219 0h-102l25 178h-111v93h124l19 158h-110v93h123l25 178h102l-25 -178h115l25 178h102l-25 -178h111v-93h-124l-19 -158h110v-93h-123l-25 -178h-102l25 178h-115zM276 429l-19 -158h115l19 158h-115z" />
    <glyph glyph-name="dollar" unicode="$" horiz-adv-x="605" 
d="M513 57.5q-58 -59.5 -156 -72.5v-96h-94v96q-103 13 -164.5 80.5t-69.5 174.5h124q4 -56 33.5 -95.5t76.5 -52.5v217l-26 6q-82 18 -136 68t-54 129q0 82 60.5 137.5t155.5 66.5v96h94v-98q90 -15 143 -74.5t62 -151.5h-127q-4 40 -24 70t-54 44v-195l13 -3
q86 -20 143.5 -69.5t57.5 -131.5q0 -86 -58 -145.5zM263 429v183q-45 -6 -70 -29.5t-25 -59.5q0 -66 95 -94zM357 91q42 9 67.5 35t25.5 65q0 37 -23 60.5t-70 37.5v-198z" />
    <glyph glyph-name="percent" unicode="%" horiz-adv-x="778" 
d="M71.5 420q-45.5 47 -45.5 122q0 76 45.5 123t118.5 47q72 0 117.5 -47t45.5 -123q0 -75 -45.5 -122t-117.5 -47q-73 0 -118.5 47zM192 0h-114l505 700h114zM238.5 476.5q18.5 25.5 18.5 65.5q0 41 -18.5 66.5t-48.5 25.5q-31 0 -49.5 -25.5t-18.5 -66.5q0 -40 18.5 -65.5
t49.5 -25.5q30 0 48.5 25.5zM469 36q-45 47 -45 123q0 75 45 122t118 47t118 -47t45 -122q0 -76 -45 -123t-118 -47t-118 47zM636 92.5q19 25.5 19 66.5q0 40 -19 65.5t-49 25.5t-48.5 -25.5t-18.5 -65.5q0 -41 18.5 -66.5t48.5 -25.5t49 25.5z" />
    <glyph glyph-name="ampersand" unicode="&#x26;" horiz-adv-x="686" 
d="M149.5 7.5q-53.5 25.5 -84.5 71.5t-31 105q0 65 38 114t100 83l10 6l-7 9q-39 49 -56 79.5t-17 72.5q0 52 27.5 90.5t73 59t99.5 20.5q81 0 134.5 -43.5t53.5 -123.5q0 -56 -31.5 -100t-96.5 -85l-7 -4l101 -111q15 -17 20 -21q8 28 10 32q13 42 15 107h127
q0 -130 -72 -224l134 -145h-157l-54 60q-45 -41 -97 -59.5t-115 -18.5q-64 0 -117.5 25.5zM294 441q77 45 77 101q0 35 -20 52t-49 17q-30 0 -51 -19t-21 -51q0 -28 13.5 -52t40.5 -51l1 -1zM407 139l-154 171l-11 -7q-37 -23 -58 -49.5t-21 -64.5q0 -46 34 -73t85 -27
q74 0 125 50z" />
    <glyph glyph-name="quotesingle" unicode="'" horiz-adv-x="218" 
d="M153 430h-88l-19 172v98h125v-98z" />
    <glyph glyph-name="parenleft" unicode="(" horiz-adv-x="295" 
d="M166 -129q-55 80 -91.5 191t-36.5 242q0 124 38 238.5t90 187.5h112q-56 -81 -90.5 -190t-34.5 -234q0 -241 124 -435h-111z" />
    <glyph glyph-name="parenright" unicode=")" horiz-adv-x="295" 
d="M129 729q55 -80 91.5 -191t36.5 -242q0 -124 -38 -238.5t-90 -187.5h-112q56 81 90.5 190t34.5 234q0 241 -124 435h111z" />
    <glyph glyph-name="asterisk" unicode="*" horiz-adv-x="398" 
d="M200 472l-52 -95l-69 41l57 88l-106 -2v78l106 -1l-57 88l69 40l52 -95l51 95l68 -40l-56 -88l105 1v-78l-105 2l56 -88l-68 -41z" />
    <glyph glyph-name="plus" unicode="+" horiz-adv-x="531" 
d="M330 352h179v-108h-179v-190h-117v190h-178v108h178v191h117v-191z" />
    <glyph glyph-name="comma" unicode="," horiz-adv-x="259" 
d="M55 -108q74 21 74 85v23h-75v149h151v-151q0 -83 -42 -125.5t-108 -48.5v68z" />
    <glyph glyph-name="hyphen" unicode="-" horiz-adv-x="367" 
d="M313 180h-258v124h258v-124z" />
    <glyph glyph-name="period" unicode="." horiz-adv-x="259" 
d="M205 0h-151v149h151v-149z" />
    <glyph glyph-name="slash" unicode="/" horiz-adv-x="427" 
d="M144 0h-120l259 700h120z" />
    <glyph glyph-name="zero" unicode="0" horiz-adv-x="635" 
d="M114.5 79.5q-72.5 97.5 -72.5 272.5q0 113 33.5 195.5t96 126.5t146.5 44t146 -44t95.5 -127.5t33.5 -200.5q0 -113 -32.5 -194.5t-94.5 -125.5t-148 -44q-131 0 -203.5 97.5zM427 153.5q39 64.5 39 190.5q0 134 -39 200.5t-108 66.5q-71 0 -110 -66.5t-39 -202.5
q0 -125 40 -189t109 -64t108 64.5z" />
    <glyph glyph-name="one" unicode="1" horiz-adv-x="381" 
d="M304 700v-700h-125v488q0 28 4 49q-25 -42 -65.5 -66t-95.5 -26v119q70 10 115 44.5t58 91.5h109z" />
    <glyph glyph-name="two" unicode="2" horiz-adv-x="593" 
d="M36 0q2 74 29 126.5t68 89.5t115 90l41 29q65 46 97 84.5t32 86.5q0 49 -29.5 77t-81.5 28q-63 0 -95.5 -40t-32.5 -110v-7h-134v6q0 77 31.5 135.5t90.5 90.5t140 32q74 0 127.5 -27.5t82 -76t28.5 -109.5t-25.5 -108.5t-65.5 -84t-102 -80.5l-47 -33
q-55 -40 -72.5 -54.5t-23.5 -27.5h336v-117h-509z" />
    <glyph glyph-name="three" unicode="3" horiz-adv-x="605" 
d="M108 46.5q-70 64.5 -70 179.5h128q0 -66 37 -101.5t97 -35.5q62 0 99.5 29.5t37.5 82.5q0 47 -36.5 76.5t-97.5 29.5h-50v108h51q52 0 85.5 24.5t33.5 73.5q0 44 -31 71t-86 27q-57 0 -92 -31.5t-39 -84.5h-132q3 67 37 117.5t93 78t136 27.5q70 0 124.5 -25t85 -70
t30.5 -105q0 -57 -36 -97t-93 -56q63 -18 102.5 -62.5t39.5 -113.5q0 -60 -33.5 -107t-92.5 -73.5t-135 -26.5q-123 0 -193 64.5z" />
    <glyph glyph-name="four" unicode="4" horiz-adv-x="627" 
d="M477 0h-126v170h-330v108l294 422h162v-423h128v-107h-128v-170zM351 277v301q-12 -25 -29 -48l-150 -213q-25 -34 -31 -40h210z" />
    <glyph glyph-name="five" unicode="5" horiz-adv-x="586" 
d="M157 10.5q-58 28.5 -89 78.5t-32 112h127q2 -48 36 -80t90 -32q59 0 98 38.5t39 103.5q0 57 -34 96.5t-95 39.5q-44 0 -76.5 -19.5t-47.5 -53.5h-127l55 406h413v-120h-320l-22 -151q-3 -22 -10 -42q65 86 168 86q65 0 115.5 -31.5t78.5 -87t28 -123.5q0 -78 -34 -134
t-93 -85.5t-132 -29.5q-78 0 -136 28.5z" />
    <glyph glyph-name="six" unicode="6" horiz-adv-x="620" 
d="M72 158q-29 76 -29 178q0 68 13.5 132.5t39.5 111.5q37 67 97.5 102.5t143.5 35.5q105 0 166.5 -56.5t68.5 -148.5h-128q-5 47 -33.5 72.5t-77.5 25.5q-75 0 -114 -56t-44 -154q-2 -32 -5 -45q28 43 75.5 73t108.5 30q63 0 113 -28.5t79 -80t29 -118.5
q0 -71 -32.5 -128.5t-90 -89.5t-128.5 -32q-184 0 -252 176zM414 125q35 36 35 97q0 59 -34.5 94t-92.5 35q-61 0 -97 -34.5t-36 -92.5q0 -62 35.5 -98.5t95.5 -36.5q59 0 94 36z" />
    <glyph glyph-name="seven" unicode="7" horiz-adv-x="550" 
d="M131 0q12 185 80.5 331.5t170.5 227.5q17 13 35 21h-398v120h512v-127q-230 -203 -248 -573h-152z" />
    <glyph glyph-name="eight" unicode="8" horiz-adv-x="612" 
d="M161 7.5q-59 25.5 -89.5 70.5t-30.5 102q0 65 39.5 112.5t108.5 70.5q-60 19 -95 57t-35 96q0 60 30 105.5t86 71t131 25.5q74 0 129.5 -25.5t86 -70t30.5 -101.5q0 -60 -35 -101.5t-96 -56.5q69 -21 109.5 -66.5t40.5 -108.5q0 -61 -32.5 -107.5t-92.5 -72.5t-142 -26
q-84 0 -143 25.5zM393.5 439q34.5 27 34.5 71q0 47 -33.5 74t-88.5 27q-56 0 -89.5 -26.5t-33.5 -69.5q0 -46 34 -74.5t89 -28.5q53 0 87.5 27zM405.5 121q39.5 32 39.5 80q0 47 -39.5 79t-99.5 32q-59 0 -99 -31t-40 -78q0 -49 39.5 -81.5t99.5 -32.5t99.5 32z" />
    <glyph glyph-name="nine" unicode="9" horiz-adv-x="607" 
d="M116.5 40.5q-64.5 58.5 -66.5 158.5h127q2 -52 32 -83t83 -31q78 0 116 65.5t34 163.5q0 23 1 31q-26 -40 -74.5 -70t-111.5 -30q-57 0 -106 28.5t-78 81t-29 123.5t34 125.5t91.5 84.5t126.5 30q83 0 144.5 -44.5t92.5 -125.5q32 -85 32 -198q0 -69 -13 -132t-38 -108
q-35 -63 -92 -95.5t-131 -32.5q-110 0 -174.5 58.5zM384 388.5q35 35.5 35 96.5q0 59 -33 92.5t-89 33.5q-55 0 -91 -34.5t-36 -92.5q0 -62 34 -96.5t92 -34.5q53 0 88 35.5z" />
    <glyph glyph-name="colon" unicode=":" horiz-adv-x="259" 
d="M205 0h-151v149h151v-149zM205 294h-151v149h151v-149z" />
    <glyph glyph-name="semicolon" unicode=";" horiz-adv-x="259" 
d="M205 294h-151v149h151v-149zM55 -108q74 21 74 85v23h-75v149h151v-151q0 -83 -42 -125.5t-108 -48.5v68z" />
    <glyph glyph-name="less" unicode="&#x3c;" horiz-adv-x="538" 
d="M477 46l-446 188v131l446 187v-128l-236 -91q-63 -23 -95 -34q42 -13 96 -34l235 -86v-133z" />
    <glyph glyph-name="equal" unicode="=" horiz-adv-x="590" 
d="M538 341h-474v108h474v-108zM538 149h-474v108h474v-108z" />
    <glyph glyph-name="greater" unicode="&#x3e;" horiz-adv-x="538" 
d="M61 46v133l258 96q46 17 76 25q-35 10 -77 25l-257 99v128l446 -187v-131z" />
    <glyph glyph-name="question" unicode="?" horiz-adv-x="524" 
d="M191 211q0 72 19 112.5t69 78.5l35 27q51 40 51 92q0 42 -25 66t-69 24q-54 0 -83 -33t-29 -99h-133q0 110 67 174.5t180 64.5q63 0 112.5 -23.5t78 -67.5t28.5 -102q0 -50 -26 -94.5t-62 -71.5l-38 -28q-33 -26 -45 -51t-12 -69h-118zM326 0h-151v149h151v-149z" />
    <glyph glyph-name="at" unicode="@" horiz-adv-x="797" 
d="M227 -67q-84 45 -129.5 126.5t-45.5 187.5q0 110 47.5 196.5t133 135t194.5 48.5q101 0 177 -41.5t116.5 -114t40.5 -161.5q0 -81 -27 -136t-68.5 -81.5t-84.5 -26.5q-81 0 -105 68q-14 -30 -43 -49t-67 -19q-37 0 -68 21t-49 58.5t-18 86.5q0 63 22.5 110.5t60 73
t80.5 25.5q31 0 54 -14.5t34 -34.5l4 38h97l-21 -227q-1 -5 -1 -14q0 -33 27 -33q29 0 48 36t19 108q0 105 -61.5 167t-165.5 62q-80 0 -141 -35.5t-94.5 -99t-33.5 -144.5q0 -77 30.5 -136.5t90.5 -93.5t147 -34q44 0 88.5 13t83.5 39l50 -76q-42 -32 -104 -53t-122 -21
q-112 0 -196 45zM451 190q20 29 20 81q0 37 -15.5 56.5t-42.5 19.5q-34 0 -55 -30t-21 -73q0 -39 16 -61t45 -22q33 0 53 29z" />
    <glyph glyph-name="A" unicode="A" horiz-adv-x="716" 
d="M721 0h-147l-70 191h-298l-71 -191h-140l288 700h150zM247 302h216l-80 218q-17 45 -27 81q-11 -34 -29 -81z" />
    <glyph glyph-name="B" unicode="B" horiz-adv-x="670" 
d="M77 0v700h296q108 0 173.5 -43t65.5 -134q0 -61 -38 -99t-98 -54q72 -15 114.5 -58.5t42.5 -110.5q0 -104 -78 -152.5t-196 -48.5h-282zM357 418q120 0 120 89q0 82 -120 82h-151v-171h151zM364 111q134 0 134 100q0 52 -32.5 75.5t-101.5 23.5h-158v-199h158z" />
    <glyph glyph-name="C" unicode="C" horiz-adv-x="728" 
d="M198 26q-77 44 -118.5 128t-41.5 201q0 110 45 192.5t124.5 126.5t178.5 44q85 0 152.5 -31.5t109 -91t50.5 -141.5h-136q-10 70 -55.5 111.5t-120.5 41.5q-62 0 -110.5 -30.5t-75.5 -87.5t-27 -134q0 -80 27 -139.5t74.5 -91t108.5 -31.5q76 0 126 44.5t61 115.5h131
q-9 -81 -49.5 -142.5t-110.5 -95t-162 -33.5q-104 0 -181 44z" />
    <glyph glyph-name="D" unicode="D" horiz-adv-x="736" 
d="M77 0v700h248q178 0 274.5 -90.5t96.5 -260.5q0 -106 -42 -184.5t-125 -121.5t-201 -43h-251zM319 111q114 0 178.5 60t64.5 178q0 115 -62.5 177.5t-181.5 62.5h-110v-478h111z" />
    <glyph glyph-name="E" unicode="E" horiz-adv-x="621" 
d="M579 0h-502v700h487v-111h-356v-171h341v-112h-341v-195h371v-111z" />
    <glyph glyph-name="F" unicode="F" horiz-adv-x="592" 
d="M208 0h-131v700h485v-111h-354v-184h335v-111h-335v-294z" />
    <glyph glyph-name="G" unicode="G" horiz-adv-x="746" 
d="M195 27.5q-75 45.5 -116 128.5t-41 194q0 107 44 190.5t124 130.5t184 47q86 0 151.5 -30t104 -83.5t45.5 -121.5h-135q-7 54 -51.5 89t-112.5 35q-64 0 -114 -31t-77.5 -89.5t-27.5 -136.5t27 -136.5t76 -89.5t113 -31q52 0 94 20.5t66.5 57.5t24.5 86v5h-190v111h310
v-373h-120v22q0 38 7 70q-26 -50 -80.5 -80t-132.5 -30q-98 0 -173 45.5z" />
    <glyph glyph-name="H" unicode="H" horiz-adv-x="738" 
d="M208 0h-131v700h131v-286h323v286h131v-700h-131v303h-323v-303z" />
    <glyph glyph-name="I" unicode="I" horiz-adv-x="284" 
d="M77 700h131v-700h-131v700z" />
    <glyph glyph-name="J" unicode="J" horiz-adv-x="539" 
d="M66 46q-55 64 -53 179h131q0 -63 21 -97.5t73 -34.5q58 0 78 37t20 103v467h132v-491q0 -108 -62 -167.5t-166 -59.5q-119 0 -174 64z" />
    <glyph glyph-name="K" unicode="K" horiz-adv-x="663" 
d="M686 0h-173l-238 314l-69 -71v-243h-129v700h129v-296q14 21 46 55l227 241h167l-283 -294z" />
    <glyph glyph-name="L" unicode="L" horiz-adv-x="567" 
d="M560 0h-483v700h131v-589h352v-111z" />
    <glyph glyph-name="M" unicode="M" horiz-adv-x="954" 
d="M77 0v700h209l178 -506q13 -39 18 -64q1 6 6 25.5t12 38.5l171 506h207v-700h-126v471q0 70 2 100l-192 -571h-160l-203 571q3 -46 3 -100v-471h-125z" />
    <glyph glyph-name="N" unicode="N" horiz-adv-x="779" 
d="M77 0v700h197l302 -527q-4 40 -4 105v422h131v-700h-172l-327 571q4 -40 4 -98v-473h-131z" />
    <glyph glyph-name="O" unicode="O" horiz-adv-x="765" 
d="M204.5 25.5q-77.5 43.5 -122 126.5t-44.5 198q0 110 44.5 193.5t122.5 129t176 45.5t176.5 -46t124 -129.5t45.5 -192.5q0 -114 -45 -197.5t-123.5 -127t-177.5 -43.5t-176.5 43.5zM491 123q48 30 74.5 88t26.5 139q0 77 -26.5 135.5t-74.5 90t-110 31.5t-109 -31
t-73 -89.5t-26 -136.5q0 -80 26 -138t73 -88.5t109 -30.5t110 30z" />
    <glyph glyph-name="P" unicode="P" horiz-adv-x="646" 
d="M77 0v700h294q116 0 186 -52t70 -158q0 -108 -71 -159t-185 -51h-163v-280h-131zM371 391q61 0 91 26t30 73q0 99 -121 99h-163v-198h163z" />
    <glyph glyph-name="Q" unicode="Q" horiz-adv-x="765" 
d="M700 192q-27 -70 -77 -118l64 -79l-90 -72l-71 87q-68 -28 -145 -28q-99 0 -176.5 43.5t-122 126.5t-44.5 198q0 110 44.5 193.5t122.5 129t176 45.5t176.5 -46t124 -129.5t45.5 -192.5q0 -88 -27 -158zM449 103l-73 90l91 71l76 -92q49 68 49 178q0 77 -26.5 135.5
t-74.5 90t-110 31.5t-109 -31t-73 -89.5t-26 -136.5q0 -80 26 -138t73 -88.5t109 -30.5q33 0 68 10z" />
    <glyph glyph-name="R" unicode="R" horiz-adv-x="661" 
d="M77 0v700h310q102 0 164 -47.5t62 -136.5q0 -67 -39 -110.5t-95 -60.5q60 -10 91.5 -52t31.5 -110v-183h-132v171q0 62 -25.5 87.5t-89.5 25.5h-147v-284h-131zM362 396q116 0 116 96q0 48 -29.5 72.5t-86.5 24.5h-154v-193h154z" />
    <glyph glyph-name="S" unicode="S" horiz-adv-x="655" 
d="M115 51.5q-81 69.5 -89 188.5h136q5 -70 55.5 -108.5t123.5 -38.5q63 0 101.5 24t38.5 72q0 39 -28.5 62.5t-86.5 34.5l-119 23q-88 17 -142 67.5t-54 130.5q0 61 35 109t97.5 75t140.5 27q129 0 202 -62.5t79 -167.5h-136q-2 52 -40.5 85.5t-112.5 33.5
q-59 0 -96.5 -23.5t-37.5 -65.5q0 -38 29 -56.5t89 -30.5l118 -23q88 -17 141.5 -67t53.5 -133q0 -66 -32.5 -117t-95 -80t-150.5 -29q-139 0 -220 69.5z" />
    <glyph glyph-name="T" unicode="T" horiz-adv-x="613" 
d="M372 0h-131v589h-234v111h598v-111h-233v-589z" />
    <glyph glyph-name="U" unicode="U" horiz-adv-x="707" 
d="M144 56.5q-75 74.5 -75 210.5v433h132v-413q0 -97 39 -145.5t114 -48.5t114 49t39 145v413h131v-433q0 -136 -75 -210.5t-209 -74.5q-135 0 -210 74.5z" />
    <glyph glyph-name="V" unicode="V" horiz-adv-x="703" 
d="M266 0l-266 700h146l179 -503q20 -54 29 -89q8 33 28 89l180 503h143l-270 -700h-169z" />
    <glyph glyph-name="W" unicode="W" horiz-adv-x="1036" 
d="M192 0l-184 700h146l107 -458q16 -67 27 -125q9 56 26 125l116 458h189l107 -458q19 -78 28 -125q11 68 25 125l111 458h138l-184 -700h-182l-116 498q-2 7 -8 34t-12 63q-12 -61 -22 -97l-130 -498h-182z" />
    <glyph glyph-name="X" unicode="X" horiz-adv-x="670" 
d="M-12 0l275 365l-251 335h159l138 -195q20 -29 28 -44q11 20 29 44l135 195h155l-248 -333l275 -367h-161l-154 218q-18 25 -33 53q-10 -17 -36 -55l-156 -216h-155z" />
    <glyph glyph-name="Y" unicode="Y" horiz-adv-x="659" 
d="M263 0v284l-264 416h157l140 -240q22 -36 36 -66q9 19 35 66l142 240h151l-265 -416v-284h-132z" />
    <glyph glyph-name="Z" unicode="Z" horiz-adv-x="624" 
d="M30 0v118l336 401q39 46 65 70h-383v111h533v-111l-344 -411q-27 -33 -61 -67h422v-111h-568z" />
    <glyph glyph-name="bracketleft" unicode="[" horiz-adv-x="326" 
d="M304 -129h-232v860h232v-90h-114v-680h114v-90z" />
    <glyph glyph-name="backslash" unicode="\" horiz-adv-x="428" 
d="M405 0h-122l-259 700h122z" />
    <glyph glyph-name="bracketright" unicode="]" horiz-adv-x="326" 
d="M22 731h232v-860h-232v90h114v680h-114v90z" />
    <glyph glyph-name="asciicircum" unicode="^" horiz-adv-x="512" 
d="M30 342l163 358h126l163 -358h-131l-66 158q-15 36 -30 84q-13 -41 -30 -84l-66 -158h-129z" />
    <glyph glyph-name="underscore" unicode="_" horiz-adv-x="608" 
d="M568 -149h-528v113h528v-113z" />
    <glyph glyph-name="grave" unicode="`" horiz-adv-x="298" 
d="M257 553h-107l-109 147h150z" />
    <glyph glyph-name="a" unicode="a" horiz-adv-x="529" 
d="M123 0.5q-39 18.5 -62.5 53t-23.5 80.5q0 77 50.5 113.5t139.5 48.5l70 9q29 4 41.5 14.5t12.5 29.5q0 27 -21.5 45.5t-58.5 18.5q-42 0 -68 -22t-30 -61h-126q6 78 65 126t152 48q109 0 159 -55.5t50 -161.5v-287h-113v20q0 20 5 47q-21 -39 -60.5 -62t-99.5 -23
q-43 0 -82 18.5zM321 105q34 33 34 84v53q-15 -14 -58 -21l-40 -8q-46 -8 -71 -25.5t-25 -48.5t22 -49t55 -18q49 0 83 33z" />
    <glyph glyph-name="b" unicode="b" horiz-adv-x="588" 
d="M240 5q-39 23 -60 62q4 -25 4 -47v-20h-122v700h122v-234q0 -16 -4 -48q52 86 155 86q60 0 110.5 -32t80.5 -91.5t30 -138.5q0 -80 -28 -139t-78 -90t-113 -31q-58 0 -97 23zM396 123.5q36 45.5 36 118.5t-36 119t-92 46t-91.5 -46t-35.5 -119q0 -72 35.5 -118t91.5 -46
t92 45.5z" />
    <glyph glyph-name="c" unicode="c" horiz-adv-x="550" 
d="M99.5 52q-65.5 70 -65.5 192q0 79 33 138t91 90.5t129 31.5q103 0 162.5 -55t68.5 -145h-124q-3 44 -30.5 73.5t-76.5 29.5q-56 0 -92.5 -43.5t-36.5 -120.5q0 -73 35 -119t91 -46q52 0 81 30.5t34 77.5h124q-13 -96 -74.5 -150t-167.5 -54q-116 0 -181.5 70z" />
    <glyph glyph-name="d" unicode="d" horiz-adv-x="591" 
d="M96.5 49.5q-61.5 67.5 -61.5 192.5q0 84 31.5 143t83 89t110.5 30q100 0 151 -86q-4 18 -4 48v234h122v-700h-122v20q0 30 4 47q-18 -34 -55.5 -59.5t-97.5 -25.5q-100 0 -161.5 67.5zM378 124q36 46 36 119q0 74 -35.5 119t-91.5 45q-36 0 -65.5 -21t-46 -58t-16.5 -85
q0 -75 36 -120t92 -45q55 0 91 46z" />
    <glyph glyph-name="e" unicode="e" horiz-adv-x="550" 
d="M153.5 13q-56.5 31 -88 90t-31.5 142q0 76 31.5 135t87.5 91.5t126 32.5q111 0 173 -71t62 -192v-27h-355q1 -59 35 -97.5t89 -38.5q41 0 69.5 21.5t34.5 59.5h124q-5 -50 -34.5 -90.5t-79.5 -63.5t-114 -23q-73 0 -129.5 31zM389 302q-2 50 -32 80.5t-79 30.5t-82 -31
t-38 -80h231z" />
    <glyph glyph-name="f" unicode="f" horiz-adv-x="348" 
d="M111 0v391h-97v97h97v56q0 85 42 129.5t115 44.5q38 0 65 -9v-96q-13 5 -34 5q-29 0 -47.5 -16.5t-18.5 -47.5v-66h102v-97h-102v-391h-122z" />
    <glyph glyph-name="g" unicode="g" horiz-adv-x="587" 
d="M116 -170.5q-60 51.5 -60 136.5h124q2 -44 29 -68t76 -24q51 0 84.5 29t33.5 82v53q0 36 4 61q-53 -81 -152 -81q-64 0 -113.5 29t-77.5 84t-28 130q0 73 30 128.5t79 85t104 29.5q61 0 97.5 -22t60.5 -64q-4 23 -4 48v22h122v-473q0 -117 -65.5 -177t-177.5 -60
q-106 0 -166 51.5zM375 156q35 41 35 105t-35 105t-89 41q-55 0 -90.5 -41t-35.5 -105t35.5 -105t90.5 -41q54 0 89 41z" />
    <glyph glyph-name="h" unicode="h" horiz-adv-x="560" 
d="M62 0v700h122v-234q0 -23 -4 -48q47 86 150 86q81 0 126.5 -52.5t45.5 -143.5v-308h-122v290q0 54 -24.5 85.5t-67.5 31.5q-45 0 -74.5 -35t-29.5 -86v-286h-122z" />
    <glyph glyph-name="i" unicode="i" horiz-adv-x="246" 
d="M59 562v128h128v-128h-128zM62 488h122v-488h-122v488z" />
    <glyph glyph-name="j" unicode="j" horiz-adv-x="253" 
d="M67 562v128h127v-128h-127zM191 488v-564q0 -64 -38 -105t-116 -41q-18 0 -36 2.5t-27 6.5v94q7 -3 25 -3q35 0 52.5 16t17.5 53v541h122z" />
    <glyph glyph-name="k" unicode="k" horiz-adv-x="521" 
d="M532 0h-156l-142 197l-50 -51v-146h-122v700h122v-405q16 22 35 43l140 150h159l-203 -208z" />
    <glyph glyph-name="l" unicode="l" horiz-adv-x="246" 
d="M62 700h122v-700h-122v700z" />
    <glyph glyph-name="m" unicode="m" horiz-adv-x="832" 
d="M62 0v488h122v-22q0 -27 -4 -48q21 37 56 61.5t85 24.5q43 0 78 -27.5t50 -63.5q23 38 65.5 64.5t92.5 26.5q49 0 87 -24.5t59.5 -69t21.5 -103.5v-307h-122v289q0 54 -21 86t-60 32q-40 0 -66.5 -34t-26.5 -89v-284h-122v289q0 55 -20.5 86.5t-60.5 31.5t-66 -33.5
t-26 -89.5v-284h-122z" />
    <glyph glyph-name="n" unicode="n" horiz-adv-x="560" 
d="M62 0v488h122v-22q0 -23 -4 -48q47 86 150 86q81 0 126.5 -52.5t45.5 -143.5v-308h-122v290q0 54 -24.5 85.5t-67.5 31.5q-45 0 -74.5 -35t-29.5 -86v-286h-122z" />
    <glyph glyph-name="o" unicode="o" horiz-adv-x="569" 
d="M154 13.5q-57 31.5 -88.5 90t-31.5 138.5q0 79 32 138t88.5 91.5t129.5 32.5t130 -32t89 -91.5t32 -138.5q0 -80 -32 -138.5t-89 -90t-130 -31.5t-130 31.5zM376.5 121.5q34.5 43.5 34.5 120.5q0 78 -35 121.5t-92 43.5t-91.5 -43.5t-34.5 -121.5q0 -77 34 -120.5
t92 -43.5t92.5 43.5z" />
    <glyph glyph-name="p" unicode="p" horiz-adv-x="588" 
d="M62 -204v692h122v-22q0 -21 -4 -48q51 86 160 86q64 0 112.5 -33.5t75 -93t26.5 -136.5t-28.5 -136t-78.5 -91t-112 -32q-58 0 -93.5 22t-61.5 63q4 -27 4 -47v-224h-122zM395.5 123.5q34.5 45.5 34.5 119.5q0 73 -33.5 118.5t-91.5 45.5q-56 0 -91 -44.5t-35 -119.5
q0 -73 35 -119t91 -46t90.5 45.5z" />
    <glyph glyph-name="q" unicode="q" horiz-adv-x="590" 
d="M406 20q0 23 4 47q-20 -36 -59.5 -60.5t-96.5 -24.5q-64 0 -113.5 31t-78 89.5t-28.5 140.5q0 77 30.5 136.5t82 92t113.5 32.5q101 0 150 -86q-4 27 -4 48v22h122v-692h-122v224zM377 122q35 44 35 121q0 76 -34 120t-91 44t-93 -44t-36 -120q0 -81 35.5 -123t92.5 -42
q56 0 91 44z" />
    <glyph glyph-name="r" unicode="r" horiz-adv-x="362" 
d="M62 0v488h122v-37q0 -27 -4 -51q49 104 143 104q14 0 26 -3v-118q-16 4 -35 4q-60 0 -95 -34.5t-35 -110.5v-242h-122z" />
    <glyph glyph-name="s" unicode="s" horiz-adv-x="500" 
d="M93 32q-61 50 -67 136h124q2 -44 29 -69.5t75 -25.5q41 0 65.5 17.5t24.5 45.5q0 24 -19.5 37t-60.5 21l-59 12q-160 31 -160 149q0 42 25 76t70.5 53.5t104.5 19.5q97 0 155.5 -46.5t60.5 -123.5h-122q-3 36 -28 57.5t-66 21.5q-35 0 -57.5 -14t-22.5 -39
q0 -22 17.5 -34.5t63.5 -21.5l59 -12q159 -31 159 -149q0 -46 -25.5 -83t-72.5 -57.5t-109 -20.5q-103 0 -164 50z" />
    <glyph glyph-name="t" unicode="t" horiz-adv-x="381" 
d="M119 152v239h-111v97h111v176h122v-176h120v-97h-120v-221q0 -40 17 -60.5t55 -20.5q19 0 37 3v-92q-10 -3 -30.5 -6t-41.5 -3q-159 0 -159 161z" />
    <glyph glyph-name="u" unicode="u" horiz-adv-x="559" 
d="M106 33.5q-49 51.5 -49 144.5v310h123v-291q0 -53 23 -85t66 -32q47 0 76.5 32.5t29.5 85.5v290h122v-488h-121v20q0 22 5 47q-45 -85 -149 -85q-77 0 -126 51.5z" />
    <glyph glyph-name="v" unicode="v" horiz-adv-x="517" 
d="M189 0l-184 488h131l107 -322q8 -20 18 -63q6 30 17 63l106 322h126l-179 -488h-142z" />
    <glyph glyph-name="w" unicode="w" horiz-adv-x="812" 
d="M156 0l-149 488h126l89 -331q7 -33 11 -61q11 49 14 61l80 331h162l81 -331q1 -7 5.5 -25.5t6.5 -37.5q8 41 14 63l88 331h117l-144 -488h-151l-85 333q-9 46 -11 61q-4 -31 -13 -61l-84 -333h-157z" />
    <glyph glyph-name="x" unicode="x" horiz-adv-x="489" 
d="M-2 0l183 248l-168 240h138l67 -102q15 -23 29 -49q10 19 30 49l70 102h134l-173 -236l178 -252h-139l-76 118l-29 46q-17 -30 -28 -46l-82 -118h-134z" />
    <glyph glyph-name="y" unicode="y" horiz-adv-x="508" 
d="M117 -204l79 208l-191 484h137l104 -315q9 -25 16 -58q3 17 15 58l99 315h128l-257 -692h-130z" />
    <glyph glyph-name="z" unicode="z" horiz-adv-x="484" 
d="M32 0v109l241 245q15 14 42 37h-272v97h399v-111l-241 -245q-19 -21 -39 -35h291v-97h-421z" />
    <glyph glyph-name="braceleft" unicode="{" horiz-adv-x="336" 
d="M248 -129q-68 0 -108.5 41.5t-40.5 120.5v127q0 40 -20.5 61t-66.5 30v100q46 9 66.5 29.5t20.5 61.5v127q0 78 40.5 119.5t108.5 41.5h58v-90h-9q-39 0 -59 -20.5t-20 -70.5v-119q0 -52 -24.5 -84.5t-79.5 -44.5q55 -12 79.5 -43t24.5 -83v-123q0 -50 20 -70.5t60 -20.5
h8v-90h-58z" />
    <glyph glyph-name="bar" unicode="|" horiz-adv-x="263" 
d="M191 -129h-119v859h119v-859z" />
    <glyph glyph-name="braceright" unicode="}" horiz-adv-x="336" 
d="M30 -129v90h9q40 0 60 20.5t20 70.5v123q0 51 22.5 82t71.5 43q-49 11 -71.5 41t-22.5 80v128q0 50 -20.5 70.5t-60.5 20.5h-8v90h58q68 0 108.5 -42t40.5 -120v-127q0 -40 19 -61t59 -30v-100q-40 -9 -59 -30t-19 -61v-127q0 -78 -40.5 -119.5t-108.5 -41.5h-58z" />
    <glyph glyph-name="asciitilde" unicode="~" horiz-adv-x="568" 
d="M55 222q0 80 41.5 117.5t106.5 37.5q40 0 94 -21q48 -16 69 -16q19 0 27.5 9.5t10.5 30.5h114q0 -73 -35.5 -112t-100.5 -39q-42 0 -106 20q-49 15 -66 15q-35 0 -40 -42h-115z" />
    <glyph glyph-name="uni00A0" unicode="&#xa0;" horiz-adv-x="210" 
 />
    <glyph glyph-name="exclamdown" unicode="&#xa1;" horiz-adv-x="248" 
d="M48 488h151v-149h-151v149zM95 277h57l37 -279v-210h-131v210z" />
    <glyph glyph-name="cent" unicode="&#xa2;" horiz-adv-x="614" 
d="M587 277q-13 -96 -72.5 -159.5t-154.5 -75.5v-99h-95v100q-70 12 -123 53t-82.5 107t-29.5 152q0 75 29 139t82.5 106.5t123.5 55.5v102h95v-99q95 -12 153 -76t70 -157h-127q-4 44 -30.5 76.5t-65.5 44.5v-393q39 12 67 45t32 78h128zM186 227.5q30 -51.5 79 -70.5v386
q-49 -18 -79 -66.5t-30 -120.5q0 -77 30 -128.5z" />
    <glyph glyph-name="sterling" unicode="&#xa3;" horiz-adv-x="655" 
d="M46 0v108h95v171h-108v108h108v95q0 108 66.5 172t181.5 64q108 0 165 -57.5t61 -172.5h-127q-3 66 -29 94.5t-75 28.5q-55 0 -83 -33.5t-28 -99.5v-91h222v-108h-222v-171h344v-108h-571z" />
    <glyph glyph-name="currency" unicode="&#xa4;" horiz-adv-x="651" 
d="M530 197l80 -80l-66 -68l-81 81q-59 -37 -138 -37q-78 0 -137 37l-81 -81l-66 68l80 80q-44 66 -44 159q0 94 43 160l-79 79l66 69l81 -81q59 37 137 37q79 0 138 -37l81 81l66 -69l-80 -79q43 -66 43 -160q0 -93 -43 -159zM418 240q35 44 35 116q0 73 -35 117t-93 44
t-92.5 -44t-34.5 -117q0 -72 34.5 -116t92.5 -44t93 44z" />
    <glyph glyph-name="yen" unicode="&#xa5;" horiz-adv-x="649" 
d="M622 700l-183 -324h139v-92h-191v-62h191v-91h-191v-131h-126v131h-189v91h189v62h-189v92h137l-182 324h152l115 -231q15 -31 32 -74l35 74l116 231h145z" />
    <glyph glyph-name="brokenbar" unicode="&#xa6;" horiz-adv-x="263" 
d="M191 386h-119v344h119v-344zM191 -129h-119v344h119v-344z" />
    <glyph glyph-name="section" unicode="&#xa7;" horiz-adv-x="549" 
d="M482 18q0 -68 -54.5 -112.5t-157.5 -44.5q-98 0 -156.5 46.5t-65.5 121.5h132q7 -37 31 -55t67 -18q38 0 58 15t20 38t-15.5 38t-62.5 37l-125 58q-115 53 -115 145q0 49 27 86t73 63q-69 49 -69 126q0 67 52.5 111.5t150.5 44.5q93 0 147.5 -44.5t59.5 -121.5h-132
q-4 37 -26 54.5t-56 17.5q-33 0 -51.5 -14.5t-18.5 -37.5t17.5 -39t60.5 -35l120 -56q64 -30 93 -66t29 -88q0 -45 -26.5 -81.5t-72.5 -61.5q66 -49 66 -127zM180 272q16 -19 52 -36l103 -48q54 31 54 79q0 25 -14.5 42t-46.5 32l-110 52q-54 -31 -54 -77q0 -25 16 -44z" />
    <glyph glyph-name="dieresis" unicode="&#xa8;" horiz-adv-x="413" 
d="M172 562h-126v128h126v-128zM367 562h-125v128h125v-128z" />
    <glyph glyph-name="copyright" unicode="&#xa9;" horiz-adv-x="799" 
d="M216.5 32q-82.5 50 -131.5 135t-49 183q0 99 49 183.5t132.5 134.5t181.5 50q99 0 182 -49.5t132 -134.5t49 -184q0 -102 -49 -186t-133 -133t-186 -49q-95 0 -177.5 50zM539 102q62 39 99 105t37 143q0 78 -37 144t-100.5 104.5t-138.5 38.5t-138 -38.5t-100 -104.5
t-37 -144q0 -79 37 -145t101 -104t142 -38q73 0 135 39zM263.5 195.5q-50.5 55.5 -50.5 151.5q0 97 51 154t139 57q77 0 124.5 -42.5t51.5 -115.5h-99q-1 35 -21.5 55.5t-52.5 20.5q-43 0 -68.5 -35t-25.5 -93q0 -57 25 -91.5t67 -34.5q32 0 52.5 21t23.5 58h102
q-8 -77 -54.5 -119t-123.5 -42q-90 0 -140.5 55.5z" />
    <glyph glyph-name="ordfeminine" unicode="&#xaa;" horiz-adv-x="398" 
d="M70 379q-34 29 -34 80q0 49 35 75t88 33l63 8q16 2 23.5 8t7.5 17q0 16 -14 25.5t-36 9.5t-38.5 -10t-17.5 -32h-100q5 53 46 85.5t104 32.5q73 0 111 -37t38 -109v-203h-89v14q0 13 3 28q-34 -54 -102 -54q-54 0 -88 29zM232 441q22 19 22 51v33q-10 -8 -34 -11l-32 -4
q-56 -8 -56 -48q0 -19 13 -29.5t35 -10.5q30 0 52 19z" />
    <glyph glyph-name="guillemotleft" unicode="&#xab;" horiz-adv-x="532" 
d="M237 14l-201 164v152l201 164v-145l-88 -65q-22 -18 -41 -30q18 -10 41 -29l88 -65v-146zM483 14l-201 164v152l201 164v-145l-87 -65l-41 -30q15 -10 41 -29l87 -65v-146z" />
    <glyph glyph-name="logicalnot" unicode="&#xac;" horiz-adv-x="590" 
d="M528 89h-117v156h-358v108h475v-264z" />
    <glyph glyph-name="uni00AD" unicode="&#xad;" horiz-adv-x="367" 
d="M313 180h-258v124h258v-124z" />
    <glyph glyph-name="registered" unicode="&#xae;" horiz-adv-x="627" 
d="M174 203q-62 38 -98.5 101.5t-36.5 137.5t37 137.5t99.5 101t136.5 37.5t136.5 -37.5t99 -101t36.5 -137.5q0 -76 -36.5 -139.5t-100 -100.5t-139.5 -37q-72 0 -134 38zM414.5 259.5q45.5 28.5 72.5 77t27 105.5t-27 105.5t-73.5 77t-101.5 28.5t-101 -28.5t-73.5 -77
t-27.5 -105.5q0 -58 27 -106.5t74 -76.5t104 -28q54 0 99.5 28.5zM211 295v295h105q58 0 88 -21.5t30 -62.5q0 -26 -17.5 -45t-48.5 -27q30 -5 45 -21.5t15 -51.5v-66h-72v66q0 24 -10.5 35t-35.5 11h-29v-112h-70zM314 464q25 0 37.5 8.5t12.5 27.5q0 32 -49 32h-34v-68h33
z" />
    <glyph glyph-name="macron" unicode="&#xaf;" horiz-adv-x="448" 
d="M385 580h-339v92h339v-92z" />
    <glyph glyph-name="degree" unicode="&#xb0;" horiz-adv-x="392" 
d="M113.5 407q-37.5 21 -59.5 58t-22 82q0 44 22.5 80.5t59.5 58t81 21.5t82 -21.5t60.5 -58t22.5 -80.5q0 -45 -22.5 -82t-60.5 -58t-82 -21t-81.5 21zM248 491.5q21 21.5 21 55.5q0 32 -21 53.5t-53 21.5q-30 0 -51.5 -21.5t-21.5 -53.5q0 -33 21.5 -55t51.5 -22
q32 0 53 21.5z" />
    <glyph glyph-name="plusminus" unicode="&#xb1;" horiz-adv-x="603" 
d="M358 543v-113h186v-108h-186v-113h-113v113h-175v108h175v113h113zM544 54h-474v108h474v-108z" />
    <glyph glyph-name="uni00B2" unicode="&#xb2;" horiz-adv-x="405" 
d="M32 341q3 71 31 118.5t82 81.5l71 44q29 18 41.5 38t12.5 49q0 26 -17 43t-44 17q-33 0 -51 -21t-22 -58h-104q3 43 24 80t60 59t92 22q80 0 120.5 -41.5t40.5 -101.5q0 -92 -105 -155l-57 -35q-43 -27 -51 -52h210v-88h-334z" />
    <glyph glyph-name="uni00B3" unicode="&#xb3;" horiz-adv-x="422" 
d="M71 373q-50 44 -50 124h98q1 -41 22 -62.5t58 -21.5q36 0 59 16t23 47q0 62 -81 62h-33v81h43q26 0 43 13.5t17 37.5q0 28 -18 45t-50 17q-34 0 -52 -20t-20 -48h-105q3 68 53 109t128 41q71 0 117 -37.5t46 -96.5q0 -38 -22.5 -64.5t-63.5 -37.5q46 -11 71.5 -39
t25.5 -70q0 -39 -21 -70.5t-61.5 -50.5t-97.5 -19q-79 0 -129 44z" />
    <glyph glyph-name="acute" unicode="&#xb4;" horiz-adv-x="298" 
d="M135 553h-103l75 147h140z" />
    <glyph glyph-name="mu" unicode="&#xb5;" horiz-adv-x="578" 
d="M69 -204v692h122v-291q0 -53 23.5 -85t66.5 -32q47 0 76.5 32.5t29.5 85.5v290h122v-488h-122v20q0 27 4 47q-20 -38 -53.5 -61.5t-78.5 -23.5q-40 0 -71 23q3 -17 3 -58v-151h-122z" />
    <glyph glyph-name="paragraph" unicode="&#xb6;" horiz-adv-x="582" 
d="M222 339q-89 0 -142.5 48.5t-53.5 130.5t55.5 132t150.5 50h265v-829h-100v734h-74v-734h-101v468z" />
    <glyph glyph-name="periodcentered" unicode="&#xb7;" horiz-adv-x="261" 
d="M206 241h-151v149h151v-149z" />
    <glyph glyph-name="cedilla" unicode="&#xb8;" horiz-adv-x="311" 
d="M19 -173l43 50q14 -14 30.5 -21.5t38.5 -7.5t35.5 9t13.5 23q0 12 -10 19t-28 7q-16 0 -34 -9l-39 40l68 92l64 -22l-41 -54q46 1 75.5 -21.5t29.5 -58.5q0 -41 -37 -66.5t-89 -25.5q-73 0 -120 46z" />
    <glyph glyph-name="uni00B9" unicode="&#xb9;" horiz-adv-x="293" 
d="M140 625q0 33 2 52q-18 -25 -52 -42.5t-69 -16.5v88q50 7 86.5 32.5t43.5 63.5h89v-461h-100v284z" />
    <glyph glyph-name="ordmasculine" unicode="&#xba;" horiz-adv-x="408" 
d="M112.5 374q-39.5 24 -60.5 65.5t-21 91.5q0 51 21 92t60.5 64.5t91.5 23.5q53 0 92 -23.5t60 -64.5t21 -92q0 -50 -21 -91.5t-60 -65.5t-92 -24q-52 0 -91.5 24zM259 455.5q19 28.5 19 75.5t-19.5 75.5t-54.5 28.5t-54.5 -28.5t-19.5 -75.5t19.5 -75.5t54.5 -28.5
q36 0 55 28.5z" />
    <glyph glyph-name="guillemotright" unicode="&#xbb;" horiz-adv-x="532" 
d="M48 496l201 -164v-152l-201 -164v145l87 65l41 30q-15 10 -41 29l-87 65v146zM294 496l201 -164v-152l-201 -164v145l88 65q22 18 41 30q-18 10 -41 29l-88 65v146z" />
    <glyph glyph-name="onequarter" unicode="&#xbc;" horiz-adv-x="884" 
d="M782 0h-91v98h-200v72l177 249h114v-252h77v-69h-77v-98zM691 167v160l-16 -24l-77 -109q-11 -16 -22 -27h115zM134 539q0 30 2 47q-16 -23 -47 -38.5t-63 -14.5v80q46 6 78.5 29t39.5 58h81v-419h-91v258zM221 0h-114l505 700h114z" />
    <glyph glyph-name="onehalf" unicode="&#xbd;" horiz-adv-x="912" 
d="M133 539q0 30 2 47q-16 -23 -47 -38.5t-63 -14.5v80q46 6 78.5 29t39.5 58h81v-419h-91v258zM220 0h-114l505 700h114zM569 0q3 64 28 107.5t75 74.5l64 40q27 16 38 34.5t11 44.5q0 24 -15 39t-40 15q-30 0 -46.5 -19t-19.5 -52h-95q4 61 46 103.5t114 42.5
q73 0 109.5 -38t36.5 -92q0 -48 -27.5 -82.5t-67.5 -58.5l-52 -32q-39 -24 -46 -47h191v-80h-304z" />
    <glyph glyph-name="threequarters" unicode="&#xbe;" horiz-adv-x="967" 
d="M69.5 312q-45.5 40 -45.5 113h89q1 -38 20.5 -57.5t52.5 -19.5t53.5 14.5t20.5 43.5q0 56 -73 56h-30v74h39q24 0 39 12t15 34q0 26 -16 41t-45 15q-31 0 -47.5 -18t-18.5 -43h-95q2 61 47.5 98.5t116.5 37.5q65 0 106.5 -34t41.5 -88q0 -34 -20 -58t-58 -35
q42 -9 65 -34.5t23 -64.5q0 -54 -43 -90.5t-120 -36.5q-72 0 -117.5 40zM304 0h-114l505 700h114zM865 0h-91v98h-200v72l177 249h114v-252h77v-69h-77v-98zM774 167v160l-16 -24l-77 -109q-11 -16 -22 -27h115z" />
    <glyph glyph-name="questiondown" unicode="&#xbf;" horiz-adv-x="516" 
d="M193 488h151v-149h-151v149zM328 277q0 -72 -19 -112.5t-69 -78.5l-35 -27q-51 -40 -51 -92q0 -42 25 -66t69 -24q54 0 83 33t29 99h133q0 -110 -67 -174.5t-180 -64.5q-63 0 -112.5 23.5t-78 67.5t-28.5 102q0 50 26 94.5t62 71.5l38 28q33 26 45 51t12 69h118z" />
    <glyph glyph-name="Agrave" unicode="&#xc0;" horiz-adv-x="716" 
d="M360 912l66 -147h-107l-109 147h150zM721 0h-147l-70 191h-298l-71 -191h-140l288 700h150zM247 302h216l-80 218q-17 45 -27 81q-11 -34 -29 -81z" />
    <glyph glyph-name="Aacute" unicode="&#xc1;" horiz-adv-x="716" 
d="M372 912h140l-112 -147h-103zM721 0h-147l-70 191h-298l-71 -191h-140l288 700h150zM247 302h216l-80 218q-17 45 -27 81q-11 -34 -29 -81z" />
    <glyph glyph-name="Acircumflex" unicode="&#xc2;" horiz-adv-x="716" 
d="M302 765h-125l104 147h151l103 -147h-122l-29 42q-19 26 -27 46q-5 -12 -26 -46zM721 0h-147l-70 191h-298l-71 -191h-140l288 700h150zM247 302h216l-80 218q-17 45 -27 81q-11 -34 -29 -81z" />
    <glyph glyph-name="Atilde" unicode="&#xc3;" horiz-adv-x="716" 
d="M268 781h-96q0 64 28.5 96t80.5 32q23 0 42.5 -5t46.5 -15q13 -5 25.5 -9t21.5 -4q16 0 23 9t8 27h96q0 -129 -109 -129q-21 0 -40.5 5t-43.5 14q-37 13 -52 13q-31 0 -31 -34zM721 0h-147l-70 191h-298l-71 -191h-140l288 700h150zM247 302h216l-80 218q-17 45 -27 81
q-11 -34 -29 -81z" />
    <glyph glyph-name="Adieresis" unicode="&#xc4;" horiz-adv-x="716" 
d="M197 902h126v-128h-126v128zM393 902h125v-128h-125v128zM721 0h-147l-70 191h-298l-71 -191h-140l288 700h150zM247 302h216l-80 218q-17 45 -27 81q-11 -34 -29 -81z" />
    <glyph glyph-name="Aring" unicode="&#xc5;" horiz-adv-x="716" 
d="M289 766q-28 27 -28 69q0 41 28 68t69 27t69.5 -27t28.5 -68q0 -42 -28.5 -69t-69.5 -27t-69 27zM336.5 858.5q-8.5 -9.5 -8.5 -23.5q0 -15 8.5 -24.5t21.5 -9.5t21.5 9.5t8.5 24.5q0 14 -8.5 23.5t-21.5 9.5t-21.5 -9.5zM721 0h-147l-70 191h-298l-71 -191h-140l288 700
h150zM247 302h216l-80 218q-17 45 -27 81q-11 -34 -29 -81z" />
    <glyph glyph-name="AE" unicode="&#xc6;" horiz-adv-x="939" 
d="M562 306v-195h335v-111h-466v189h-199l-93 -189h-144l362 700h525v-111h-320v-171h305v-112h-305zM287 300h144v301q-23 -57 -41 -92z" />
    <glyph glyph-name="Ccedilla" unicode="&#xc7;" horiz-adv-x="728" 
d="M701 253q-12 -115 -87 -187.5t-199 -82.5l-23 -30q46 1 75.5 -21.5t29.5 -58.5q0 -41 -37 -66.5t-89 -25.5q-73 0 -120 46l43 50q14 -14 30.5 -21.5t38.5 -7.5t35.5 9t13.5 23q0 12 -10 19t-28 7q-16 0 -34 -9l-39 40l35 47q-139 14 -218.5 110.5t-79.5 260.5
q0 110 45 192.5t124.5 126.5t178.5 44q85 0 152.5 -31.5t109 -91t50.5 -141.5h-136q-10 70 -55.5 111.5t-120.5 41.5q-62 0 -110.5 -30.5t-75.5 -87.5t-27 -134q0 -80 27 -139.5t74.5 -91t108.5 -31.5q76 0 126 44.5t61 115.5h131z" />
    <glyph glyph-name="Egrave" unicode="&#xc8;" horiz-adv-x="621" 
d="M394 765h-107l-109 147h150zM579 0h-502v700h487v-111h-356v-171h341v-112h-341v-195h371v-111z" />
    <glyph glyph-name="Eacute" unicode="&#xc9;" horiz-adv-x="621" 
d="M368 765h-103l75 147h140zM579 0h-502v700h487v-111h-356v-171h341v-112h-341v-195h371v-111z" />
    <glyph glyph-name="Ecircumflex" unicode="&#xca;" horiz-adv-x="621" 
d="M145 765l104 147h151l103 -147h-122l-29 42q-19 26 -27 46q-5 -12 -26 -46l-29 -42h-125zM579 0h-502v700h487v-111h-356v-171h341v-112h-341v-195h371v-111z" />
    <glyph glyph-name="Edieresis" unicode="&#xcb;" horiz-adv-x="621" 
d="M291 774h-126v128h126v-128zM486 774h-125v128h125v-128zM579 0h-502v700h487v-111h-356v-171h341v-112h-341v-195h371v-111z" />
    <glyph glyph-name="Igrave" unicode="&#xcc;" horiz-adv-x="284" 
d="M144 912l66 -147h-107l-109 147h150zM77 700h131v-700h-131v700z" />
    <glyph glyph-name="Iacute" unicode="&#xcd;" horiz-adv-x="284" 
d="M156 912h140l-112 -147h-103zM77 700h131v-700h-131v700z" />
    <glyph glyph-name="Icircumflex" unicode="&#xce;" horiz-adv-x="284" 
d="M86 765h-125l104 147h151l103 -147h-122l-29 42q-19 26 -27 46q-5 -12 -26 -46zM77 700h131v-700h-131v700z" />
    <glyph glyph-name="Idieresis" unicode="&#xcf;" horiz-adv-x="284" 
d="M-19 902h126v-128h-126v128zM177 774v128h125v-128h-125zM77 700h131v-700h-131v700z" />
    <glyph glyph-name="Eth" unicode="&#xd0;" horiz-adv-x="748" 
d="M338 700q178 0 274.5 -90.5t96.5 -260.5q0 -106 -42 -184.5t-125 -121.5t-201 -43h-251v307h-70v93h70v300h248zM332 111q114 0 178.5 60t64.5 178q0 115 -62.5 177.5t-181.5 62.5h-110v-189h113v-93h-113v-196h111z" />
    <glyph glyph-name="Ntilde" unicode="&#xd1;" horiz-adv-x="779" 
d="M429.5 788q-19.5 5 -43.5 14q-37 13 -52 13q-31 0 -31 -34h-96q0 64 28.5 96t80.5 32q23 0 42.5 -5t46.5 -15q13 -5 25.5 -9t21.5 -4q16 0 23 9t8 27h96q0 -129 -109 -129q-21 0 -40.5 5zM77 0v700h197l302 -527q-4 40 -4 105v422h131v-700h-172l-327 571q4 -40 4 -98
v-473h-131z" />
    <glyph glyph-name="Ograve" unicode="&#xd2;" horiz-adv-x="765" 
d="M449 765h-107l-109 147h150zM204.5 25.5q-77.5 43.5 -122 126.5t-44.5 198q0 110 44.5 193.5t122.5 129t176 45.5t176.5 -46t124 -129.5t45.5 -192.5q0 -114 -45 -197.5t-123.5 -127t-177.5 -43.5t-176.5 43.5zM491 123q48 30 74.5 88t26.5 139q0 77 -26.5 135.5
t-74.5 90t-110 31.5t-109 -31t-73 -89.5t-26 -136.5q0 -80 26 -138t73 -88.5t109 -30.5t110 30z" />
    <glyph glyph-name="Oacute" unicode="&#xd3;" horiz-adv-x="765" 
d="M423 765h-103l75 147h140zM204.5 25.5q-77.5 43.5 -122 126.5t-44.5 198q0 110 44.5 193.5t122.5 129t176 45.5t176.5 -46t124 -129.5t45.5 -192.5q0 -114 -45 -197.5t-123.5 -127t-177.5 -43.5t-176.5 43.5zM491 123q48 30 74.5 88t26.5 139q0 77 -26.5 135.5t-74.5 90
t-110 31.5t-109 -31t-73 -89.5t-26 -136.5q0 -80 26 -138t73 -88.5t109 -30.5t110 30z" />
    <glyph glyph-name="Ocircumflex" unicode="&#xd4;" horiz-adv-x="765" 
d="M200 765l104 147h151l103 -147h-122l-29 42q-19 26 -27 46q-5 -12 -26 -46l-29 -42h-125zM204.5 25.5q-77.5 43.5 -122 126.5t-44.5 198q0 110 44.5 193.5t122.5 129t176 45.5t176.5 -46t124 -129.5t45.5 -192.5q0 -114 -45 -197.5t-123.5 -127t-177.5 -43.5t-176.5 43.5
zM491 123q48 30 74.5 88t26.5 139q0 77 -26.5 135.5t-74.5 90t-110 31.5t-109 -31t-73 -89.5t-26 -136.5q0 -80 26 -138t73 -88.5t109 -30.5t110 30z" />
    <glyph glyph-name="Otilde" unicode="&#xd5;" horiz-adv-x="765" 
d="M417.5 788q-19.5 5 -43.5 14q-37 13 -52 13q-31 0 -31 -34h-96q0 64 28.5 96t80.5 32q23 0 42.5 -5t46.5 -15q13 -5 25.5 -9t21.5 -4q16 0 23 9t8 27h96q0 -129 -109 -129q-21 0 -40.5 5zM204.5 25.5q-77.5 43.5 -122 126.5t-44.5 198q0 110 44.5 193.5t122.5 129
t176 45.5t176.5 -46t124 -129.5t45.5 -192.5q0 -114 -45 -197.5t-123.5 -127t-177.5 -43.5t-176.5 43.5zM491 123q48 30 74.5 88t26.5 139q0 77 -26.5 135.5t-74.5 90t-110 31.5t-109 -31t-73 -89.5t-26 -136.5q0 -80 26 -138t73 -88.5t109 -30.5t110 30z" />
    <glyph glyph-name="Odieresis" unicode="&#xd6;" horiz-adv-x="765" 
d="M346 774h-126v128h126v-128zM541 774h-125v128h125v-128zM204.5 25.5q-77.5 43.5 -122 126.5t-44.5 198q0 110 44.5 193.5t122.5 129t176 45.5t176.5 -46t124 -129.5t45.5 -192.5q0 -114 -45 -197.5t-123.5 -127t-177.5 -43.5t-176.5 43.5zM491 123q48 30 74.5 88
t26.5 139q0 77 -26.5 135.5t-74.5 90t-110 31.5t-109 -31t-73 -89.5t-26 -136.5q0 -80 26 -138t73 -88.5t109 -30.5t110 30z" />
    <glyph glyph-name="multiply" unicode="&#xd7;" horiz-adv-x="549" 
d="M275 222l-161 -163l-79 80l162 161l-158 156l80 79l155 -158l156 158l80 -79l-158 -156l162 -161l-79 -80z" />
    <glyph glyph-name="Oslash" unicode="&#xd8;" horiz-adv-x="765" 
d="M636 608q44 -49 67.5 -114.5t23.5 -143.5q0 -114 -45 -197.5t-123.5 -127t-177.5 -43.5q-100 0 -177 44l-53 -71l-80 56l57 76q-44 47 -67 113.5t-23 149.5q0 110 44.5 193.5t122.5 129t176 45.5q101 0 181 -49l56 75l77 -57zM208 194l284 381q-49 32 -111 32t-109 -31
t-73 -89.5t-26 -136.5q0 -94 35 -156zM491 123q48 30 74.5 88t26.5 139q0 90 -35 152l-282 -380q46 -29 106 -29q62 0 110 30z" />
    <glyph glyph-name="Ugrave" unicode="&#xd9;" horiz-adv-x="707" 
d="M422 765h-107l-109 147h150zM144 56.5q-75 74.5 -75 210.5v433h132v-413q0 -97 39 -145.5t114 -48.5t114 49t39 145v413h131v-433q0 -136 -75 -210.5t-209 -74.5q-135 0 -210 74.5z" />
    <glyph glyph-name="Uacute" unicode="&#xda;" horiz-adv-x="707" 
d="M396 765h-103l75 147h140zM144 56.5q-75 74.5 -75 210.5v433h132v-413q0 -97 39 -145.5t114 -48.5t114 49t39 145v413h131v-433q0 -136 -75 -210.5t-209 -74.5q-135 0 -210 74.5z" />
    <glyph glyph-name="Ucircumflex" unicode="&#xdb;" horiz-adv-x="707" 
d="M173 765l104 147h151l103 -147h-122l-29 42q-19 26 -27 46q-5 -12 -26 -46l-29 -42h-125zM144 56.5q-75 74.5 -75 210.5v433h132v-413q0 -97 39 -145.5t114 -48.5t114 49t39 145v413h131v-433q0 -136 -75 -210.5t-209 -74.5q-135 0 -210 74.5z" />
    <glyph glyph-name="Udieresis" unicode="&#xdc;" horiz-adv-x="707" 
d="M319 774h-126v128h126v-128zM514 774h-125v128h125v-128zM144 56.5q-75 74.5 -75 210.5v433h132v-413q0 -97 39 -145.5t114 -48.5t114 49t39 145v413h131v-433q0 -136 -75 -210.5t-209 -74.5q-135 0 -210 74.5z" />
    <glyph glyph-name="Yacute" unicode="&#xdd;" horiz-adv-x="659" 
d="M375 765h-103l75 147h140zM263 0v284l-264 416h157l140 -240q22 -36 36 -66q9 19 35 66l142 240h151l-265 -416v-284h-132z" />
    <glyph glyph-name="Thorn" unicode="&#xde;" horiz-adv-x="639" 
d="M77 0v700h131v-123h145q116 0 185.5 -52t69.5 -158q0 -108 -71 -159t-186 -51h-143v-157h-131zM352 268q62 0 91.5 26t29.5 74q0 98 -120 98h-145v-198h144z" />
    <glyph glyph-name="germandbls" unicode="&#xdf;" horiz-adv-x="587" 
d="M283 -15q-23 3 -35 7v96q30 -6 51 -6q59 0 94.5 30.5t35.5 81.5q0 54 -35 84t-100 30h-46v97h47q53 0 88 31t35 81q0 46 -29 75.5t-80 29.5q-61 0 -93 -39t-32 -107v-476h-122v472q0 112 65.5 179t189.5 67q69 0 119.5 -24t77.5 -67t27 -99q0 -63 -38.5 -108t-92.5 -60
q62 -14 102.5 -60.5t40.5 -113.5q0 -95 -60.5 -149.5t-165.5 -54.5q-21 0 -44 3z" />
    <glyph glyph-name="agrave" unicode="&#xe0;" horiz-adv-x="529" 
d="M334 553h-107l-109 147h150zM123 0.5q-39 18.5 -62.5 53t-23.5 80.5q0 77 50.5 113.5t139.5 48.5l70 9q29 4 41.5 14.5t12.5 29.5q0 27 -21.5 45.5t-58.5 18.5q-42 0 -68 -22t-30 -61h-126q6 78 65 126t152 48q109 0 159 -55.5t50 -161.5v-287h-113v20q0 20 5 47
q-21 -39 -60.5 -62t-99.5 -23q-43 0 -82 18.5zM321 105q34 33 34 84v53q-15 -14 -58 -21l-40 -8q-46 -8 -71 -25.5t-25 -48.5t22 -49t55 -18q49 0 83 33z" />
    <glyph glyph-name="aacute" unicode="&#xe1;" horiz-adv-x="529" 
d="M308 553h-103l75 147h140zM123 0.5q-39 18.5 -62.5 53t-23.5 80.5q0 77 50.5 113.5t139.5 48.5l70 9q29 4 41.5 14.5t12.5 29.5q0 27 -21.5 45.5t-58.5 18.5q-42 0 -68 -22t-30 -61h-126q6 78 65 126t152 48q109 0 159 -55.5t50 -161.5v-287h-113v20q0 20 5 47
q-21 -39 -60.5 -62t-99.5 -23q-43 0 -82 18.5zM321 105q34 33 34 84v53q-15 -14 -58 -21l-40 -8q-46 -8 -71 -25.5t-25 -48.5t22 -49t55 -18q49 0 83 33z" />
    <glyph glyph-name="acircumflex" unicode="&#xe2;" horiz-adv-x="529" 
d="M85 553l104 147h151l103 -147h-122l-29 42q-19 26 -27 46q-5 -12 -26 -46l-29 -42h-125zM123 0.5q-39 18.5 -62.5 53t-23.5 80.5q0 77 50.5 113.5t139.5 48.5l70 9q29 4 41.5 14.5t12.5 29.5q0 27 -21.5 45.5t-58.5 18.5q-42 0 -68 -22t-30 -61h-126q6 78 65 126t152 48
q109 0 159 -55.5t50 -161.5v-287h-113v20q0 20 5 47q-21 -39 -60.5 -62t-99.5 -23q-43 0 -82 18.5zM321 105q34 33 34 84v53q-15 -14 -58 -21l-40 -8q-46 -8 -71 -25.5t-25 -48.5t22 -49t55 -18q49 0 83 33z" />
    <glyph glyph-name="atilde" unicode="&#xe3;" horiz-adv-x="529" 
d="M302.5 576q-19.5 5 -43.5 14q-37 13 -52 13q-31 0 -31 -34h-96q0 64 28.5 96t80.5 32q23 0 42.5 -5t46.5 -15q13 -5 25.5 -9t21.5 -4q16 0 23 9t8 27h96q0 -129 -109 -129q-21 0 -40.5 5zM123 0.5q-39 18.5 -62.5 53t-23.5 80.5q0 77 50.5 113.5t139.5 48.5l70 9
q29 4 41.5 14.5t12.5 29.5q0 27 -21.5 45.5t-58.5 18.5q-42 0 -68 -22t-30 -61h-126q6 78 65 126t152 48q109 0 159 -55.5t50 -161.5v-287h-113v20q0 20 5 47q-21 -39 -60.5 -62t-99.5 -23q-43 0 -82 18.5zM321 105q34 33 34 84v53q-15 -14 -58 -21l-40 -8q-46 -8 -71 -25.5
t-25 -48.5t22 -49t55 -18q49 0 83 33z" />
    <glyph glyph-name="adieresis" unicode="&#xe4;" horiz-adv-x="529" 
d="M231 562h-126v128h126v-128zM426 562h-125v128h125v-128zM123 0.5q-39 18.5 -62.5 53t-23.5 80.5q0 77 50.5 113.5t139.5 48.5l70 9q29 4 41.5 14.5t12.5 29.5q0 27 -21.5 45.5t-58.5 18.5q-42 0 -68 -22t-30 -61h-126q6 78 65 126t152 48q109 0 159 -55.5t50 -161.5
v-287h-113v20q0 20 5 47q-21 -39 -60.5 -62t-99.5 -23q-43 0 -82 18.5zM321 105q34 33 34 84v53q-15 -14 -58 -21l-40 -8q-46 -8 -71 -25.5t-25 -48.5t22 -49t55 -18q49 0 83 33z" />
    <glyph glyph-name="aring" unicode="&#xe5;" horiz-adv-x="529" 
d="M197 554q-28 27 -28 69q0 41 28 68t69 27t69.5 -27t28.5 -68q0 -42 -28.5 -69t-69.5 -27t-69 27zM287.5 598.5q8.5 9.5 8.5 24.5q0 14 -8.5 23.5t-21.5 9.5t-21.5 -9.5t-8.5 -23.5q0 -15 8.5 -24.5t21.5 -9.5t21.5 9.5zM123 0.5q-39 18.5 -62.5 53t-23.5 80.5
q0 77 50.5 113.5t139.5 48.5l70 9q29 4 41.5 14.5t12.5 29.5q0 27 -21.5 45.5t-58.5 18.5q-42 0 -68 -22t-30 -61h-126q6 78 65 126t152 48q109 0 159 -55.5t50 -161.5v-287h-113v20q0 20 5 47q-21 -39 -60.5 -62t-99.5 -23q-43 0 -82 18.5zM321 105q34 33 34 84v53
q-15 -14 -58 -21l-40 -8q-46 -8 -71 -25.5t-25 -48.5t22 -49t55 -18q49 0 83 33z" />
    <glyph glyph-name="ae" unicode="&#xe6;" horiz-adv-x="871" 
d="M88 23.5q-50 41.5 -50 112.5q0 76 52 112.5t140 47.5l74 10q48 8 48 41q0 28 -21 47t-60 19q-43 0 -68 -23t-29 -60h-126q7 80 66 127t151 47q58 0 98.5 -19t67.5 -57q33 37 76.5 56.5t93.5 19.5q110 0 172.5 -71.5t62.5 -191.5v-27h-356q2 -58 36 -97t88 -39
q41 0 70 21.5t35 59.5h124q-5 -50 -34.5 -90t-79.5 -63.5t-115 -23.5q-66 0 -115.5 28t-80.5 81q-27 -55 -79 -82t-112 -27q-79 0 -129 41.5zM711 302q-2 49 -32.5 80t-78.5 31t-81.5 -31.5t-39.5 -79.5h232zM321.5 104q33.5 32 33.5 82v56q-12 -12 -43 -19l-49 -9
q-50 -9 -75.5 -24.5t-25.5 -52.5q0 -30 22 -47.5t53 -17.5q51 0 84.5 32z" />
    <glyph glyph-name="ccedilla" unicode="&#xe7;" horiz-adv-x="550" 
d="M523 186q-12 -88 -66 -141.5t-146 -61.5l-23 -30q46 1 75.5 -21.5t29.5 -58.5q0 -41 -37 -66.5t-89 -25.5q-73 0 -120 46l43 50q14 -14 30.5 -21.5t38.5 -7.5t35.5 9t13.5 23q0 12 -10 19t-28 7q-16 0 -34 -9l-39 40l36 48q-94 14 -146.5 82.5t-52.5 176.5q0 79 33 138
t91 90.5t129 31.5q103 0 162.5 -55t68.5 -145h-124q-3 44 -30.5 73.5t-76.5 29.5q-56 0 -92.5 -43.5t-36.5 -120.5q0 -73 35 -119t91 -46q52 0 81 30.5t34 77.5h124z" />
    <glyph glyph-name="egrave" unicode="&#xe8;" horiz-adv-x="550" 
d="M347 553h-107l-109 147h150zM153.5 13q-56.5 31 -88 90t-31.5 142q0 76 31.5 135t87.5 91.5t126 32.5q111 0 173 -71t62 -192v-27h-355q1 -59 35 -97.5t89 -38.5q41 0 69.5 21.5t34.5 59.5h124q-5 -50 -34.5 -90.5t-79.5 -63.5t-114 -23q-73 0 -129.5 31zM389 302
q-2 50 -32 80.5t-79 30.5t-82 -31t-38 -80h231z" />
    <glyph glyph-name="eacute" unicode="&#xe9;" horiz-adv-x="550" 
d="M321 553h-103l75 147h140zM153.5 13q-56.5 31 -88 90t-31.5 142q0 76 31.5 135t87.5 91.5t126 32.5q111 0 173 -71t62 -192v-27h-355q1 -59 35 -97.5t89 -38.5q41 0 69.5 21.5t34.5 59.5h124q-5 -50 -34.5 -90.5t-79.5 -63.5t-114 -23q-73 0 -129.5 31zM389 302
q-2 50 -32 80.5t-79 30.5t-82 -31t-38 -80h231z" />
    <glyph glyph-name="ecircumflex" unicode="&#xea;" horiz-adv-x="550" 
d="M98 553l104 147h151l103 -147h-122l-29 42q-19 26 -27 46q-5 -12 -26 -46l-29 -42h-125zM153.5 13q-56.5 31 -88 90t-31.5 142q0 76 31.5 135t87.5 91.5t126 32.5q111 0 173 -71t62 -192v-27h-355q1 -59 35 -97.5t89 -38.5q41 0 69.5 21.5t34.5 59.5h124
q-5 -50 -34.5 -90.5t-79.5 -63.5t-114 -23q-73 0 -129.5 31zM389 302q-2 50 -32 80.5t-79 30.5t-82 -31t-38 -80h231z" />
    <glyph glyph-name="edieresis" unicode="&#xeb;" horiz-adv-x="550" 
d="M244 562h-126v128h126v-128zM439 562h-125v128h125v-128zM153.5 13q-56.5 31 -88 90t-31.5 142q0 76 31.5 135t87.5 91.5t126 32.5q111 0 173 -71t62 -192v-27h-355q1 -59 35 -97.5t89 -38.5q41 0 69.5 21.5t34.5 59.5h124q-5 -50 -34.5 -90.5t-79.5 -63.5t-114 -23
q-73 0 -129.5 31zM389 302q-2 50 -32 80.5t-79 30.5t-82 -31t-38 -80h231z" />
    <glyph glyph-name="igrave" unicode="&#xec;" horiz-adv-x="246" 
d="M125 700l66 -147h-107l-109 147h150zM62 488h122v-488h-122v488z" />
    <glyph glyph-name="iacute" unicode="&#xed;" horiz-adv-x="246" 
d="M137 700h140l-112 -147h-103zM62 488h122v-488h-122v488z" />
    <glyph glyph-name="icircumflex" unicode="&#xee;" horiz-adv-x="246" 
d="M67 553h-125l104 147h151l103 -147h-122l-29 42q-19 26 -27 46q-5 -12 -26 -46zM62 488h122v-488h-122v488z" />
    <glyph glyph-name="idieresis" unicode="&#xef;" horiz-adv-x="246" 
d="M-38 690h126v-128h-126v128zM158 562v128h125v-128h-125zM62 488h122v-488h-122v488z" />
    <glyph glyph-name="eth" unicode="&#xf0;" horiz-adv-x="573" 
d="M432 582q103 -130 103 -329q0 -81 -32.5 -142.5t-90 -95t-129.5 -33.5q-73 0 -129.5 31.5t-88 90t-31.5 138.5q0 78 30.5 137.5t82 92t113.5 32.5q80 0 135 -62q-17 28 -39 58q-16 21 -43 48l-130 -38l-21 74l76 22q-38 25 -82 46l91 71q71 -33 124 -78l111 33l20 -75z
M376.5 121.5q34.5 43.5 34.5 120.5q0 78 -35 121.5t-92 43.5t-91.5 -43.5t-34.5 -121.5q0 -77 34 -120.5t92 -43.5t92.5 43.5z" />
    <glyph glyph-name="ntilde" unicode="&#xf1;" horiz-adv-x="560" 
d="M326.5 576q-19.5 5 -43.5 14q-37 13 -52 13q-31 0 -31 -34h-96q0 64 28.5 96t80.5 32q23 0 42.5 -5t46.5 -15q13 -5 25.5 -9t21.5 -4q16 0 23 9t8 27h96q0 -129 -109 -129q-21 0 -40.5 5zM62 0v488h122v-22q0 -23 -4 -48q47 86 150 86q81 0 126.5 -52.5t45.5 -143.5v-308
h-122v290q0 54 -24.5 85.5t-67.5 31.5q-45 0 -74.5 -35t-29.5 -86v-286h-122z" />
    <glyph glyph-name="ograve" unicode="&#xf2;" horiz-adv-x="569" 
d="M352 553h-107l-109 147h150zM154 13.5q-57 31.5 -88.5 90t-31.5 138.5q0 79 32 138t88.5 91.5t129.5 32.5t130 -32t89 -91.5t32 -138.5q0 -80 -32 -138.5t-89 -90t-130 -31.5t-130 31.5zM376.5 121.5q34.5 43.5 34.5 120.5q0 78 -35 121.5t-92 43.5t-91.5 -43.5
t-34.5 -121.5q0 -77 34 -120.5t92 -43.5t92.5 43.5z" />
    <glyph glyph-name="oacute" unicode="&#xf3;" horiz-adv-x="569" 
d="M326 553h-103l75 147h140zM154 13.5q-57 31.5 -88.5 90t-31.5 138.5q0 79 32 138t88.5 91.5t129.5 32.5t130 -32t89 -91.5t32 -138.5q0 -80 -32 -138.5t-89 -90t-130 -31.5t-130 31.5zM376.5 121.5q34.5 43.5 34.5 120.5q0 78 -35 121.5t-92 43.5t-91.5 -43.5
t-34.5 -121.5q0 -77 34 -120.5t92 -43.5t92.5 43.5z" />
    <glyph glyph-name="ocircumflex" unicode="&#xf4;" horiz-adv-x="569" 
d="M103 553l104 147h151l103 -147h-122l-29 42q-19 26 -27 46q-5 -12 -26 -46l-29 -42h-125zM154 13.5q-57 31.5 -88.5 90t-31.5 138.5q0 79 32 138t88.5 91.5t129.5 32.5t130 -32t89 -91.5t32 -138.5q0 -80 -32 -138.5t-89 -90t-130 -31.5t-130 31.5zM376.5 121.5
q34.5 43.5 34.5 120.5q0 78 -35 121.5t-92 43.5t-91.5 -43.5t-34.5 -121.5q0 -77 34 -120.5t92 -43.5t92.5 43.5z" />
    <glyph glyph-name="otilde" unicode="&#xf5;" horiz-adv-x="569" 
d="M320.5 576q-19.5 5 -43.5 14q-37 13 -52 13q-31 0 -31 -34h-96q0 64 28.5 96t80.5 32q23 0 42.5 -5t46.5 -15q13 -5 25.5 -9t21.5 -4q16 0 23 9t8 27h96q0 -129 -109 -129q-21 0 -40.5 5zM154 13.5q-57 31.5 -88.5 90t-31.5 138.5q0 79 32 138t88.5 91.5t129.5 32.5
t130 -32t89 -91.5t32 -138.5q0 -80 -32 -138.5t-89 -90t-130 -31.5t-130 31.5zM376.5 121.5q34.5 43.5 34.5 120.5q0 78 -35 121.5t-92 43.5t-91.5 -43.5t-34.5 -121.5q0 -77 34 -120.5t92 -43.5t92.5 43.5z" />
    <glyph glyph-name="odieresis" unicode="&#xf6;" horiz-adv-x="569" 
d="M249 562h-126v128h126v-128zM444 562h-125v128h125v-128zM154 13.5q-57 31.5 -88.5 90t-31.5 138.5q0 79 32 138t88.5 91.5t129.5 32.5t130 -32t89 -91.5t32 -138.5q0 -80 -32 -138.5t-89 -90t-130 -31.5t-130 31.5zM376.5 121.5q34.5 43.5 34.5 120.5q0 78 -35 121.5
t-92 43.5t-91.5 -43.5t-34.5 -121.5q0 -77 34 -120.5t92 -43.5t92.5 43.5z" />
    <glyph glyph-name="divide" unicode="&#xf7;" horiz-adv-x="557" 
d="M337 429h-116v115h116v-115zM522 245h-474v108h474v-108zM337 54h-116v115h116v-115z" />
    <glyph glyph-name="oslash" unicode="&#xf8;" horiz-adv-x="569" 
d="M476 420q28 -34 43.5 -79t15.5 -99q0 -80 -32 -138.5t-89 -90t-130 -31.5q-65 0 -116 24l-46 -62l-78 54l49 65q-59 68 -59 179q0 79 32 138t88.5 91.5t129.5 32.5q66 0 118 -26l47 63l76 -55zM169 166l170 228q-23 13 -55 13q-57 0 -91.5 -43.5t-34.5 -121.5
q0 -41 11 -76zM376.5 121.5q34.5 43.5 34.5 120.5q0 41 -11 76l-170 -228q24 -12 54 -12q58 0 92.5 43.5z" />
    <glyph glyph-name="ugrave" unicode="&#xf9;" horiz-adv-x="559" 
d="M350 553h-107l-109 147h150zM106 33.5q-49 51.5 -49 144.5v310h123v-291q0 -53 23 -85t66 -32q47 0 76.5 32.5t29.5 85.5v290h122v-488h-121v20q0 22 5 47q-45 -85 -149 -85q-77 0 -126 51.5z" />
    <glyph glyph-name="uacute" unicode="&#xfa;" horiz-adv-x="559" 
d="M324 553h-103l75 147h140zM106 33.5q-49 51.5 -49 144.5v310h123v-291q0 -53 23 -85t66 -32q47 0 76.5 32.5t29.5 85.5v290h122v-488h-121v20q0 22 5 47q-45 -85 -149 -85q-77 0 -126 51.5z" />
    <glyph glyph-name="ucircumflex" unicode="&#xfb;" horiz-adv-x="559" 
d="M101 553l104 147h151l103 -147h-122l-29 42q-19 26 -27 46q-5 -12 -26 -46l-29 -42h-125zM106 33.5q-49 51.5 -49 144.5v310h123v-291q0 -53 23 -85t66 -32q47 0 76.5 32.5t29.5 85.5v290h122v-488h-121v20q0 22 5 47q-45 -85 -149 -85q-77 0 -126 51.5z" />
    <glyph glyph-name="udieresis" unicode="&#xfc;" horiz-adv-x="559" 
d="M247 562h-126v128h126v-128zM442 562h-125v128h125v-128zM106 33.5q-49 51.5 -49 144.5v310h123v-291q0 -53 23 -85t66 -32q47 0 76.5 32.5t29.5 85.5v290h122v-488h-121v20q0 22 5 47q-45 -85 -149 -85q-77 0 -126 51.5z" />
    <glyph glyph-name="yacute" unicode="&#xfd;" horiz-adv-x="508" 
d="M302 553h-103l75 147h140zM117 -204l79 208l-191 484h137l104 -315q9 -25 16 -58q3 17 15 58l99 315h128l-257 -692h-130z" />
    <glyph glyph-name="thorn" unicode="&#xfe;" horiz-adv-x="588" 
d="M62 -204v904h122v-234q0 -21 -4 -48q51 86 160 86q64 0 112.5 -33.5t75 -93t26.5 -136.5t-28.5 -136t-78.5 -91t-112 -32q-58 0 -93.5 22t-61.5 63q4 -27 4 -47v-224h-122zM395.5 123.5q34.5 45.5 34.5 119.5q0 73 -33.5 118.5t-91.5 45.5q-56 0 -91 -44.5t-35 -119.5
q0 -73 35 -119t91 -46t90.5 45.5z" />
    <glyph glyph-name="ydieresis" unicode="&#xff;" horiz-adv-x="508" 
d="M225 562h-126v128h126v-128zM420 562h-125v128h125v-128zM117 -204l79 208l-191 484h137l104 -315q9 -25 16 -58q3 17 15 58l99 315h128l-257 -692h-130z" />
    <glyph glyph-name="Amacron" unicode="&#x100;" horiz-adv-x="716" 
d="M189 884h339v-92h-339v92zM721 0h-147l-70 191h-298l-71 -191h-140l288 700h150zM247 302h216l-80 218q-17 45 -27 81q-11 -34 -29 -81z" />
    <glyph glyph-name="amacron" unicode="&#x101;" horiz-adv-x="529" 
d="M436 580h-339v92h339v-92zM123 0.5q-39 18.5 -62.5 53t-23.5 80.5q0 77 50.5 113.5t139.5 48.5l70 9q29 4 41.5 14.5t12.5 29.5q0 27 -21.5 45.5t-58.5 18.5q-42 0 -68 -22t-30 -61h-126q6 78 65 126t152 48q109 0 159 -55.5t50 -161.5v-287h-113v20q0 20 5 47
q-21 -39 -60.5 -62t-99.5 -23q-43 0 -82 18.5zM321 105q34 33 34 84v53q-15 -14 -58 -21l-40 -8q-46 -8 -71 -25.5t-25 -48.5t22 -49t55 -18q49 0 83 33z" />
    <glyph glyph-name="Abreve" unicode="&#x102;" horiz-adv-x="716" 
d="M251.5 800.5q-34.5 39.5 -34.5 111.5h89q0 -34 12 -51.5t39 -17.5q26 0 39.5 18.5t13.5 50.5h89q0 -73 -35 -112t-107 -39q-71 0 -105.5 39.5zM721 0h-147l-70 191h-298l-71 -191h-140l288 700h150zM247 302h216l-80 218q-17 45 -27 81q-11 -34 -29 -81z" />
    <glyph glyph-name="abreve" unicode="&#x103;" horiz-adv-x="529" 
d="M159.5 588.5q-34.5 39.5 -34.5 111.5h89q0 -34 12 -51.5t39 -17.5q26 0 39.5 18.5t13.5 50.5h89q0 -73 -35 -112t-107 -39q-71 0 -105.5 39.5zM123 0.5q-39 18.5 -62.5 53t-23.5 80.5q0 77 50.5 113.5t139.5 48.5l70 9q29 4 41.5 14.5t12.5 29.5q0 27 -21.5 45.5
t-58.5 18.5q-42 0 -68 -22t-30 -61h-126q6 78 65 126t152 48q109 0 159 -55.5t50 -161.5v-287h-113v20q0 20 5 47q-21 -39 -60.5 -62t-99.5 -23q-43 0 -82 18.5zM321 105q34 33 34 84v53q-15 -14 -58 -21l-40 -8q-46 -8 -71 -25.5t-25 -48.5t22 -49t55 -18q49 0 83 33z" />
    <glyph glyph-name="Aogonek" unicode="&#x104;" horiz-adv-x="716" 
d="M729 -104v-76q-12 -8 -33 -13.5t-44 -5.5q-57 0 -87.5 26t-30.5 69q0 65 75 104h-35l-70 191h-298l-71 -191h-140l288 700h150l288 -700q-41 -24 -59.5 -44t-18.5 -40q0 -15 10.5 -23.5t24.5 -8.5q22 0 51 12zM247 302h216l-80 218q-17 45 -27 81q-11 -34 -29 -81z" />
    <glyph glyph-name="aogonek" unicode="&#x105;" horiz-adv-x="529" 
d="M482 -104v-76q-13 -8 -34 -13.5t-44 -5.5q-56 0 -86.5 27t-30.5 73q0 30 17.5 56t55.5 49v14q0 20 5 47q-21 -39 -60.5 -62t-99.5 -23q-43 0 -82 18.5t-62.5 53t-23.5 80.5q0 77 50.5 113.5t139.5 48.5l70 9q29 4 41.5 14.5t12.5 29.5q0 27 -21.5 45.5t-58.5 18.5
q-42 0 -68 -22t-30 -61h-126q6 78 65 126t152 48q109 0 159 -55.5t50 -161.5v-287q-41 -24 -59.5 -44t-18.5 -40q0 -16 10.5 -24t25.5 -8q21 0 51 12zM355 242q-15 -14 -58 -21l-40 -8q-46 -8 -71 -25.5t-25 -48.5t22 -49t55 -18q49 0 83 33t34 84v53z" />
    <glyph glyph-name="Cacute" unicode="&#x106;" horiz-adv-x="728" 
d="M428 765h-103l75 147h140zM198 26q-77 44 -118.5 128t-41.5 201q0 110 45 192.5t124.5 126.5t178.5 44q85 0 152.5 -31.5t109 -91t50.5 -141.5h-136q-10 70 -55.5 111.5t-120.5 41.5q-62 0 -110.5 -30.5t-75.5 -87.5t-27 -134q0 -80 27 -139.5t74.5 -91t108.5 -31.5
q76 0 126 44.5t61 115.5h131q-9 -81 -49.5 -142.5t-110.5 -95t-162 -33.5q-104 0 -181 44z" />
    <glyph glyph-name="cacute" unicode="&#x107;" horiz-adv-x="550" 
d="M328 553h-103l75 147h140zM99.5 52q-65.5 70 -65.5 192q0 79 33 138t91 90.5t129 31.5q103 0 162.5 -55t68.5 -145h-124q-3 44 -30.5 73.5t-76.5 29.5q-56 0 -92.5 -43.5t-36.5 -120.5q0 -73 35 -119t91 -46q52 0 81 30.5t34 77.5h124q-13 -96 -74.5 -150t-167.5 -54
q-116 0 -181.5 70z" />
    <glyph glyph-name="Ccircumflex" unicode="&#x108;" horiz-adv-x="728" 
d="M205 765l104 147h151l103 -147h-122l-29 42q-19 26 -27 46q-5 -12 -26 -46l-29 -42h-125zM198 26q-77 44 -118.5 128t-41.5 201q0 110 45 192.5t124.5 126.5t178.5 44q85 0 152.5 -31.5t109 -91t50.5 -141.5h-136q-10 70 -55.5 111.5t-120.5 41.5q-62 0 -110.5 -30.5
t-75.5 -87.5t-27 -134q0 -80 27 -139.5t74.5 -91t108.5 -31.5q76 0 126 44.5t61 115.5h131q-9 -81 -49.5 -142.5t-110.5 -95t-162 -33.5q-104 0 -181 44z" />
    <glyph glyph-name="ccircumflex" unicode="&#x109;" horiz-adv-x="550" 
d="M105 553l104 147h151l103 -147h-122l-29 42q-19 26 -27 46q-5 -12 -26 -46l-29 -42h-125zM99.5 52q-65.5 70 -65.5 192q0 79 33 138t91 90.5t129 31.5q103 0 162.5 -55t68.5 -145h-124q-3 44 -30.5 73.5t-76.5 29.5q-56 0 -92.5 -43.5t-36.5 -120.5q0 -73 35 -119t91 -46
q52 0 81 30.5t34 77.5h124q-13 -96 -74.5 -150t-167.5 -54q-116 0 -181.5 70z" />
    <glyph glyph-name="Cdotaccent" unicode="&#x10a;" horiz-adv-x="728" 
d="M450 774h-127v128h127v-128zM198 26q-77 44 -118.5 128t-41.5 201q0 110 45 192.5t124.5 126.5t178.5 44q85 0 152.5 -31.5t109 -91t50.5 -141.5h-136q-10 70 -55.5 111.5t-120.5 41.5q-62 0 -110.5 -30.5t-75.5 -87.5t-27 -134q0 -80 27 -139.5t74.5 -91t108.5 -31.5
q76 0 126 44.5t61 115.5h131q-9 -81 -49.5 -142.5t-110.5 -95t-162 -33.5q-104 0 -181 44z" />
    <glyph glyph-name="cdotaccent" unicode="&#x10b;" horiz-adv-x="550" 
d="M350 562h-127v128h127v-128zM99.5 52q-65.5 70 -65.5 192q0 79 33 138t91 90.5t129 31.5q103 0 162.5 -55t68.5 -145h-124q-3 44 -30.5 73.5t-76.5 29.5q-56 0 -92.5 -43.5t-36.5 -120.5q0 -73 35 -119t91 -46q52 0 81 30.5t34 77.5h124q-13 -96 -74.5 -150t-167.5 -54
q-116 0 -181.5 70z" />
    <glyph glyph-name="Ccaron" unicode="&#x10c;" horiz-adv-x="728" 
d="M311 765l-103 147h124l29 -42q17 -23 26 -45q9 18 27 45l28 42h124l-105 -147h-150zM198 26q-77 44 -118.5 128t-41.5 201q0 110 45 192.5t124.5 126.5t178.5 44q85 0 152.5 -31.5t109 -91t50.5 -141.5h-136q-10 70 -55.5 111.5t-120.5 41.5q-62 0 -110.5 -30.5
t-75.5 -87.5t-27 -134q0 -80 27 -139.5t74.5 -91t108.5 -31.5q76 0 126 44.5t61 115.5h131q-9 -81 -49.5 -142.5t-110.5 -95t-162 -33.5q-104 0 -181 44z" />
    <glyph glyph-name="ccaron" unicode="&#x10d;" horiz-adv-x="550" 
d="M211 553l-103 147h124l29 -42q17 -24 26 -45q9 18 27 45l28 42h124l-105 -147h-150zM99.5 52q-65.5 70 -65.5 192q0 79 33 138t91 90.5t129 31.5q103 0 162.5 -55t68.5 -145h-124q-3 44 -30.5 73.5t-76.5 29.5q-56 0 -92.5 -43.5t-36.5 -120.5q0 -73 35 -119t91 -46
q52 0 81 30.5t34 77.5h124q-13 -96 -74.5 -150t-167.5 -54q-116 0 -181.5 70z" />
    <glyph glyph-name="Dcaron" unicode="&#x10e;" horiz-adv-x="736" 
d="M276 765l-103 147h124l29 -42q17 -23 26 -45q9 18 27 45l28 42h124l-105 -147h-150zM77 0v700h248q178 0 274.5 -90.5t96.5 -260.5q0 -106 -42 -184.5t-125 -121.5t-201 -43h-251zM319 111q114 0 178.5 60t64.5 178q0 115 -62.5 177.5t-181.5 62.5h-110v-478h111z" />
    <glyph glyph-name="dcaron" unicode="&#x10f;" horiz-adv-x="687" 
d="M96.5 49.5q-61.5 67.5 -61.5 192.5q0 84 31.5 143t83 89t110.5 30q100 0 151 -86q-4 18 -4 48v234h122v-700h-122v20q0 30 4 47q-18 -34 -55.5 -59.5t-97.5 -25.5q-100 0 -161.5 67.5zM576 514q36 4 49.5 20.5t13.5 51.5h-63v114h128v-107q0 -72 -34 -102t-94 -33v56z
M378 124q36 46 36 119q0 74 -35.5 119t-91.5 45q-36 0 -65.5 -21t-46 -58t-16.5 -85q0 -75 36 -120t92 -45q55 0 91 46z" />
    <glyph glyph-name="Dcroat" unicode="&#x110;" horiz-adv-x="748" 
d="M338 700q178 0 274.5 -90.5t96.5 -260.5q0 -106 -42 -184.5t-125 -121.5t-201 -43h-251v307h-70v93h70v300h248zM332 111q114 0 178.5 60t64.5 178q0 115 -62.5 177.5t-181.5 62.5h-110v-189h113v-93h-113v-196h111z" />
    <glyph glyph-name="dcroat" unicode="&#x111;" horiz-adv-x="591" 
d="M602 632v-93h-73v-539h-122v20q0 30 4 47q-18 -34 -55.5 -59.5t-97.5 -25.5q-100 0 -161.5 67.5t-61.5 192.5q0 84 31.5 143t83 89t110.5 30q100 0 151 -86q-4 18 -4 48v73h-156v93h156v68h122v-68h73zM378 124q36 46 36 119q0 74 -35.5 119t-91.5 45q-36 0 -65.5 -21
t-46 -58t-16.5 -85q0 -75 36 -120t92 -45q55 0 91 46z" />
    <glyph glyph-name="Emacron" unicode="&#x112;" horiz-adv-x="621" 
d="M496 792h-339v92h339v-92zM579 0h-502v700h487v-111h-356v-171h341v-112h-341v-195h371v-111z" />
    <glyph glyph-name="emacron" unicode="&#x113;" horiz-adv-x="550" 
d="M449 580h-339v92h339v-92zM153.5 13q-56.5 31 -88 90t-31.5 142q0 76 31.5 135t87.5 91.5t126 32.5q111 0 173 -71t62 -192v-27h-355q1 -59 35 -97.5t89 -38.5q41 0 69.5 21.5t34.5 59.5h124q-5 -50 -34.5 -90.5t-79.5 -63.5t-114 -23q-73 0 -129.5 31zM389 302
q-2 50 -32 80.5t-79 30.5t-82 -31t-38 -80h231z" />
    <glyph glyph-name="Ebreve" unicode="&#x114;" horiz-adv-x="621" 
d="M219.5 800.5q-34.5 39.5 -34.5 111.5h89q0 -34 12 -51.5t39 -17.5q26 0 39.5 18.5t13.5 50.5h89q0 -73 -35 -112t-107 -39q-71 0 -105.5 39.5zM579 0h-502v700h487v-111h-356v-171h341v-112h-341v-195h371v-111z" />
    <glyph glyph-name="ebreve" unicode="&#x115;" horiz-adv-x="550" 
d="M172.5 588.5q-34.5 39.5 -34.5 111.5h89q0 -34 12 -51.5t39 -17.5q26 0 39.5 18.5t13.5 50.5h89q0 -73 -35 -112t-107 -39q-71 0 -105.5 39.5zM153.5 13q-56.5 31 -88 90t-31.5 142q0 76 31.5 135t87.5 91.5t126 32.5q111 0 173 -71t62 -192v-27h-355q1 -59 35 -97.5
t89 -38.5q41 0 69.5 21.5t34.5 59.5h124q-5 -50 -34.5 -90.5t-79.5 -63.5t-114 -23q-73 0 -129.5 31zM389 302q-2 50 -32 80.5t-79 30.5t-82 -31t-38 -80h231z" />
    <glyph glyph-name="Edotaccent" unicode="&#x116;" horiz-adv-x="621" 
d="M390 774h-127v128h127v-128zM579 0h-502v700h487v-111h-356v-171h341v-112h-341v-195h371v-111z" />
    <glyph glyph-name="edotaccent" unicode="&#x117;" horiz-adv-x="550" 
d="M343 562h-127v128h127v-128zM153.5 13q-56.5 31 -88 90t-31.5 142q0 76 31.5 135t87.5 91.5t126 32.5q111 0 173 -71t62 -192v-27h-355q1 -59 35 -97.5t89 -38.5q41 0 69.5 21.5t34.5 59.5h124q-5 -50 -34.5 -90.5t-79.5 -63.5t-114 -23q-73 0 -129.5 31zM389 302
q-2 50 -32 80.5t-79 30.5t-82 -31t-38 -80h231z" />
    <glyph glyph-name="Eogonek" unicode="&#x118;" horiz-adv-x="621" 
d="M588 -104v-76q-13 -8 -34 -13.5t-44 -5.5q-56 0 -86.5 27t-30.5 73q0 57 64 99h-380v700h487v-111h-356v-171h341v-112h-341v-195h371v-111q-41 -24 -59.5 -44t-18.5 -40q0 -16 10.5 -24t25.5 -8q21 0 51 12z" />
    <glyph glyph-name="eogonek" unicode="&#x119;" horiz-adv-x="550" 
d="M213.5 -172.5q-30.5 26.5 -30.5 71.5q0 53 46 87q-90 16 -142.5 83.5t-52.5 175.5q0 76 31.5 135t87.5 91.5t126 32.5q111 0 173 -71t62 -192v-27h-355q1 -59 35 -97.5t89 -38.5q41 0 69.5 21.5t34.5 59.5h124q-5 -58 -42.5 -101.5t-98.5 -62.5q-40 -13 -59 -33.5
t-19 -41.5q0 -18 10.5 -27t26.5 -9q21 0 49 12v-76q-12 -8 -33 -13.5t-44 -5.5q-57 0 -87.5 26.5zM389 302q-2 50 -32 80.5t-79 30.5t-82 -31t-38 -80h231z" />
    <glyph glyph-name="Ecaron" unicode="&#x11a;" horiz-adv-x="621" 
d="M251 765l-103 147h124l29 -42q17 -23 26 -45q9 18 27 45l28 42h124l-105 -147h-150zM579 0h-502v700h487v-111h-356v-171h341v-112h-341v-195h371v-111z" />
    <glyph glyph-name="ecaron" unicode="&#x11b;" horiz-adv-x="550" 
d="M204 553l-103 147h124l29 -42q17 -24 26 -45q9 18 27 45l28 42h124l-105 -147h-150zM153.5 13q-56.5 31 -88 90t-31.5 142q0 76 31.5 135t87.5 91.5t126 32.5q111 0 173 -71t62 -192v-27h-355q1 -59 35 -97.5t89 -38.5q41 0 69.5 21.5t34.5 59.5h124q-5 -50 -34.5 -90.5
t-79.5 -63.5t-114 -23q-73 0 -129.5 31zM389 302q-2 50 -32 80.5t-79 30.5t-82 -31t-38 -80h231z" />
    <glyph glyph-name="Gcircumflex" unicode="&#x11c;" horiz-adv-x="746" 
d="M209 765l104 147h151l103 -147h-122l-29 42q-19 26 -27 46q-5 -12 -26 -46l-29 -42h-125zM195 27.5q-75 45.5 -116 128.5t-41 194q0 107 44 190.5t124 130.5t184 47q86 0 151.5 -30t104 -83.5t45.5 -121.5h-135q-7 54 -51.5 89t-112.5 35q-64 0 -114 -31t-77.5 -89.5
t-27.5 -136.5t27 -136.5t76 -89.5t113 -31q52 0 94 20.5t66.5 57.5t24.5 86v5h-190v111h310v-373h-120v22q0 38 7 70q-26 -50 -80.5 -80t-132.5 -30q-98 0 -173 45.5z" />
    <glyph glyph-name="gcircumflex" unicode="&#x11d;" horiz-adv-x="587" 
d="M113 553l104 147h151l103 -147h-122l-29 42q-19 26 -27 46q-5 -12 -26 -46l-29 -42h-125zM116 -170.5q-60 51.5 -60 136.5h124q2 -44 29 -68t76 -24q51 0 84.5 29t33.5 82v53q0 36 4 61q-53 -81 -152 -81q-64 0 -113.5 29t-77.5 84t-28 130q0 73 30 128.5t79 85t104 29.5
q61 0 97.5 -22t60.5 -64q-4 23 -4 48v22h122v-473q0 -117 -65.5 -177t-177.5 -60q-106 0 -166 51.5zM375 156q35 41 35 105t-35 105t-89 41q-55 0 -90.5 -41t-35.5 -105t35.5 -105t90.5 -41q54 0 89 41z" />
    <glyph glyph-name="Gbreve" unicode="&#x11e;" horiz-adv-x="746" 
d="M283.5 800.5q-34.5 39.5 -34.5 111.5h89q0 -34 12 -51.5t39 -17.5q26 0 39.5 18.5t13.5 50.5h89q0 -73 -35 -112t-107 -39q-71 0 -105.5 39.5zM195 27.5q-75 45.5 -116 128.5t-41 194q0 107 44 190.5t124 130.5t184 47q86 0 151.5 -30t104 -83.5t45.5 -121.5h-135
q-7 54 -51.5 89t-112.5 35q-64 0 -114 -31t-77.5 -89.5t-27.5 -136.5t27 -136.5t76 -89.5t113 -31q52 0 94 20.5t66.5 57.5t24.5 86v5h-190v111h310v-373h-120v22q0 38 7 70q-26 -50 -80.5 -80t-132.5 -30q-98 0 -173 45.5z" />
    <glyph glyph-name="gbreve" unicode="&#x11f;" horiz-adv-x="587" 
d="M187.5 588.5q-34.5 39.5 -34.5 111.5h89q0 -34 12 -51.5t39 -17.5q26 0 39.5 18.5t13.5 50.5h89q0 -73 -35 -112t-107 -39q-71 0 -105.5 39.5zM116 -170.5q-60 51.5 -60 136.5h124q2 -44 29 -68t76 -24q51 0 84.5 29t33.5 82v53q0 36 4 61q-53 -81 -152 -81
q-64 0 -113.5 29t-77.5 84t-28 130q0 73 30 128.5t79 85t104 29.5q61 0 97.5 -22t60.5 -64q-4 23 -4 48v22h122v-473q0 -117 -65.5 -177t-177.5 -60q-106 0 -166 51.5zM375 156q35 41 35 105t-35 105t-89 41q-55 0 -90.5 -41t-35.5 -105t35.5 -105t90.5 -41q54 0 89 41z" />
    <glyph glyph-name="Gdotaccent" unicode="&#x120;" horiz-adv-x="746" 
d="M454 774h-127v128h127v-128zM195 27.5q-75 45.5 -116 128.5t-41 194q0 107 44 190.5t124 130.5t184 47q86 0 151.5 -30t104 -83.5t45.5 -121.5h-135q-7 54 -51.5 89t-112.5 35q-64 0 -114 -31t-77.5 -89.5t-27.5 -136.5t27 -136.5t76 -89.5t113 -31q52 0 94 20.5
t66.5 57.5t24.5 86v5h-190v111h310v-373h-120v22q0 38 7 70q-26 -50 -80.5 -80t-132.5 -30q-98 0 -173 45.5z" />
    <glyph glyph-name="gdotaccent" unicode="&#x121;" horiz-adv-x="587" 
d="M358 562h-127v128h127v-128zM116 -170.5q-60 51.5 -60 136.5h124q2 -44 29 -68t76 -24q51 0 84.5 29t33.5 82v53q0 36 4 61q-53 -81 -152 -81q-64 0 -113.5 29t-77.5 84t-28 130q0 73 30 128.5t79 85t104 29.5q61 0 97.5 -22t60.5 -64q-4 23 -4 48v22h122v-473
q0 -117 -65.5 -177t-177.5 -60q-106 0 -166 51.5zM375 156q35 41 35 105t-35 105t-89 41q-55 0 -90.5 -41t-35.5 -105t35.5 -105t90.5 -41q54 0 89 41z" />
    <glyph glyph-name="uni0122" unicode="&#x122;" horiz-adv-x="746" 
d="M195 27.5q-75 45.5 -116 128.5t-41 194q0 107 44 190.5t124 130.5t184 47q86 0 151.5 -30t104 -83.5t45.5 -121.5h-135q-7 54 -51.5 89t-112.5 35q-64 0 -114 -31t-77.5 -89.5t-27.5 -136.5t27 -136.5t76 -89.5t113 -31q52 0 94 20.5t66.5 57.5t24.5 86v5h-190v111h310
v-373h-120v22q0 38 7 70q-26 -50 -80.5 -80t-132.5 -30q-98 0 -173 45.5zM322 -263q36 4 49.5 20.5t13.5 51.5h-63v114h128v-107q0 -72 -34 -102t-94 -33v56z" />
    <glyph glyph-name="uni0123" unicode="&#x123;" horiz-adv-x="587" 
d="M358 740q-36 -4 -49.5 -20.5t-13.5 -51.5h63v-114h-128v107q0 72 34 102t94 33v-56zM116 -170.5q-60 51.5 -60 136.5h124q2 -44 29 -68t76 -24q51 0 84.5 29t33.5 82v53q0 36 4 61q-53 -81 -152 -81q-64 0 -113.5 29t-77.5 84t-28 130q0 73 30 128.5t79 85t104 29.5
q61 0 97.5 -22t60.5 -64q-4 23 -4 48v22h122v-473q0 -117 -65.5 -177t-177.5 -60q-106 0 -166 51.5zM375 156q35 41 35 105t-35 105t-89 41q-55 0 -90.5 -41t-35.5 -105t35.5 -105t90.5 -41q54 0 89 41z" />
    <glyph glyph-name="Hcircumflex" unicode="&#x124;" horiz-adv-x="738" 
d="M188 765l104 147h151l103 -147h-122l-29 42q-19 26 -27 46q-5 -12 -26 -46l-29 -42h-125zM208 0h-131v700h131v-286h323v286h131v-700h-131v303h-323v-303z" />
    <glyph glyph-name="hcircumflex" unicode="&#x125;" horiz-adv-x="560" 
d="M108 737l104 147h151l103 -147h-122l-29 42q-19 26 -27 46q-5 -12 -26 -46l-29 -42h-125zM62 0v700h122v-234q0 -23 -4 -48q47 86 150 86q81 0 126.5 -52.5t45.5 -143.5v-308h-122v290q0 54 -24.5 85.5t-67.5 31.5q-45 0 -74.5 -35t-29.5 -86v-286h-122z" />
    <glyph glyph-name="Hbar" unicode="&#x126;" horiz-adv-x="738" 
d="M662 602h66v-93h-66v-509h-131v303h-323v-303h-131v509h-67v93h67v98h131v-98h323v98h131v-98zM208 414h323v95h-323v-95z" />
    <glyph glyph-name="hbar" unicode="&#x127;" horiz-adv-x="560" 
d="M456.5 451.5q45.5 -52.5 45.5 -143.5v-308h-122v290q0 54 -24.5 85.5t-67.5 31.5q-45 0 -74.5 -35t-29.5 -86v-286h-122v539h-73v93h73v68h122v-68h156v-93h-156v-73q0 -23 -4 -48q47 86 150 86q81 0 126.5 -52.5z" />
    <glyph glyph-name="Itilde" unicode="&#x128;" horiz-adv-x="284" 
d="M328 912q0 -129 -109 -129q-21 0 -40.5 5t-43.5 14q-37 13 -52 13q-31 0 -31 -34h-96q0 64 28.5 96t80.5 32q23 0 42.5 -5t46.5 -15q13 -5 25.5 -9t21.5 -4q15 0 22.5 9t8.5 27h96zM77 700h131v-700h-131v700z" />
    <glyph glyph-name="itilde" unicode="&#x129;" horiz-adv-x="246" 
d="M309 700q0 -129 -109 -129q-21 0 -40.5 5t-43.5 14q-37 13 -52 13q-31 0 -31 -34h-96q0 64 28.5 96t80.5 32q23 0 42.5 -5t46.5 -15q13 -5 25.5 -9t21.5 -4q16 0 23 9t8 27h96zM62 488h122v-488h-122v488z" />
    <glyph glyph-name="Imacron" unicode="&#x12a;" horiz-adv-x="284" 
d="M-27 792v92h339v-92h-339zM77 700h131v-700h-131v700z" />
    <glyph glyph-name="imacron" unicode="&#x12b;" horiz-adv-x="246" 
d="M-46 580v92h339v-92h-339zM62 488h122v-488h-122v488z" />
    <glyph glyph-name="Ibreve" unicode="&#x12c;" horiz-adv-x="284" 
d="M283 912q0 -73 -35 -112t-107 -39q-71 0 -105.5 39.5t-34.5 111.5h89q0 -34 12 -51.5t39 -17.5q26 0 39.5 18.5t13.5 50.5h89zM77 700h131v-700h-131v700z" />
    <glyph glyph-name="ibreve" unicode="&#x12d;" horiz-adv-x="246" 
d="M264 700q0 -73 -35 -112t-107 -39q-71 0 -105.5 39.5t-34.5 111.5h89q0 -34 12 -51.5t39 -17.5q26 0 39.5 18.5t13.5 50.5h89zM62 488h122v-488h-122v488z" />
    <glyph glyph-name="Iogonek" unicode="&#x12e;" horiz-adv-x="284" 
d="M216 -104v-76q-12 -8 -33 -13.5t-44 -5.5q-57 0 -87.5 25.5t-30.5 66.5q0 68 56 107v700h131v-700q-41 -24 -60 -44t-19 -40q0 -15 11 -23.5t25 -8.5q21 0 51 12z" />
    <glyph glyph-name="iogonek" unicode="&#x12f;" horiz-adv-x="246" 
d="M60 690h127v-128h-127v128zM193 -104v-76q-13 -8 -34 -13.5t-44 -5.5q-56 0 -86.5 27t-30.5 73q0 57 64 99v488h122v-488q-41 -24 -59.5 -44t-18.5 -40q0 -16 10.5 -24t25.5 -8q21 0 51 12z" />
    <glyph glyph-name="Idotaccent" unicode="&#x130;" horiz-adv-x="284" 
d="M79 902h127v-128h-127v128zM77 700h131v-700h-131v700z" />
    <glyph glyph-name="dotlessi" unicode="&#x131;" horiz-adv-x="246" 
d="M62 488h122v-488h-122v488z" />
    <glyph glyph-name="IJ" unicode="&#x132;" horiz-adv-x="823" 
d="M77 700h131v-700h-131v700zM350 46q-55 64 -53 179h131q0 -63 21 -97.5t73 -34.5q58 0 78 37t20 103v467h132v-491q0 -108 -62 -167.5t-166 -59.5q-119 0 -174 64z" />
    <glyph glyph-name="ij" unicode="&#x133;" horiz-adv-x="499" 
d="M59 562v128h128v-128h-128zM62 488h122v-488h-122v488zM313 562v128h127v-128h-127zM437 488v-564q0 -64 -38 -105t-116 -41q-18 0 -36 2.5t-27 6.5v94q7 -3 25 -3q35 0 52.5 16t17.5 53v541h122z" />
    <glyph glyph-name="Jcircumflex" unicode="&#x134;" horiz-adv-x="539" 
d="M221 765l104 147h151l103 -147h-122l-29 42q-19 26 -27 46q-5 -12 -26 -46l-29 -42h-125zM66 46q-55 64 -53 179h131q0 -63 21 -97.5t73 -34.5q58 0 78 37t20 103v467h132v-491q0 -108 -62 -167.5t-166 -59.5q-119 0 -174 64z" />
    <glyph glyph-name="jcircumflex" unicode="&#x135;" horiz-adv-x="253" 
d="M74 553h-125l104 147h151l103 -147h-122l-29 42q-19 26 -27 46q-5 -12 -26 -46zM191 488v-564q0 -64 -38 -105t-116 -41q-18 0 -36 2.5t-27 6.5v94q7 -3 25 -3q35 0 52.5 16t17.5 53v541h122z" />
    <glyph glyph-name="uni0136" unicode="&#x136;" horiz-adv-x="663" 
d="M363 406l323 -406h-173l-238 314l-69 -71v-243h-129v700h129v-296q14 21 46 55l227 241h167zM289 -191v114h128v-107q0 -72 -34 -102t-94 -33v56q36 4 49.5 20.5t13.5 51.5h-63z" />
    <glyph glyph-name="uni0137" unicode="&#x137;" horiz-adv-x="521" 
d="M315 280l217 -280h-156l-142 197l-50 -51v-146h-122v700h122v-405q16 22 35 43l140 150h159zM214 -191v114h128v-107q0 -72 -34 -102t-94 -33v56q36 4 49.5 20.5t13.5 51.5h-63z" />
    <glyph glyph-name="Lacute" unicode="&#x139;" horiz-adv-x="567" 
d="M184 765h-103l75 147h140zM560 0h-483v700h131v-589h352v-111z" />
    <glyph glyph-name="lacute" unicode="&#x13a;" horiz-adv-x="246" 
d="M137 912h140l-112 -147h-103zM62 700h122v-700h-122v700z" />
    <glyph glyph-name="uni013B" unicode="&#x13b;" horiz-adv-x="567" 
d="M560 0h-483v700h131v-589h352v-111zM254 -263q36 4 49.5 20.5t13.5 51.5h-63v114h128v-107q0 -72 -34 -102t-94 -33v56z" />
    <glyph glyph-name="uni013C" unicode="&#x13c;" horiz-adv-x="246" 
d="M184 700v-700h-122v700h122zM59 -77h128v-107q0 -72 -34 -102t-94 -33v56q36 4 49.5 20.5t13.5 51.5h-63v114z" />
    <glyph glyph-name="Lcaron" unicode="&#x13d;" horiz-adv-x="567" 
d="M560 0h-483v700h131v-589h352v-111zM334 514q36 4 49.5 20.5t13.5 51.5h-63v114h128v-107q0 -72 -34 -102t-94 -33v56z" />
    <glyph glyph-name="lcaron" unicode="&#x13e;" horiz-adv-x="357" 
d="M62 700h122v-700h-122v700zM237 700h128v-107q0 -72 -34 -102t-94 -33v56q36 4 49.5 20.5t13.5 51.5h-63v114z" />
    <glyph glyph-name="Ldot" unicode="&#x13f;" horiz-adv-x="567" 
d="M560 0h-483v700h131v-589h352v-111zM486 261h-151v150h151v-150z" />
    <glyph glyph-name="ldot" unicode="&#x140;" horiz-adv-x="436" 
d="M62 700h122v-700h-122v700zM417 283h-151v149h151v-149z" />
    <glyph glyph-name="Lslash" unicode="&#x141;" horiz-adv-x="615" 
d="M221 287v-176h352v-111h-483v229l-93 -41v114l93 41v357h131v-299l185 82v-114z" />
    <glyph glyph-name="lslash" unicode="&#x142;" horiz-adv-x="380" 
d="M251 428l112 52v-114l-112 -52v-314h-122v258l-107 -49v114l107 49v328h122v-272z" />
    <glyph glyph-name="Nacute" unicode="&#x143;" horiz-adv-x="779" 
d="M435 765h-103l75 147h140zM77 0v700h197l302 -527q-4 40 -4 105v422h131v-700h-172l-327 571q4 -40 4 -98v-473h-131z" />
    <glyph glyph-name="nacute" unicode="&#x144;" horiz-adv-x="560" 
d="M332 553h-103l75 147h140zM62 0v488h122v-22q0 -23 -4 -48q47 86 150 86q81 0 126.5 -52.5t45.5 -143.5v-308h-122v290q0 54 -24.5 85.5t-67.5 31.5q-45 0 -74.5 -35t-29.5 -86v-286h-122z" />
    <glyph glyph-name="uni0145" unicode="&#x145;" horiz-adv-x="779" 
d="M77 0v700h197l302 -527q-4 40 -4 105v422h131v-700h-172l-327 571q4 -40 4 -98v-473h-131zM335 -263q36 4 49.5 20.5t13.5 51.5h-63v114h128v-107q0 -72 -34 -102t-94 -33v56z" />
    <glyph glyph-name="uni0146" unicode="&#x146;" horiz-adv-x="560" 
d="M62 0v488h122v-22q0 -23 -4 -48q47 86 150 86q81 0 126.5 -52.5t45.5 -143.5v-308h-122v290q0 54 -24.5 85.5t-67.5 31.5q-45 0 -74.5 -35t-29.5 -86v-286h-122zM226 -263q36 4 49.5 20.5t13.5 51.5h-63v114h128v-107q0 -72 -34 -102t-94 -33v56z" />
    <glyph glyph-name="Ncaron" unicode="&#x147;" horiz-adv-x="779" 
d="M318 765l-103 147h124l29 -42q17 -24 26 -45q9 18 27 45l28 42h124l-105 -147h-150zM77 0v700h197l302 -527q-4 40 -4 105v422h131v-700h-172l-327 571q4 -40 4 -98v-473h-131z" />
    <glyph glyph-name="ncaron" unicode="&#x148;" horiz-adv-x="560" 
d="M215 553l-103 147h124l29 -42q17 -24 26 -45q9 18 27 45l28 42h124l-105 -147h-150zM62 0v488h122v-22q0 -23 -4 -48q47 86 150 86q81 0 126.5 -52.5t45.5 -143.5v-308h-122v290q0 54 -24.5 85.5t-67.5 31.5q-45 0 -74.5 -35t-29.5 -86v-286h-122z" />
    <glyph glyph-name="Eng" unicode="&#x14a;" horiz-adv-x="779" 
d="M485 -213v92q8 -3 25 -3q37 0 54.5 16t17.5 53v49l-380 560q6 -40 6 -97v-457h-131v700h178l323 -475q-6 45 -6 105v370h131v-776q0 -64 -38.5 -105t-115.5 -41q-41 0 -64 9z" />
    <glyph glyph-name="eng" unicode="&#x14b;" horiz-adv-x="560" 
d="M456.5 451.5q45.5 -52.5 45.5 -143.5v-384q0 -64 -38 -105t-116 -41q-41 0 -64 9v92q9 -3 26 -3q36 0 53 16t17 53v345q0 54 -24.5 85.5t-67.5 31.5q-45 0 -74.5 -35t-29.5 -86v-286h-122v488h122v-22q0 -23 -4 -48q47 86 150 86q81 0 126.5 -52.5z" />
    <glyph glyph-name="Omacron" unicode="&#x14c;" horiz-adv-x="765" 
d="M551 792h-339v92h339v-92zM204.5 25.5q-77.5 43.5 -122 126.5t-44.5 198q0 110 44.5 193.5t122.5 129t176 45.5t176.5 -46t124 -129.5t45.5 -192.5q0 -114 -45 -197.5t-123.5 -127t-177.5 -43.5t-176.5 43.5zM491 123q48 30 74.5 88t26.5 139q0 77 -26.5 135.5t-74.5 90
t-110 31.5t-109 -31t-73 -89.5t-26 -136.5q0 -80 26 -138t73 -88.5t109 -30.5t110 30z" />
    <glyph glyph-name="omacron" unicode="&#x14d;" horiz-adv-x="569" 
d="M454 580h-339v92h339v-92zM154 13.5q-57 31.5 -88.5 90t-31.5 138.5q0 79 32 138t88.5 91.5t129.5 32.5t130 -32t89 -91.5t32 -138.5q0 -80 -32 -138.5t-89 -90t-130 -31.5t-130 31.5zM376.5 121.5q34.5 43.5 34.5 120.5q0 78 -35 121.5t-92 43.5t-91.5 -43.5
t-34.5 -121.5q0 -77 34 -120.5t92 -43.5t92.5 43.5z" />
    <glyph glyph-name="Obreve" unicode="&#x14e;" horiz-adv-x="765" 
d="M274.5 800.5q-34.5 39.5 -34.5 111.5h89q0 -34 12 -51.5t39 -17.5q26 0 39.5 18.5t13.5 50.5h89q0 -73 -35 -112t-107 -39q-71 0 -105.5 39.5zM204.5 25.5q-77.5 43.5 -122 126.5t-44.5 198q0 110 44.5 193.5t122.5 129t176 45.5t176.5 -46t124 -129.5t45.5 -192.5
q0 -114 -45 -197.5t-123.5 -127t-177.5 -43.5t-176.5 43.5zM491 123q48 30 74.5 88t26.5 139q0 77 -26.5 135.5t-74.5 90t-110 31.5t-109 -31t-73 -89.5t-26 -136.5q0 -80 26 -138t73 -88.5t109 -30.5t110 30z" />
    <glyph glyph-name="obreve" unicode="&#x14f;" horiz-adv-x="569" 
d="M177.5 588.5q-34.5 39.5 -34.5 111.5h89q0 -34 12 -51.5t39 -17.5q26 0 39.5 18.5t13.5 50.5h89q0 -73 -35 -112t-107 -39q-71 0 -105.5 39.5zM154 13.5q-57 31.5 -88.5 90t-31.5 138.5q0 79 32 138t88.5 91.5t129.5 32.5t130 -32t89 -91.5t32 -138.5q0 -80 -32 -138.5
t-89 -90t-130 -31.5t-130 31.5zM376.5 121.5q34.5 43.5 34.5 120.5q0 78 -35 121.5t-92 43.5t-91.5 -43.5t-34.5 -121.5q0 -77 34 -120.5t92 -43.5t92.5 43.5z" />
    <glyph glyph-name="Ohungarumlaut" unicode="&#x150;" horiz-adv-x="765" 
d="M326 765h-93l48 147h154zM519 765h-96l48 147h156zM204.5 25.5q-77.5 43.5 -122 126.5t-44.5 198q0 110 44.5 193.5t122.5 129t176 45.5t176.5 -46t124 -129.5t45.5 -192.5q0 -114 -45 -197.5t-123.5 -127t-177.5 -43.5t-176.5 43.5zM491 123q48 30 74.5 88t26.5 139
q0 77 -26.5 135.5t-74.5 90t-110 31.5t-109 -31t-73 -89.5t-26 -136.5q0 -80 26 -138t73 -88.5t109 -30.5t110 30z" />
    <glyph glyph-name="ohungarumlaut" unicode="&#x151;" horiz-adv-x="569" 
d="M229 553h-93l48 147h154zM422 553h-96l48 147h156zM154 13.5q-57 31.5 -88.5 90t-31.5 138.5q0 79 32 138t88.5 91.5t129.5 32.5t130 -32t89 -91.5t32 -138.5q0 -80 -32 -138.5t-89 -90t-130 -31.5t-130 31.5zM376.5 121.5q34.5 43.5 34.5 120.5q0 78 -35 121.5t-92 43.5
t-91.5 -43.5t-34.5 -121.5q0 -77 34 -120.5t92 -43.5t92.5 43.5z" />
    <glyph glyph-name="OE" unicode="&#x152;" horiz-adv-x="949" 
d="M375 0q-98 0 -174.5 41.5t-119.5 121.5t-43 191q0 105 46.5 183.5t127 120.5t178.5 42h502v-111h-310v-171h295v-112h-295v-195h325v-111h-532zM450 111v478h-69q-58 0 -105.5 -26.5t-75 -79t-27.5 -126.5q0 -78 26.5 -133.5t73.5 -84t108 -28.5h69z" />
    <glyph glyph-name="oe" unicode="&#x153;" horiz-adv-x="924" 
d="M154 13.5q-57 31.5 -88.5 90t-31.5 138.5q0 79 32 138t88.5 91.5t129.5 32.5q59 0 106.5 -21.5t79.5 -61.5q33 40 80 61.5t104 21.5q111 0 173 -70.5t62 -192.5v-27h-356q2 -58 36 -97t88 -39q41 0 70 21.5t35 59.5h124q-5 -50 -34.5 -90t-80 -63.5t-116.5 -23.5
q-59 0 -106.5 20t-79.5 59q-31 -38 -78.5 -58.5t-106.5 -20.5q-73 0 -130 31.5zM764 302q-1 50 -31.5 80.5t-79.5 30.5t-82 -31t-39 -80h232zM376.5 121.5q34.5 43.5 34.5 120.5q0 78 -35 121.5t-92 43.5t-91.5 -43.5t-34.5 -121.5q0 -77 34 -120.5t92 -43.5t92.5 43.5z" />
    <glyph glyph-name="Racute" unicode="&#x154;" horiz-adv-x="661" 
d="M361 765h-103l75 147h140zM77 0v700h310q102 0 164 -47.5t62 -136.5q0 -67 -39 -110.5t-95 -60.5q60 -10 91.5 -52t31.5 -110v-183h-132v171q0 62 -25.5 87.5t-89.5 25.5h-147v-284h-131zM362 396q116 0 116 96q0 48 -29.5 72.5t-86.5 24.5h-154v-193h154z" />
    <glyph glyph-name="racute" unicode="&#x155;" horiz-adv-x="362" 
d="M244 553h-103l75 147h140zM62 0v488h122v-37q0 -27 -4 -51q49 104 143 104q14 0 26 -3v-118q-16 4 -35 4q-60 0 -95 -34.5t-35 -110.5v-242h-122z" />
    <glyph glyph-name="uni0156" unicode="&#x156;" horiz-adv-x="661" 
d="M77 0v700h310q102 0 164 -47.5t62 -136.5q0 -67 -39 -110.5t-95 -60.5q60 -10 91.5 -52t31.5 -110v-183h-132v171q0 62 -25.5 87.5t-89.5 25.5h-147v-284h-131zM362 396q116 0 116 96q0 48 -29.5 72.5t-86.5 24.5h-154v-193h154zM279 -263q36 4 49.5 20.5t13.5 51.5h-63
v114h128v-107q0 -72 -34 -102t-94 -33v56z" />
    <glyph glyph-name="uni0157" unicode="&#x157;" horiz-adv-x="362" 
d="M62 0v488h122v-37q0 -27 -4 -51q49 104 143 104q14 0 26 -3v-118q-16 4 -35 4q-60 0 -95 -34.5t-35 -110.5v-242h-122zM59 -263q36 4 49.5 20.5t13.5 51.5h-63v114h128v-107q0 -72 -34 -102t-94 -33v56z" />
    <glyph glyph-name="Rcaron" unicode="&#x158;" horiz-adv-x="661" 
d="M244 765l-103 147h124l29 -42q17 -24 26 -45q9 18 27 45l28 42h124l-105 -147h-150zM77 0v700h310q102 0 164 -47.5t62 -136.5q0 -67 -39 -110.5t-95 -60.5q60 -10 91.5 -52t31.5 -110v-183h-132v171q0 62 -25.5 87.5t-89.5 25.5h-147v-284h-131zM362 396q116 0 116 96
q0 48 -29.5 72.5t-86.5 24.5h-154v-193h154z" />
    <glyph glyph-name="rcaron" unicode="&#x159;" horiz-adv-x="362" 
d="M127 553l-103 147h124l29 -42q17 -24 26 -45q9 18 27 45l28 42h124l-105 -147h-150zM62 0v488h122v-37q0 -27 -4 -51q49 104 143 104q14 0 26 -3v-118q-16 4 -35 4q-60 0 -95 -34.5t-35 -110.5v-242h-122z" />
    <glyph glyph-name="Sacute" unicode="&#x15a;" horiz-adv-x="655" 
d="M367 765h-103l75 147h140zM115 51.5q-81 69.5 -89 188.5h136q5 -70 55.5 -108.5t123.5 -38.5q63 0 101.5 24t38.5 72q0 39 -28.5 62.5t-86.5 34.5l-119 23q-88 17 -142 67.5t-54 130.5q0 61 35 109t97.5 75t140.5 27q129 0 202 -62.5t79 -167.5h-136q-2 52 -40.5 85.5
t-112.5 33.5q-59 0 -96.5 -23.5t-37.5 -65.5q0 -38 29 -56.5t89 -30.5l118 -23q88 -17 141.5 -67t53.5 -133q0 -66 -32.5 -117t-95 -80t-150.5 -29q-139 0 -220 69.5z" />
    <glyph glyph-name="sacute" unicode="&#x15b;" horiz-adv-x="500" 
d="M287 553h-103l75 147h140zM93 32q-61 50 -67 136h124q2 -44 29 -69.5t75 -25.5q41 0 65.5 17.5t24.5 45.5q0 24 -19.5 37t-60.5 21l-59 12q-160 31 -160 149q0 42 25 76t70.5 53.5t104.5 19.5q97 0 155.5 -46.5t60.5 -123.5h-122q-3 36 -28 57.5t-66 21.5
q-35 0 -57.5 -14t-22.5 -39q0 -22 17.5 -34.5t63.5 -21.5l59 -12q159 -31 159 -149q0 -46 -25.5 -83t-72.5 -57.5t-109 -20.5q-103 0 -164 50z" />
    <glyph glyph-name="Scircumflex" unicode="&#x15c;" horiz-adv-x="655" 
d="M144 765l104 147h151l103 -147h-122l-29 42q-19 26 -27 46q-5 -12 -26 -46l-29 -42h-125zM115 51.5q-81 69.5 -89 188.5h136q5 -70 55.5 -108.5t123.5 -38.5q63 0 101.5 24t38.5 72q0 39 -28.5 62.5t-86.5 34.5l-119 23q-88 17 -142 67.5t-54 130.5q0 61 35 109t97.5 75
t140.5 27q129 0 202 -62.5t79 -167.5h-136q-2 52 -40.5 85.5t-112.5 33.5q-59 0 -96.5 -23.5t-37.5 -65.5q0 -38 29 -56.5t89 -30.5l118 -23q88 -17 141.5 -67t53.5 -133q0 -66 -32.5 -117t-95 -80t-150.5 -29q-139 0 -220 69.5z" />
    <glyph glyph-name="scircumflex" unicode="&#x15d;" horiz-adv-x="500" 
d="M64 553l104 147h151l103 -147h-122l-29 42q-19 26 -27 46q-5 -12 -26 -46l-29 -42h-125zM93 32q-61 50 -67 136h124q2 -44 29 -69.5t75 -25.5q41 0 65.5 17.5t24.5 45.5q0 24 -19.5 37t-60.5 21l-59 12q-160 31 -160 149q0 42 25 76t70.5 53.5t104.5 19.5
q97 0 155.5 -46.5t60.5 -123.5h-122q-3 36 -28 57.5t-66 21.5q-35 0 -57.5 -14t-22.5 -39q0 -22 17.5 -34.5t63.5 -21.5l59 -12q159 -31 159 -149q0 -46 -25.5 -83t-72.5 -57.5t-109 -20.5q-103 0 -164 50z" />
    <glyph glyph-name="Scedilla" unicode="&#x15e;" horiz-adv-x="655" 
d="M548 51.5q-65 -61.5 -183 -68.5l-23 -30q46 1 75.5 -21.5t29.5 -58.5q0 -41 -37 -66.5t-89 -25.5q-73 0 -120 46l43 50q14 -14 30.5 -21.5t38.5 -7.5t35.5 9t13.5 23q0 12 -10 19t-28 7q-16 0 -34 -9l-39 40l35 47q-117 13 -184.5 80.5t-75.5 175.5h136
q5 -70 55.5 -108.5t123.5 -38.5q63 0 101.5 24t38.5 72q0 39 -28.5 62.5t-86.5 34.5l-119 23q-88 17 -142 67.5t-54 130.5q0 61 35 109t97.5 75t140.5 27q129 0 202 -62.5t79 -167.5h-136q-2 52 -40.5 85.5t-112.5 33.5q-59 0 -96.5 -23.5t-37.5 -65.5q0 -38 29 -56.5
t89 -30.5l118 -23q88 -17 141.5 -67t53.5 -133q0 -95 -65 -156.5z" />
    <glyph glyph-name="scedilla" unicode="&#x15f;" horiz-adv-x="500" 
d="M416 34.5q-48 -44.5 -129 -51.5l-23 -30q46 1 75.5 -21.5t29.5 -58.5q0 -41 -37 -66.5t-89 -25.5q-73 0 -120 46l43 50q14 -14 30.5 -21.5t38.5 -7.5t35.5 9t13.5 23q0 12 -10 19t-28 7q-16 0 -34 -9l-39 40l36 48q-82 11 -130 59.5t-53 123.5h124q2 -44 29 -69.5
t75 -25.5q41 0 65.5 17.5t24.5 45.5q0 24 -19.5 37t-60.5 21l-59 12q-160 31 -160 149q0 42 25 76t70.5 53.5t104.5 19.5q97 0 155.5 -46.5t60.5 -123.5h-122q-3 36 -28 57.5t-66 21.5q-35 0 -57.5 -14t-22.5 -39q0 -22 17.5 -34.5t63.5 -21.5l59 -12q159 -31 159 -149
q0 -64 -48 -108.5z" />
    <glyph glyph-name="Scaron" unicode="&#x160;" horiz-adv-x="655" 
d="M250 765l-103 147h124l29 -42q17 -24 26 -45q9 18 27 45l28 42h124l-105 -147h-150zM115 51.5q-81 69.5 -89 188.5h136q5 -70 55.5 -108.5t123.5 -38.5q63 0 101.5 24t38.5 72q0 39 -28.5 62.5t-86.5 34.5l-119 23q-88 17 -142 67.5t-54 130.5q0 61 35 109t97.5 75
t140.5 27q129 0 202 -62.5t79 -167.5h-136q-2 52 -40.5 85.5t-112.5 33.5q-59 0 -96.5 -23.5t-37.5 -65.5q0 -38 29 -56.5t89 -30.5l118 -23q88 -17 141.5 -67t53.5 -133q0 -66 -32.5 -117t-95 -80t-150.5 -29q-139 0 -220 69.5z" />
    <glyph glyph-name="scaron" unicode="&#x161;" horiz-adv-x="500" 
d="M170 553l-103 147h124l29 -42q17 -24 26 -45q9 18 27 45l28 42h124l-105 -147h-150zM93 32q-61 50 -67 136h124q2 -44 29 -69.5t75 -25.5q41 0 65.5 17.5t24.5 45.5q0 24 -19.5 37t-60.5 21l-59 12q-160 31 -160 149q0 42 25 76t70.5 53.5t104.5 19.5q97 0 155.5 -46.5
t60.5 -123.5h-122q-3 36 -28 57.5t-66 21.5q-35 0 -57.5 -14t-22.5 -39q0 -22 17.5 -34.5t63.5 -21.5l59 -12q159 -31 159 -149q0 -46 -25.5 -83t-72.5 -57.5t-109 -20.5q-103 0 -164 50z" />
    <glyph glyph-name="uni0162" unicode="&#x162;" horiz-adv-x="613" 
d="M372 0h-23l-36 -47q46 1 75.5 -21.5t29.5 -58.5q0 -41 -37 -66.5t-89 -25.5q-73 0 -120 46l43 50q14 -14 30.5 -21.5t38.5 -7.5t35.5 9t13.5 23q0 12 -10 19t-28 7q-16 0 -34 -9l-39 40l47 63h-28v589h-234v111h598v-111h-233v-589z" />
    <glyph glyph-name="uni0163" unicode="&#x163;" horiz-adv-x="381" 
d="M361 391h-120v-221q0 -40 17 -60.5t55 -20.5q19 0 37 3v-92q-10 -3 -30.5 -6t-41.5 -3q-17 0 -25 1l-30 -39q46 1 75.5 -21.5t29.5 -58.5q0 -41 -37 -66.5t-89 -25.5q-73 0 -120 46l43 50q14 -14 30.5 -21.5t38.5 -7.5t35.5 9t13.5 23q0 12 -10 19t-28 7q-16 0 -34 -9
l-39 40l54 74q-67 37 -67 141v239h-111v97h111v176h122v-176h120v-97z" />
    <glyph glyph-name="Tcaron" unicode="&#x164;" horiz-adv-x="613" 
d="M231 765l-103 147h124l29 -42q17 -23 26 -45q9 18 27 45l28 42h124l-105 -147h-150zM372 0h-131v589h-234v111h598v-111h-233v-589z" />
    <glyph glyph-name="tcaron" unicode="&#x165;" horiz-adv-x="381" 
d="M288 566q35 1 51 12.5t18 34.5h-67v87h125v-66q0 -51 -34.5 -81t-92.5 -29v42zM119 152v239h-111v97h111v176h122v-176h120v-97h-120v-221q0 -40 17 -60.5t55 -20.5q19 0 37 3v-92q-10 -3 -30.5 -6t-41.5 -3q-159 0 -159 161z" />
    <glyph glyph-name="Tbar" unicode="&#x166;" horiz-adv-x="613" 
d="M605 700v-111h-233v-192h158v-93h-158v-304h-131v304h-159v93h159v192h-234v111h598z" />
    <glyph glyph-name="tbar" unicode="&#x167;" horiz-adv-x="387" 
d="M366 391h-120v-83h93v-91h-93v-47q0 -40 17 -60.5t55 -20.5q19 0 37 3v-92q-10 -3 -30.5 -6t-41.5 -3q-159 0 -159 161v65h-93v91h93v83h-111v97h111v176h122v-176h120v-97z" />
    <glyph glyph-name="Utilde" unicode="&#x168;" horiz-adv-x="707" 
d="M390.5 788q-19.5 5 -43.5 14q-37 13 -52 13q-31 0 -31 -34h-96q0 64 28.5 96t80.5 32q23 0 42.5 -5t46.5 -15q13 -5 25.5 -9t21.5 -4q15 0 22.5 9t8.5 27h96q0 -129 -109 -129q-21 0 -40.5 5zM144 56.5q-75 74.5 -75 210.5v433h132v-413q0 -97 39 -145.5t114 -48.5
t114 49t39 145v413h131v-433q0 -136 -75 -210.5t-209 -74.5q-135 0 -210 74.5z" />
    <glyph glyph-name="utilde" unicode="&#x169;" horiz-adv-x="559" 
d="M318.5 576q-19.5 5 -43.5 14q-37 13 -52 13q-31 0 -31 -34h-96q0 64 28.5 96t80.5 32q23 0 42.5 -5t46.5 -15q13 -5 25.5 -9t21.5 -4q16 0 23 9t8 27h96q0 -129 -109 -129q-21 0 -40.5 5zM106 33.5q-49 51.5 -49 144.5v310h123v-291q0 -53 23 -85t66 -32q47 0 76.5 32.5
t29.5 85.5v290h122v-488h-121v20q0 22 5 47q-45 -85 -149 -85q-77 0 -126 51.5z" />
    <glyph glyph-name="Umacron" unicode="&#x16a;" horiz-adv-x="707" 
d="M524 792h-339v92h339v-92zM144 56.5q-75 74.5 -75 210.5v433h132v-413q0 -97 39 -145.5t114 -48.5t114 49t39 145v413h131v-433q0 -136 -75 -210.5t-209 -74.5q-135 0 -210 74.5z" />
    <glyph glyph-name="umacron" unicode="&#x16b;" horiz-adv-x="559" 
d="M452 580h-339v92h339v-92zM106 33.5q-49 51.5 -49 144.5v310h123v-291q0 -53 23 -85t66 -32q47 0 76.5 32.5t29.5 85.5v290h122v-488h-121v20q0 22 5 47q-45 -85 -149 -85q-77 0 -126 51.5z" />
    <glyph glyph-name="Ubreve" unicode="&#x16c;" horiz-adv-x="707" 
d="M247.5 800.5q-34.5 39.5 -34.5 111.5h89q0 -34 12 -51.5t39 -17.5q26 0 39.5 18.5t13.5 50.5h89q0 -73 -35 -112t-107 -39q-71 0 -105.5 39.5zM144 56.5q-75 74.5 -75 210.5v433h132v-413q0 -97 39 -145.5t114 -48.5t114 49t39 145v413h131v-433q0 -136 -75 -210.5
t-209 -74.5q-135 0 -210 74.5z" />
    <glyph glyph-name="ubreve" unicode="&#x16d;" horiz-adv-x="559" 
d="M175.5 588.5q-34.5 39.5 -34.5 111.5h89q0 -34 12 -51.5t39 -17.5q26 0 39.5 18.5t13.5 50.5h89q0 -73 -35 -112t-107 -39q-71 0 -105.5 39.5zM106 33.5q-49 51.5 -49 144.5v310h123v-291q0 -53 23 -85t66 -32q47 0 76.5 32.5t29.5 85.5v290h122v-488h-121v20q0 22 5 47
q-45 -85 -149 -85q-77 0 -126 51.5z" />
    <glyph glyph-name="Uring" unicode="&#x16e;" horiz-adv-x="707" 
d="M285 766q-28 27 -28 69q0 41 28 68t69 27t69.5 -27t28.5 -68q0 -42 -28.5 -69t-69.5 -27t-69 27zM375.5 810.5q8.5 9.5 8.5 24.5q0 14 -8.5 23.5t-21.5 9.5t-21.5 -9.5t-8.5 -23.5q0 -15 8.5 -24.5t21.5 -9.5t21.5 9.5zM144 56.5q-75 74.5 -75 210.5v433h132v-413
q0 -97 39 -145.5t114 -48.5t114 49t39 145v413h131v-433q0 -136 -75 -210.5t-209 -74.5q-135 0 -210 74.5z" />
    <glyph glyph-name="uring" unicode="&#x16f;" horiz-adv-x="559" 
d="M213 554q-28 27 -28 69q0 41 28 68t69 27t69.5 -27t28.5 -68q0 -42 -28.5 -69t-69.5 -27t-69 27zM303.5 598.5q8.5 9.5 8.5 24.5q0 14 -8.5 23.5t-21.5 9.5t-21.5 -9.5t-8.5 -23.5q0 -15 8.5 -24.5t21.5 -9.5t21.5 9.5zM106 33.5q-49 51.5 -49 144.5v310h123v-291
q0 -53 23 -85t66 -32q47 0 76.5 32.5t29.5 85.5v290h122v-488h-121v20q0 22 5 47q-45 -85 -149 -85q-77 0 -126 51.5z" />
    <glyph glyph-name="Uhungarumlaut" unicode="&#x170;" horiz-adv-x="707" 
d="M299 765h-93l48 147h154zM492 765h-96l48 147h156zM144 56.5q-75 74.5 -75 210.5v433h132v-413q0 -97 39 -145.5t114 -48.5t114 49t39 145v413h131v-433q0 -136 -75 -210.5t-209 -74.5q-135 0 -210 74.5z" />
    <glyph glyph-name="uhungarumlaut" unicode="&#x171;" horiz-adv-x="559" 
d="M227 553h-93l48 147h154zM420 553h-96l48 147h156zM106 33.5q-49 51.5 -49 144.5v310h123v-291q0 -53 23 -85t66 -32q47 0 76.5 32.5t29.5 85.5v290h122v-488h-121v20q0 22 5 47q-45 -85 -149 -85q-77 0 -126 51.5z" />
    <glyph glyph-name="Uogonek" unicode="&#x172;" horiz-adv-x="707" 
d="M301.5 -173.5q-30.5 25.5 -30.5 66.5q0 58 41 91q-116 11 -179.5 84.5t-63.5 198.5v433h132v-413q0 -97 39 -145.5t114 -48.5t114 49t39 145v413h131v-433q0 -211 -186 -272q-39 -14 -56 -34t-17 -41q0 -16 11 -26t25 -10q21 0 51 12v-76q-13 -8 -34 -13.5t-44 -5.5
q-56 0 -86.5 25.5z" />
    <glyph glyph-name="uogonek" unicode="&#x173;" horiz-adv-x="559" 
d="M506 -104v-76q-13 -8 -34 -13.5t-44 -5.5q-56 0 -86.5 27t-30.5 73q0 28 15.5 52.5t49.5 47.5v19q0 22 5 47q-45 -85 -149 -85q-77 0 -126 51.5t-49 144.5v310h123v-291q0 -53 23 -85t66 -32q47 0 76.5 32.5t29.5 85.5v290h122v-488q-41 -24 -59.5 -44t-18.5 -40
q0 -16 10.5 -24t25.5 -8q21 0 51 12z" />
    <glyph glyph-name="Wcircumflex" unicode="&#x174;" horiz-adv-x="1036" 
d="M341 765l104 147h151l103 -147h-122l-29 42q-19 26 -27 46q-5 -12 -26 -46l-29 -42h-125zM192 0l-184 700h146l107 -458q16 -67 27 -125q9 56 26 125l116 458h189l107 -458q19 -78 28 -125q11 68 25 125l111 458h138l-184 -700h-182l-116 498q-2 7 -8 34t-12 63
q-12 -61 -22 -97l-130 -498h-182z" />
    <glyph glyph-name="wcircumflex" unicode="&#x175;" horiz-adv-x="812" 
d="M227 553l104 147h151l103 -147h-122l-29 42q-19 26 -27 46q-5 -12 -26 -46l-29 -42h-125zM156 0l-149 488h126l89 -331q7 -33 11 -61q11 49 14 61l80 331h162l81 -331q1 -7 5.5 -25.5t6.5 -37.5q8 41 14 63l88 331h117l-144 -488h-151l-85 333q-9 46 -11 61
q-4 -31 -13 -61l-84 -333h-157z" />
    <glyph glyph-name="Ycircumflex" unicode="&#x176;" horiz-adv-x="659" 
d="M152 765l104 147h151l103 -147h-122l-29 42q-19 26 -27 46q-5 -12 -26 -46l-29 -42h-125zM263 0v284l-264 416h157l140 -240q22 -36 36 -66q9 19 35 66l142 240h151l-265 -416v-284h-132z" />
    <glyph glyph-name="ycircumflex" unicode="&#x177;" horiz-adv-x="508" 
d="M79 553l104 147h151l103 -147h-122l-29 42q-19 26 -27 46q-5 -12 -26 -46l-29 -42h-125zM117 -204l79 208l-191 484h137l104 -315q9 -25 16 -58q3 17 15 58l99 315h128l-257 -692h-130z" />
    <glyph glyph-name="Ydieresis" unicode="&#x178;" horiz-adv-x="659" 
d="M298 774h-126v128h126v-128zM493 774h-125v128h125v-128zM263 0v284l-264 416h157l140 -240q22 -36 36 -66q9 19 35 66l142 240h151l-265 -416v-284h-132z" />
    <glyph glyph-name="Zacute" unicode="&#x179;" horiz-adv-x="624" 
d="M359 765h-103l75 147h140zM30 0v118l336 401q39 46 65 70h-383v111h533v-111l-344 -411q-27 -33 -61 -67h422v-111h-568z" />
    <glyph glyph-name="zacute" unicode="&#x17a;" horiz-adv-x="484" 
d="M294 553h-103l75 147h140zM32 0v109l241 245q15 14 42 37h-272v97h399v-111l-241 -245q-19 -21 -39 -35h291v-97h-421z" />
    <glyph glyph-name="Zdotaccent" unicode="&#x17b;" horiz-adv-x="624" 
d="M381 774h-127v128h127v-128zM30 0v118l336 401q39 46 65 70h-383v111h533v-111l-344 -411q-27 -33 -61 -67h422v-111h-568z" />
    <glyph glyph-name="zdotaccent" unicode="&#x17c;" horiz-adv-x="484" 
d="M316 562h-127v128h127v-128zM32 0v109l241 245q15 14 42 37h-272v97h399v-111l-241 -245q-19 -21 -39 -35h291v-97h-421z" />
    <glyph glyph-name="Zcaron" unicode="&#x17d;" horiz-adv-x="624" 
d="M242 765l-103 147h124l29 -42q17 -23 26 -45q9 18 27 45l28 42h124l-105 -147h-150zM30 0v118l336 401q39 46 65 70h-383v111h533v-111l-344 -411q-27 -33 -61 -67h422v-111h-568z" />
    <glyph glyph-name="zcaron" unicode="&#x17e;" horiz-adv-x="484" 
d="M177 553l-103 147h124l29 -42q17 -24 26 -45q9 18 27 45l28 42h124l-105 -147h-150zM32 0v109l241 245q15 14 42 37h-272v97h399v-111l-241 -245q-19 -21 -39 -35h291v-97h-421z" />
    <glyph glyph-name="florin" unicode="&#x192;" horiz-adv-x="543" 
d="M370 540l-17 -102h157v-92h-173l-53 -311q-29 -163 -179 -163q-36 0 -78 11v103q37 -10 58 -10q69 0 81 70l51 300h-146v92h162l20 118q28 162 179 162q43 0 78 -11v-103q-31 10 -58 10q-70 0 -82 -74z" />
    <glyph glyph-name="Aringacute" unicode="&#x1fa;" horiz-adv-x="716" 
d="M372 1111h140l-112 -147h-103zM289 766q-28 27 -28 69q0 41 28 68t69 27t69.5 -27t28.5 -68q0 -42 -28.5 -69t-69.5 -27t-69 27zM336.5 858.5q-8.5 -9.5 -8.5 -23.5q0 -15 8.5 -24.5t21.5 -9.5t21.5 9.5t8.5 24.5q0 14 -8.5 23.5t-21.5 9.5t-21.5 -9.5zM721 0h-147
l-70 191h-298l-71 -191h-140l288 700h150zM247 302h216l-80 218q-17 45 -27 81q-11 -34 -29 -81z" />
    <glyph glyph-name="aringacute" unicode="&#x1fb;" horiz-adv-x="529" 
d="M312 751h-103l75 147h140zM197 554q-28 27 -28 69q0 41 28 68t69 27t69.5 -27t28.5 -68q0 -42 -28.5 -69t-69.5 -27t-69 27zM287.5 598.5q8.5 9.5 8.5 24.5q0 14 -8.5 23.5t-21.5 9.5t-21.5 -9.5t-8.5 -23.5q0 -15 8.5 -24.5t21.5 -9.5t21.5 9.5zM123 0.5
q-39 18.5 -62.5 53t-23.5 80.5q0 77 50.5 113.5t139.5 48.5l70 9q29 4 41.5 14.5t12.5 29.5q0 27 -21.5 45.5t-58.5 18.5q-42 0 -68 -22t-30 -61h-126q6 78 65 126t152 48q109 0 159 -55.5t50 -161.5v-287h-113v20q0 20 5 47q-21 -39 -60.5 -62t-99.5 -23q-43 0 -82 18.5z
M321 105q34 33 34 84v53q-15 -14 -58 -21l-40 -8q-46 -8 -71 -25.5t-25 -48.5t22 -49t55 -18q49 0 83 33z" />
    <glyph glyph-name="AEacute" unicode="&#x1fc;" horiz-adv-x="939" 
d="M581 912h140l-112 -147h-103zM562 306v-195h335v-111h-466v189h-199l-93 -189h-144l362 700h525v-111h-320v-171h305v-112h-305zM287 300h144v301q-23 -57 -41 -92z" />
    <glyph glyph-name="aeacute" unicode="&#x1fd;" horiz-adv-x="871" 
d="M475 553h-103l75 147h140zM88 23.5q-50 41.5 -50 112.5q0 76 52 112.5t140 47.5l74 10q48 8 48 41q0 28 -21 47t-60 19q-43 0 -68 -23t-29 -60h-126q7 80 66 127t151 47q58 0 98.5 -19t67.5 -57q33 37 76.5 56.5t93.5 19.5q110 0 172.5 -71.5t62.5 -191.5v-27h-356
q2 -58 36 -97t88 -39q41 0 70 21.5t35 59.5h124q-5 -50 -34.5 -90t-79.5 -63.5t-115 -23.5q-66 0 -115.5 28t-80.5 81q-27 -55 -79 -82t-112 -27q-79 0 -129 41.5zM711 302q-2 49 -32.5 80t-78.5 31t-81.5 -31.5t-39.5 -79.5h232zM321.5 104q33.5 32 33.5 82v56
q-12 -12 -43 -19l-49 -9q-50 -9 -75.5 -24.5t-25.5 -52.5q0 -30 22 -47.5t53 -17.5q51 0 84.5 32z" />
    <glyph glyph-name="Oslashacute" unicode="&#x1fe;" horiz-adv-x="765" 
d="M395 912h140l-112 -147h-103zM636 608q44 -49 67.5 -114.5t23.5 -143.5q0 -114 -45 -197.5t-123.5 -127t-177.5 -43.5q-100 0 -177 44l-53 -71l-80 56l57 76q-44 47 -67 113.5t-23 149.5q0 110 44.5 193.5t122.5 129t176 45.5q101 0 181 -49l56 75l77 -57zM208 194
l284 381q-49 32 -111 32t-109 -31t-73 -89.5t-26 -136.5q0 -94 35 -156zM491 123q48 30 74.5 88t26.5 139q0 90 -35 152l-282 -380q46 -29 106 -29q62 0 110 30z" />
    <glyph glyph-name="oslashacute" unicode="&#x1ff;" horiz-adv-x="569" 
d="M298 700h140l-112 -147h-103zM476 420q28 -34 43.5 -79t15.5 -99q0 -80 -32 -138.5t-89 -90t-130 -31.5q-65 0 -116 24l-46 -62l-78 54l49 65q-59 68 -59 179q0 79 32 138t88.5 91.5t129.5 32.5q66 0 118 -26l47 63l76 -55zM169 166l170 228q-23 13 -55 13
q-57 0 -91.5 -43.5t-34.5 -121.5q0 -41 11 -76zM376.5 121.5q34.5 43.5 34.5 120.5q0 41 -11 76l-170 -228q24 -12 54 -12q58 0 92.5 43.5z" />
    <glyph glyph-name="uni0218" unicode="&#x218;" horiz-adv-x="655" 
d="M115 51.5q-81 69.5 -89 188.5h136q5 -70 55.5 -108.5t123.5 -38.5q63 0 101.5 24t38.5 72q0 39 -28.5 62.5t-86.5 34.5l-119 23q-88 17 -142 67.5t-54 130.5q0 61 35 109t97.5 75t140.5 27q129 0 202 -62.5t79 -167.5h-136q-2 52 -40.5 85.5t-112.5 33.5
q-59 0 -96.5 -23.5t-37.5 -65.5q0 -38 29 -56.5t89 -30.5l118 -23q88 -17 141.5 -67t53.5 -133q0 -66 -32.5 -117t-95 -80t-150.5 -29q-139 0 -220 69.5zM271 -263q36 4 49.5 20.5t13.5 51.5h-63v114h128v-107q0 -72 -34 -102t-94 -33v56z" />
    <glyph glyph-name="uni0219" unicode="&#x219;" horiz-adv-x="500" 
d="M93 32q-61 50 -67 136h124q2 -44 29 -69.5t75 -25.5q41 0 65.5 17.5t24.5 45.5q0 24 -19.5 37t-60.5 21l-59 12q-160 31 -160 149q0 42 25 76t70.5 53.5t104.5 19.5q97 0 155.5 -46.5t60.5 -123.5h-122q-3 36 -28 57.5t-66 21.5q-35 0 -57.5 -14t-22.5 -39
q0 -22 17.5 -34.5t63.5 -21.5l59 -12q159 -31 159 -149q0 -46 -25.5 -83t-72.5 -57.5t-109 -20.5q-103 0 -164 50zM193 -263q36 4 49.5 20.5t13.5 51.5h-63v114h128v-107q0 -72 -34 -102t-94 -33v56z" />
    <glyph glyph-name="uni021A" unicode="&#x21a;" horiz-adv-x="613" 
d="M372 0h-131v589h-234v111h598v-111h-233v-589zM242 -263q36 4 49.5 20.5t13.5 51.5h-63v114h128v-107q0 -72 -34 -102t-94 -33v56z" />
    <glyph glyph-name="uni021B" unicode="&#x21b;" horiz-adv-x="381" 
d="M119 152v239h-111v97h111v176h122v-176h120v-97h-120v-221q0 -40 17 -60.5t55 -20.5q19 0 37 3v-92q-10 -3 -30.5 -6t-41.5 -3q-159 0 -159 161zM157 -263q36 4 49.5 20.5t13.5 51.5h-63v114h128v-107q0 -72 -34 -102t-94 -33v56z" />
    <glyph glyph-name="uni0226" unicode="&#x226;" horiz-adv-x="716" 
d="M295 902h127v-128h-127v128zM721 0h-147l-70 191h-298l-71 -191h-140l288 700h150zM247 302h216l-80 218q-17 45 -27 81q-11 -34 -29 -81z" />
    <glyph glyph-name="uni0227" unicode="&#x227;" horiz-adv-x="529" 
d="M330 562h-127v128h127v-128zM123 0.5q-39 18.5 -62.5 53t-23.5 80.5q0 77 50.5 113.5t139.5 48.5l70 9q29 4 41.5 14.5t12.5 29.5q0 27 -21.5 45.5t-58.5 18.5q-42 0 -68 -22t-30 -61h-126q6 78 65 126t152 48q109 0 159 -55.5t50 -161.5v-287h-113v20q0 20 5 47
q-21 -39 -60.5 -62t-99.5 -23q-43 0 -82 18.5zM321 105q34 33 34 84v53q-15 -14 -58 -21l-40 -8q-46 -8 -71 -25.5t-25 -48.5t22 -49t55 -18q49 0 83 33z" />
    <glyph glyph-name="uni0232" unicode="&#x232;" horiz-adv-x="659" 
d="M503 792h-339v92h339v-92zM263 0v284l-264 416h157l140 -240q22 -36 36 -66q9 19 35 66l142 240h151l-265 -416v-284h-132z" />
    <glyph glyph-name="uni0233" unicode="&#x233;" horiz-adv-x="508" 
d="M430 580h-339v92h339v-92zM117 -204l79 208l-191 484h137l104 -315q9 -25 16 -58q3 17 15 58l99 315h128l-257 -692h-130z" />
    <glyph glyph-name="uni0237" unicode="&#x237;" horiz-adv-x="253" 
d="M191 488v-564q0 -64 -38 -105t-116 -41q-18 0 -36 2.5t-27 6.5v94q7 -3 25 -3q35 0 52.5 16t17.5 53v541h122z" />
    <glyph glyph-name="circumflex" unicode="&#x2c6;" horiz-adv-x="449" 
d="M46 553l104 147h151l103 -147h-122l-29 42q-19 26 -27 46q-5 -12 -26 -46l-29 -42h-125z" />
    <glyph glyph-name="caron" unicode="&#x2c7;" horiz-adv-x="449" 
d="M149 553l-103 147h124l29 -42q17 -23 26 -45q9 18 27 45l28 42h124l-105 -147h-150z" />
    <glyph glyph-name="breve" unicode="&#x2d8;" horiz-adv-x="374" 
d="M80.5 588.5q-34.5 39.5 -34.5 111.5h89q0 -34 12 -51.5t39 -17.5q26 0 39.5 18.5t13.5 50.5h89q0 -73 -35 -112t-107 -39q-71 0 -105.5 39.5z" />
    <glyph glyph-name="dotaccent" unicode="&#x2d9;" horiz-adv-x="219" 
d="M173 562h-127v128h127v-128z" />
    <glyph glyph-name="ring" unicode="&#x2da;" horiz-adv-x="286" 
d="M74 554q-28 27 -28 69q0 41 28 68t69 27t69.5 -27t28.5 -68q0 -42 -28.5 -69t-69.5 -27t-69 27zM164.5 598.5q8.5 9.5 8.5 24.5q0 14 -8.5 23.5t-21.5 9.5t-21.5 -9.5t-8.5 -23.5q0 -15 8.5 -24.5t21.5 -9.5t21.5 9.5z" />
    <glyph glyph-name="ogonek" unicode="&#x2db;" horiz-adv-x="286" 
d="M76.5 -172q-30.5 27 -30.5 73q0 35 24 64.5t77 55.5l85 -21q-41 -24 -59.5 -44t-18.5 -40q0 -16 10.5 -24t25.5 -8q21 0 51 12v-76q-13 -8 -34 -13.5t-44 -5.5q-56 0 -86.5 27z" />
    <glyph glyph-name="tilde" unicode="&#x2dc;" horiz-adv-x="463" 
d="M268.5 576q-19.5 5 -43.5 14q-37 13 -52 13q-31 0 -31 -34h-96q0 64 28.5 96t80.5 32q23 0 42.5 -5t46.5 -15q13 -5 25.5 -9t21.5 -4q16 0 23 9t8 27h96q0 -129 -109 -129q-21 0 -40.5 5z" />
    <glyph glyph-name="hungarumlaut" unicode="&#x2dd;" horiz-adv-x="486" 
d="M139 553h-93l48 147h154zM332 553h-96l48 147h156z" />
    <glyph glyph-name="uni0394" unicode="&#x394;" horiz-adv-x="677" 
d="M650 0h-623v107l254 593h115l254 -593v-107zM146 108h383l-164 388q-20 48 -28 76q-10 -35 -27 -76z" />
    <glyph glyph-name="uni03A9" unicode="&#x3a9;" horiz-adv-x="768" 
d="M70 0v105h60q31 0 51 -5q-19 12 -27 19q-51 39 -82 104t-31 145q0 104 44.5 183.5t122.5 123t176 43.5t176 -43.5t122.5 -123t44.5 -183.5q0 -79 -31.5 -143.5t-82.5 -105.5q-8 -7 -27 -19q20 5 51 5h60v-105h-272v105q81 10 124 79t43 176q0 117 -56.5 182t-151.5 65
t-151.5 -65t-56.5 -182q0 -107 43 -176t124 -79v-105h-273z" />
    <glyph glyph-name="uni03BC" unicode="&#x3bc;" horiz-adv-x="578" 
d="M69 -204v692h122v-291q0 -53 23.5 -85t66.5 -32q47 0 76.5 32.5t29.5 85.5v290h122v-488h-122v20q0 27 4 47q-20 -38 -53.5 -61.5t-78.5 -23.5q-40 0 -71 23q3 -17 3 -58v-151h-122z" />
    <glyph glyph-name="pi" unicode="&#x3c0;" horiz-adv-x="613" 
d="M387 23q-42 41 -42 123v245h-123v-391h-123v391h-73v97h551v-97h-109v-228q0 -40 18 -60.5t57 -20.5q22 0 34 4v-95q-23 -9 -66 -9q-82 0 -124 41z" />
    <glyph glyph-name="uni0E3F" unicode="&#xe3f;" horiz-adv-x="617" 
d="M520.5 56.5q-62.5 -47.5 -163.5 -54.5v-113h-89v111h-191v700h191v109h89v-110q95 -5 150 -48t55 -128q0 -60 -38.5 -98.5t-96.5 -54.5q68 -16 112 -60.5t44 -111.5q0 -94 -62.5 -141.5zM268 593h-66v-175h66v175zM416.5 563.5q-18.5 20.5 -59.5 27.5v-170q78 13 78 88
q0 34 -18.5 54.5zM202 310v-202h66v202h-66zM357 110q99 11 99 103q0 46 -23 68.5t-76 27.5v-199z" />
    <glyph glyph-name="Wgrave" unicode="&#x1e80;" horiz-adv-x="1036" 
d="M590 765h-107l-109 147h150zM192 0l-184 700h146l107 -458q16 -67 27 -125q9 56 26 125l116 458h189l107 -458q19 -78 28 -125q11 68 25 125l111 458h138l-184 -700h-182l-116 498q-2 7 -8 34t-12 63q-12 -61 -22 -97l-130 -498h-182z" />
    <glyph glyph-name="wgrave" unicode="&#x1e81;" horiz-adv-x="812" 
d="M476 553h-107l-109 147h150zM156 0l-149 488h126l89 -331q7 -33 11 -61q11 49 14 61l80 331h162l81 -331q1 -7 5.5 -25.5t6.5 -37.5q8 41 14 63l88 331h117l-144 -488h-151l-85 333q-9 46 -11 61q-4 -31 -13 -61l-84 -333h-157z" />
    <glyph glyph-name="Wacute" unicode="&#x1e82;" horiz-adv-x="1036" 
d="M564 765h-103l75 147h140zM192 0l-184 700h146l107 -458q16 -67 27 -125q9 56 26 125l116 458h189l107 -458q19 -78 28 -125q11 68 25 125l111 458h138l-184 -700h-182l-116 498q-2 7 -8 34t-12 63q-12 -61 -22 -97l-130 -498h-182z" />
    <glyph glyph-name="wacute" unicode="&#x1e83;" horiz-adv-x="812" 
d="M450 553h-103l75 147h140zM156 0l-149 488h126l89 -331q7 -33 11 -61q11 49 14 61l80 331h162l81 -331q1 -7 5.5 -25.5t6.5 -37.5q8 41 14 63l88 331h117l-144 -488h-151l-85 333q-9 46 -11 61q-4 -31 -13 -61l-84 -333h-157z" />
    <glyph glyph-name="Wdieresis" unicode="&#x1e84;" horiz-adv-x="1036" 
d="M487 774h-126v128h126v-128zM682 774h-125v128h125v-128zM192 0l-184 700h146l107 -458q16 -67 27 -125q9 56 26 125l116 458h189l107 -458q19 -78 28 -125q11 68 25 125l111 458h138l-184 -700h-182l-116 498q-2 7 -8 34t-12 63q-12 -61 -22 -97l-130 -498h-182z" />
    <glyph glyph-name="wdieresis" unicode="&#x1e85;" horiz-adv-x="812" 
d="M373 562h-126v128h126v-128zM568 562h-125v128h125v-128zM156 0l-149 488h126l89 -331q7 -33 11 -61q11 49 14 61l80 331h162l81 -331q1 -7 5.5 -25.5t6.5 -37.5q8 41 14 63l88 331h117l-144 -488h-151l-85 333q-9 46 -11 61q-4 -31 -13 -61l-84 -333h-157z" />
    <glyph glyph-name="uni1E9E" unicode="&#x1e9e;" horiz-adv-x="675" 
d="M279 -4v111q37 -14 85 -14q63 0 101.5 27t38.5 78q0 49 -35.5 74.5t-105.5 25.5h-70v111h64q66 0 99.5 24.5t33.5 66.5q0 89 -130 89h-152v-589h-131v700h297q81 0 136.5 -24.5t83 -65.5t27.5 -92q0 -61 -42 -103.5t-99 -58.5q68 -16 111.5 -61.5t43.5 -114.5
q0 -91 -67 -144.5t-189 -53.5q-58 0 -100 14z" />
    <glyph glyph-name="Ygrave" unicode="&#x1ef2;" horiz-adv-x="659" 
d="M401 765h-107l-109 147h150zM263 0v284l-264 416h157l140 -240q22 -36 36 -66q9 19 35 66l142 240h151l-265 -416v-284h-132z" />
    <glyph glyph-name="ygrave" unicode="&#x1ef3;" horiz-adv-x="508" 
d="M328 553h-107l-109 147h150zM117 -204l79 208l-191 484h137l104 -315q9 -25 16 -58q3 17 15 58l99 315h128l-257 -692h-130z" />
    <glyph glyph-name="uni2002" unicode="&#x2002;" horiz-adv-x="456" 
 />
    <glyph glyph-name="uni2003" unicode="&#x2003;" horiz-adv-x="912" 
 />
    <glyph glyph-name="uni2009" unicode="&#x2009;" horiz-adv-x="114" 
 />
    <glyph glyph-name="uni200A" unicode="&#x200a;" horiz-adv-x="38" 
 />
    <glyph glyph-name="endash" unicode="&#x2013;" horiz-adv-x="546" 
d="M491 180h-436v124h436v-124z" />
    <glyph glyph-name="emdash" unicode="&#x2014;" horiz-adv-x="820" 
d="M765 180h-710v124h710v-124z" />
    <glyph glyph-name="uni2015" unicode="&#x2015;" horiz-adv-x="820" 
d="M765 180h-710v124h710v-124z" />
    <glyph glyph-name="quoteleft" unicode="&#x2018;" horiz-adv-x="245" 
d="M191 649q-29 -8 -48.5 -29.5t-19.5 -56.5v-21h69v-142h-143v144q0 78 40 118.5t102 46.5v-60z" />
    <glyph glyph-name="quoteright" unicode="&#x2019;" horiz-adv-x="238" 
d="M55 451q29 8 48.5 29.5t19.5 56.5v21h-69v142h143v-144q0 -78 -40 -118.5t-102 -46.5v60z" />
    <glyph glyph-name="quotesinglbase" unicode="&#x201a;" horiz-adv-x="252" 
d="M55 -107q29 8 48.5 29.5t19.5 56.5v21h-69v142h143v-144q0 -78 -40 -118.5t-102 -46.5v60z" />
    <glyph glyph-name="quotedblleft" unicode="&#x201c;" horiz-adv-x="445" 
d="M190 649q-29 -8 -48.5 -29.5t-19.5 -56.5v-21h69v-142h-143v144q0 78 40 118.5t102 46.5v-60zM391 649q-29 -8 -48.5 -29.5t-19.5 -56.5v-21h69v-142h-143v144q0 78 40 118.5t102 46.5v-60z" />
    <glyph glyph-name="quotedblright" unicode="&#x201d;" horiz-adv-x="438" 
d="M55 451q29 8 48.5 29.5t19.5 56.5v21h-69v142h143v-144q0 -78 -40 -118.5t-102 -46.5v60zM256 451q29 8 48.5 29.5t19.5 56.5v21h-69v142h143v-144q0 -78 -40 -118.5t-102 -46.5v60z" />
    <glyph glyph-name="quotedblbase" unicode="&#x201e;" horiz-adv-x="451" 
d="M55 -107q29 8 48.5 29.5t19.5 56.5v21h-69v142h143v-144q0 -78 -40 -118.5t-102 -46.5v60zM256 -107q29 8 48.5 29.5t19.5 56.5v21h-69v142h143v-144q0 -78 -40 -118.5t-102 -46.5v60z" />
    <glyph glyph-name="dagger" unicode="&#x2020;" horiz-adv-x="481" 
d="M300 0h-119v418h-154v107h154v175h119v-175h154v-107h-154v-418z" />
    <glyph glyph-name="daggerdbl" unicode="&#x2021;" horiz-adv-x="515" 
d="M471 525v-107h-154v-140h154v-108h-154v-170h-119v170h-154v108h154v140h-154v107h154v175h119v-175h154z" />
    <glyph glyph-name="bullet" unicode="&#x2022;" horiz-adv-x="473" 
d="M147 132q-41 24 -65.5 65.5t-24.5 89.5q0 49 24.5 90.5t65.5 66t90 24.5q48 0 89.5 -24.5t66 -66t24.5 -90.5q0 -48 -24.5 -89t-66 -65.5t-89.5 -24.5q-49 0 -90 24z" />
    <glyph glyph-name="ellipsis" unicode="&#x2026;" horiz-adv-x="758" 
d="M205 0h-151v149h151v-149zM455 0h-151v149h151v-149zM705 0h-152v149h152v-149z" />
    <glyph glyph-name="perthousand" unicode="&#x2030;" horiz-adv-x="1013" 
d="M307.5 420q-45.5 -47 -117.5 -47q-73 0 -118.5 47t-45.5 122q0 76 45.5 123t118.5 47q72 0 117.5 -47t45.5 -123q0 -75 -45.5 -122zM78 0l505 700h114l-505 -700h-114zM140.5 476.5q18.5 -25.5 49.5 -25.5q30 0 48.5 25.5t18.5 65.5q0 41 -18.5 66.5t-48.5 25.5
q-31 0 -49.5 -25.5t-18.5 -66.5q0 -40 18.5 -65.5zM942.5 281q44.5 -47 44.5 -122t-44.5 -122.5t-114.5 -47.5q-39 0 -70.5 16t-52.5 46q-20 -30 -51.5 -46t-71.5 -16q-69 0 -113.5 47.5t-44.5 122.5t44.5 122t113.5 47q40 0 71.5 -16t51.5 -46q21 30 52.5 46t70.5 16
q70 0 114.5 -47zM636 92.5q19 25.5 19 66.5q0 40 -19 65.5t-49 25.5t-48.5 -25.5t-18.5 -65.5q0 -41 18.5 -66.5t48.5 -25.5t49 25.5zM872 92.5q19 25.5 19 66.5q0 40 -19 65.5t-49 25.5t-48.5 -25.5t-18.5 -65.5q0 -41 18.5 -66.5t48.5 -25.5t49 25.5z" />
    <glyph glyph-name="guilsinglleft" unicode="&#x2039;" horiz-adv-x="286" 
d="M237 14l-201 164v152l201 164v-145l-88 -65q-22 -18 -41 -30q18 -10 41 -29l88 -65v-146z" />
    <glyph glyph-name="guilsinglright" unicode="&#x203a;" horiz-adv-x="286" 
d="M47 496l201 -164v-152l-201 -164v145l88 65q22 18 41 30q-18 10 -41 29l-88 65v146z" />
    <glyph glyph-name="fraction" unicode="&#x2044;" horiz-adv-x="182" 
d="M-105 0h-114l505 700h114z" />
    <glyph glyph-name="uni2070" unicode="&#x2070;" horiz-adv-x="444" 
d="M84 393.5q-51 64.5 -51 175.5q0 74 23.5 129.5t66 85.5t99.5 30t100 -30t66 -85.5t23 -129.5q0 -111 -51 -175.5t-138 -64.5t-138 64.5zM286.5 455.5q23.5 41.5 23.5 113.5q0 75 -23 118t-64 43t-65 -43t-24 -118q0 -72 24 -113.5t65 -41.5q40 0 63.5 41.5z" />
    <glyph glyph-name="uni2074" unicode="&#x2074;" horiz-adv-x="447" 
d="M341 341h-100v108h-220v79l195 274h125v-277h85v-76h-85v-108zM241 525v176q-4 -6 -8 -13t-10 -14l-84 -120q-14 -20 -25 -29h127z" />
    <glyph glyph-name="uni2075" unicode="&#x2075;" horiz-adv-x="411" 
d="M76 370q-47 41 -48 103h102q1 -25 19.5 -42.5t50.5 -17.5q38 0 60 21.5t22 59.5q0 33 -20 56t-55 23q-44 0 -65 -27h-108l40 256h284v-92h-213l-11 -69q-5 -28 -6 -33q42 47 109 47q63 0 104.5 -43.5t41.5 -117.5q0 -78 -51.5 -121.5t-126.5 -43.5q-82 0 -129 41z" />
    <glyph glyph-name="uni2076" unicode="&#x2076;" horiz-adv-x="433" 
d="M85.5 391.5q-51.5 62.5 -51.5 177.5t53 180t147 65q70 0 112.5 -38t48.5 -99h-101q-7 28 -21.5 40.5t-40.5 12.5q-41 0 -62.5 -30t-28.5 -94l-3 -21q43 57 113 57q64 0 108 -40t44 -106q0 -48 -22.5 -86t-62 -59.5t-87.5 -21.5q-94 0 -145.5 62.5zM282.5 434
q20.5 20 20.5 53t-20.5 53t-55.5 20t-55.5 -20t-20.5 -53t20 -53t56 -20q35 0 55.5 20z" />
    <glyph glyph-name="uni2077" unicode="&#x2077;" horiz-adv-x="394" 
d="M91 341q6 104 47 195.5t104 148.5q18 16 39 25h-261v92h357v-70q-48 -53 -80 -103.5t-54 -121t-27 -166.5h-125z" />
    <glyph glyph-name="uni2078" unicode="&#x2078;" horiz-adv-x="428" 
d="M79.5 366q-46.5 37 -46.5 92q0 46 25.5 74.5t72.5 47.5q-42 15 -64.5 42.5t-22.5 62.5q0 60 46.5 94.5t124.5 34.5q50 0 89 -16.5t60 -44.5t21 -63q0 -42 -23 -71t-66 -39q48 -15 73.5 -44.5t25.5 -69.5q0 -61 -49.5 -99t-134.5 -38t-131.5 37zM266.5 630
q18.5 16 18.5 42t-18.5 41.5t-50.5 15.5q-33 0 -52.5 -15.5t-19.5 -41.5t19.5 -42t52.5 -16q32 0 50.5 16zM273.5 431q21.5 17 21.5 46q0 30 -21.5 48t-58.5 18q-38 0 -60 -18t-22 -48q0 -29 22 -46t60 -17q37 0 58.5 17z" />
    <glyph glyph-name="uni2079" unicode="&#x2079;" horiz-adv-x="424" 
d="M85.5 363.5q-47.5 34.5 -52.5 110.5h100q4 -66 71 -66q46 0 63.5 31t26.5 99l3 19q-39 -59 -103 -59q-70 0 -115 42.5t-45 112.5q0 46 24 82.5t64 57.5t85 21q85 0 134.5 -64.5t49.5 -175.5q0 -119 -50.5 -182t-145.5 -63q-62 0 -109.5 34.5zM256.5 604q20.5 21 20.5 54
q0 32 -20.5 52t-50.5 20q-32 0 -52 -20t-20 -52q0 -33 20.5 -54t51.5 -21q30 0 50.5 21z" />
    <glyph glyph-name="uni20A6" unicode="&#x20a6;" 
d="M521 388h75v-82h-75v-306h-164l-91 306h-80v-306h-108v306h-74v82h74v312h170l93 -312h73v312h107v-312zM186 388h55l-58 196q3 -42 3 -84v-112zM417 131q-3 26 -3 89v86h-49z" />
    <glyph glyph-name="uni20A9" unicode="&#x20a9;" horiz-adv-x="1118" 
d="M1079 477v-80h-106l-19 -72h125v-80h-146l-64 -245h-171l-54 245h-163l-63 -245h-168l-64 245h-148v80h127l-19 72h-108v80h87l-59 223h136l52 -223h171l56 223h167l53 -223h168l54 223h130l-59 -223h85zM541 477h52l-5 21l-21 94q-5 -32 -20 -93zM405 397h-132l17 -72
h97zM521 397l-19 -72h124l-16 72h-89zM736 325h97l17 72h-131zM367 245h-59l1 -3q20 -83 29 -138q15 89 28 138zM814 245h-59l1 -3q21 -90 29 -141q13 77 28 141z" />
    <glyph glyph-name="uni20AA" unicode="&#x20aa;" horiz-adv-x="665" 
d="M49 0v700h203q100 0 154.5 -56.5t54.5 -157.5v-313h-101v311q0 52 -27.5 80.5t-81.5 28.5h-91v-593h-111zM414 0q-100 0 -154.5 56.5t-54.5 157.5v313h100v-311q0 -52 27.5 -80t82.5 -28h91v592h110v-700h-202z" />
    <glyph glyph-name="Euro" unicode="&#x20ac;" horiz-adv-x="649" 
d="M617 242q-9 -123 -75 -191.5t-176 -68.5q-104 0 -172.5 65t-91.5 183h-70v91h60q-1 10 -1 31v24h-59v92h70q24 118 95 184t174 66q105 0 169 -67t72 -182h-126q-5 65 -35.5 103.5t-85.5 38.5q-51 0 -87 -35t-52 -108h195v-92h-206v-28q0 -18 1 -27h205v-91h-194
q17 -72 53.5 -106.5t87.5 -34.5q52 0 84.5 40.5t38.5 112.5h126z" />
    <glyph glyph-name="uni20B4" unicode="&#x20b4;" horiz-adv-x="584" 
d="M566 472v-84h-548v84h373q6 18 6 39q0 47 -26 73.5t-69 26.5t-69.5 -23t-29.5 -60h-132q3 56 33 99t81.5 67t117.5 24q99 0 157.5 -53t58.5 -144q0 -28 -6 -49h53zM18 246v84h548v-84h-366q-12 -27 -12 -57q0 -47 26 -73.5t69 -26.5q41 0 68 24.5t30 61.5h132
q-2 -56 -32 -100t-81.5 -68.5t-117.5 -24.5q-99 0 -157.5 53.5t-58.5 143.5q0 37 11 67h-59z" />
    <glyph glyph-name="uni20B8" unicode="&#x20b8;" horiz-adv-x="593" 
d="M565 593h-538v107h538v-107zM359 0h-126v403h-206v107h538v-107h-206v-403z" />
    <glyph glyph-name="uni20B9" unicode="&#x20b9;" horiz-adv-x="612" 
d="M581 700v-91h-163q18 -9 26 -17q20 -20 31 -47h106v-91h-101q-10 -56 -47.5 -94.5t-90.5 -57.5t-110 -19h-22q19 -13 35 -28l268 -255h-173l-288 283v107h157q61 0 94.5 15.5t45.5 48.5h-297v91h297q-11 33 -44.5 48.5t-95.5 15.5h-157v91h529z" />
    <glyph glyph-name="uni20BA" unicode="&#x20ba;" horiz-adv-x="611" 
d="M583 290q-4 -144 -95.5 -217t-241.5 -73h-124v209l-73 -37v95l73 37v70l-73 -37v95l73 37v231h126v-166l204 105v-95l-204 -105v-70l204 105v-95l-204 -105v-166q93 0 147.5 41.5t60.5 140.5h127z" />
    <glyph glyph-name="uni20BD" unicode="&#x20bd;" horiz-adv-x="646" 
d="M245 300v-67h241v-91h-241v-142h-126v142h-71v91h71v67h-71v91h71v309h242q117 0 187.5 -50t70.5 -152q0 -98 -72.5 -148t-185.5 -50h-116zM245 593v-202h125q60 0 90.5 28t30.5 73q0 47 -29.5 74t-91.5 27h-125z" />
    <glyph glyph-name="uni20BF" unicode="&#x20bf;" horiz-adv-x="617" 
d="M521.5 57q-61.5 -47 -161.5 -55v-113h-95v111h-188v700h188v109h95v-110q94 -6 148 -49t54 -127q0 -60 -38.5 -98.5t-96.5 -54.5q68 -16 112 -60.5t44 -111.5q0 -94 -61.5 -141zM202 593v-175h118q61 0 88 23.5t27 67.5q0 41 -26.5 62.5t-87.5 21.5h-119zM326 108
q130 0 130 105q0 52 -30.5 74.5t-99.5 22.5h-124v-202h124z" />
    <glyph glyph-name="uni2113" unicode="&#x2113;" horiz-adv-x="530" 
d="M500 233q-5 -118 -56 -184.5t-146 -66.5q-156 0 -193 193q-39 -8 -75 -11v109q22 2 64 10v29q0 104 23 195.5t76.5 151t139.5 59.5q82 0 123.5 -46t41.5 -121q0 -111 -78.5 -202.5t-205.5 -141.5q9 -64 30 -94.5t56 -30.5q77 0 83 151h117zM269.5 582q-28.5 -36 -45 -103
t-16.5 -157q80 38 128 98t48 132q0 33 -13.5 49.5t-37.5 16.5q-35 0 -63.5 -36z" />
    <glyph glyph-name="uni2116" unicode="&#x2116;" horiz-adv-x="1149" 
d="M843.5 374q-39.5 24 -60.5 65.5t-21 91.5q0 51 21 92t60.5 64.5t91.5 23.5q53 0 92 -23.5t60 -64.5t21 -92q0 -50 -21 -91.5t-60 -65.5t-92 -24q-52 0 -91.5 24zM77 0v700h197l302 -527q-4 35 -4 101v426h131v-700h-172l-327 571q4 -40 4 -97v-474h-131zM990 455.5
q19 28.5 19 75.5t-19.5 75.5t-54.5 28.5t-54.5 -28.5t-19.5 -75.5t19.5 -75.5t54.5 -28.5q36 0 55 28.5zM1105 196h-339v100h339v-100z" />
    <glyph glyph-name="uni2117" unicode="&#x2117;" horiz-adv-x="799" 
d="M216.5 32q-82.5 50 -131.5 135t-49 183q0 99 49 183.5t132.5 134.5t181.5 50q99 0 182 -49.5t132 -134.5t49 -184q0 -102 -49 -186t-133 -133t-186 -49q-95 0 -177.5 50zM539 102q62 39 99 105t37 143q0 78 -37 144t-100.5 104.5t-138.5 38.5t-138 -38.5t-100 -104.5
t-37 -144q0 -79 37 -145t101 -104t142 -38q73 0 135 39zM271 152v394h172q60 0 99.5 -34t39.5 -92q0 -59 -39 -92.5t-100 -33.5h-83v-142h-89zM421 365q72 0 72 55t-72 55h-61v-110h61z" />
    <glyph glyph-name="trademark" unicode="&#x2122;" horiz-adv-x="942" 
d="M249 317h-95v303h-126v80h348v-80h-127v-303zM411 317v383h143l76 -230q8 -24 15 -52q3 9 7.5 25.5t8.5 26.5l76 230h139v-383h-91v248q0 32 4 58q-10 -25 -21 -58l-80 -248h-89l-80 248l-20 58q3 -26 3 -58v-248h-91z" />
    <glyph glyph-name="Omega" unicode="&#x2126;" horiz-adv-x="768" 
d="M70 0v105h60q31 0 51 -5q-19 12 -27 19q-51 39 -82 104t-31 145q0 104 44.5 183.5t122.5 123t176 43.5t176 -43.5t122.5 -123t44.5 -183.5q0 -79 -31.5 -143.5t-82.5 -105.5q-8 -7 -27 -19q20 5 51 5h60v-105h-272v105q81 10 124 79t43 176q0 117 -56.5 182t-151.5 65
t-151.5 -65t-56.5 -182q0 -107 43 -176t124 -79v-105h-273z" />
    <glyph glyph-name="onethird" unicode="&#x2153;" horiz-adv-x="918" 
d="M133 539q0 30 2 47q-16 -23 -47 -38.5t-63 -14.5v80q46 6 78.5 29t39.5 58h81v-419h-91v258zM220 0h-114l505 700h114zM597.5 29q-45.5 40 -45.5 113h89q1 -38 20.5 -57.5t52.5 -19.5t53.5 14.5t20.5 43.5q0 56 -73 56h-30v74h39q24 0 39 12t15 34q0 26 -16 41t-45 15
q-31 0 -47.5 -18t-18.5 -43h-95q2 61 47.5 98.5t116.5 37.5q65 0 106.5 -34t41.5 -88q0 -34 -20 -58t-58 -35q42 -9 65 -34.5t23 -64.5q0 -54 -43 -90.5t-120 -36.5q-72 0 -117.5 40z" />
    <glyph glyph-name="twothirds" unicode="&#x2154;" horiz-adv-x="1015" 
d="M34 281q3 64 28 107.5t75 74.5l64 40q27 16 38 34.5t11 44.5q0 24 -15 39t-40 15q-30 0 -46.5 -19t-19.5 -52h-95q4 61 46 103.5t114 42.5q73 0 109.5 -38t36.5 -92q0 -48 -27.5 -82.5t-67.5 -58.5l-52 -32q-39 -24 -46 -47h191v-80h-304zM321 0h-114l505 700h114z
M698.5 29q-45.5 40 -45.5 113h89q1 -38 20.5 -57.5t52.5 -19.5t53.5 14.5t20.5 43.5q0 56 -73 56h-30v74h39q24 0 39 12t15 34q0 26 -16 41t-45 15q-31 0 -47.5 -18t-18.5 -43h-95q2 61 47.5 98.5t116.5 37.5q65 0 106.5 -34t41.5 -88q0 -34 -20 -58t-58 -35q42 -9 65 -34.5
t23 -64.5q0 -54 -43 -90.5t-120 -36.5q-72 0 -117.5 40z" />
    <glyph glyph-name="uni2155" unicode="&#x2155;" horiz-adv-x="930" 
d="M613 26.5q-43 37.5 -44 93.5h93q1 -22 18 -38.5t46 -16.5q34 0 54 20t20 54q0 30 -18 51t-50 21q-40 0 -59 -25h-98l36 233h258v-84h-193l-10 -62l-6 -30q39 42 99 42q58 0 95.5 -39t37.5 -107q0 -71 -46.5 -110.5t-115.5 -39.5q-74 0 -117 37.5zM133 539q0 30 2 47
q-16 -23 -47 -38.5t-63 -14.5v80q46 6 78.5 29t39.5 58h81v-419h-91v258zM220 0h-114l505 700h114z" />
    <glyph glyph-name="uni2156" unicode="&#x2156;" horiz-adv-x="1026" 
d="M34 281q3 64 28 107.5t75 74.5l64 40q27 16 38 34.5t11 44.5q0 24 -15 39t-40 15q-30 0 -46.5 -19t-19.5 -52h-95q4 61 46 103.5t114 42.5q73 0 109.5 -38t36.5 -92q0 -48 -27.5 -82.5t-67.5 -58.5l-52 -32q-39 -24 -46 -47h191v-80h-304zM321 0h-114l505 700h114z
M713 26.5q-43 37.5 -44 93.5h93q1 -22 18 -38.5t46 -16.5q34 0 54 20t20 54q0 30 -18 51t-50 21q-40 0 -59 -25h-98l36 233h258v-84h-193l-10 -62l-6 -30q39 42 99 42q58 0 95.5 -39t37.5 -107q0 -71 -46.5 -110.5t-115.5 -39.5q-74 0 -117 37.5z" />
    <glyph glyph-name="uni2157" unicode="&#x2157;" horiz-adv-x="1007" 
d="M66.5 312q-45.5 40 -45.5 113h89q1 -38 20.5 -57.5t52.5 -19.5t53.5 14.5t20.5 43.5q0 56 -73 56h-30v74h39q24 0 39 12t15 34q0 26 -16 41t-45 15q-31 0 -47.5 -18t-18.5 -43h-95q2 61 47.5 98.5t116.5 37.5q65 0 106.5 -34t41.5 -88q0 -34 -20 -58t-58 -35
q42 -9 65 -34.5t23 -64.5q0 -54 -43 -90.5t-120 -36.5q-72 0 -117.5 40zM301 0h-114l505 700h114zM694 26.5q-43 37.5 -44 93.5h93q1 -22 18 -38.5t46 -16.5q34 0 54 20t20 54q0 30 -18 51t-50 21q-40 0 -59 -25h-98l36 233h258v-84h-193l-10 -62l-6 -30q39 42 99 42
q58 0 95.5 -39t37.5 -107q0 -71 -46.5 -110.5t-115.5 -39.5q-74 0 -117 37.5z" />
    <glyph glyph-name="uni2158" unicode="&#x2158;" horiz-adv-x="1041" 
d="M330 0h-114l505 700h114zM724 26.5q-43 37.5 -44 93.5h93q1 -22 18 -38.5t46 -16.5q34 0 54 20t20 54q0 30 -18 51t-50 21q-40 0 -59 -25h-98l36 233h258v-84h-193l-10 -62l-6 -30q39 42 99 42q58 0 95.5 -39t37.5 -107q0 -71 -46.5 -110.5t-115.5 -39.5q-74 0 -117 37.5
zM315 281h-91v98h-200v72l177 249h114v-252h77v-69h-77v-98zM224 448v160l-16 -24l-77 -109q-11 -16 -22 -27h115z" />
    <glyph glyph-name="uni2159" unicode="&#x2159;" horiz-adv-x="918" 
d="M598.5 45.5q-46.5 56.5 -46.5 161.5t48 164t134 59q64 0 102.5 -34.5t43.5 -90.5h-92q-6 26 -19.5 37.5t-36.5 11.5q-38 0 -57.5 -27.5t-25.5 -85.5l-3 -19q39 52 103 52q59 0 98.5 -36t39.5 -97q0 -43 -20.5 -78t-56 -54.5t-79.5 -19.5q-86 0 -132.5 56.5zM777.5 84.5
q18.5 18.5 18.5 48.5t-18.5 48t-50.5 18t-50.5 -18t-18.5 -48t18.5 -48.5t50.5 -18.5t50.5 18.5zM133 539q0 30 2 47q-16 -23 -47 -38.5t-63 -14.5v80q46 6 78.5 29t39.5 58h81v-419h-91v258zM220 0h-114l505 700h114z" />
    <glyph glyph-name="uni215A" unicode="&#x215a;" horiz-adv-x="996" 
d="M72 307.5q-43 37.5 -44 93.5h93q1 -22 18 -38.5t46 -16.5q34 0 54 20t20 54q0 30 -18 51t-50 21q-40 0 -59 -25h-98l36 233h258v-84h-193l-10 -62l-6 -30q39 42 99 42q58 0 95.5 -39t37.5 -107q0 -71 -46.5 -110.5t-115.5 -39.5q-74 0 -117 37.5zM302 0h-114l505 700h114
zM679.5 45.5q-46.5 56.5 -46.5 161.5t48 164t134 59q64 0 102.5 -34.5t43.5 -90.5h-92q-6 26 -19.5 37.5t-36.5 11.5q-38 0 -57.5 -27.5t-25.5 -85.5l-3 -19q39 52 103 52q59 0 98.5 -36t39.5 -97q0 -43 -20.5 -78t-56 -54.5t-79.5 -19.5q-86 0 -132.5 56.5zM858.5 84.5
q18.5 18.5 18.5 48.5t-18.5 48t-50.5 18t-50.5 -18t-18.5 -48t18.5 -48.5t50.5 -18.5t50.5 18.5z" />
    <glyph glyph-name="oneeighth" unicode="&#x215b;" horiz-adv-x="902" 
d="M582.5 23q-42.5 34 -42.5 83q0 42 23 68t66 43q-38 13 -58.5 38.5t-20.5 57.5q0 54 42 85.5t113 31.5q69 0 112 -32t43 -81q0 -38 -21 -64t-60 -36q43 -13 66.5 -40t23.5 -63q0 -55 -45 -90t-122 -35t-119.5 34zM752 262.5q17 14.5 17 38.5q0 23 -17 37.5t-46 14.5
q-30 0 -47.5 -14.5t-17.5 -37.5q0 -24 17.5 -38.5t47.5 -14.5q29 0 46 14.5zM758.5 81.5q19.5 15.5 19.5 42.5t-19.5 43.5t-53.5 16.5t-54 -16.5t-20 -43.5q0 -26 20 -42t54 -16t53.5 15.5zM133 539q0 30 2 47q-16 -23 -47 -38.5t-63 -14.5v80q46 6 78.5 29t39.5 58h81v-419
h-91v258zM220 0h-114l505 700h114z" />
    <glyph glyph-name="threeeighths" unicode="&#x215c;" horiz-adv-x="978" 
d="M66.5 312q-45.5 40 -45.5 113h89q1 -38 20.5 -57.5t52.5 -19.5t53.5 14.5t20.5 43.5q0 56 -73 56h-30v74h39q24 0 39 12t15 34q0 26 -16 41t-45 15q-31 0 -47.5 -18t-18.5 -43h-95q2 61 47.5 98.5t116.5 37.5q65 0 106.5 -34t41.5 -88q0 -34 -20 -58t-58 -35
q42 -9 65 -34.5t23 -64.5q0 -54 -43 -90.5t-120 -36.5q-72 0 -117.5 40zM301 0h-114l505 700h114zM663.5 23q-42.5 34 -42.5 83q0 42 23 68t66 43q-38 13 -58.5 38.5t-20.5 57.5q0 54 42 85.5t113 31.5q69 0 112 -32t43 -81q0 -38 -21 -64t-60 -36q43 -13 66.5 -40t23.5 -63
q0 -55 -45 -90t-122 -35t-119.5 34zM833 262.5q17 14.5 17 38.5q0 23 -17 37.5t-46 14.5q-30 0 -47.5 -14.5t-17.5 -37.5q0 -24 17.5 -38.5t47.5 -14.5q29 0 46 14.5zM839.5 81.5q19.5 15.5 19.5 42.5t-19.5 43.5t-53.5 16.5t-54 -16.5t-20 -43.5q0 -26 20 -42t54 -16
t53.5 15.5z" />
    <glyph glyph-name="fiveeighths" unicode="&#x215d;" horiz-adv-x="980" 
d="M72 307.5q-43 37.5 -44 93.5h93q1 -22 18 -38.5t46 -16.5q34 0 54 20t20 54q0 30 -18 51t-50 21q-40 0 -59 -25h-98l36 233h258v-84h-193l-10 -62l-6 -30q39 42 99 42q58 0 95.5 -39t37.5 -107q0 -71 -46.5 -110.5t-115.5 -39.5q-74 0 -117 37.5zM302 0h-114l505 700h114
zM664.5 23q-42.5 34 -42.5 83q0 42 23 68t66 43q-38 13 -58.5 38.5t-20.5 57.5q0 54 42 85.5t113 31.5q69 0 112 -32t43 -81q0 -38 -21 -64t-60 -36q43 -13 66.5 -40t23.5 -63q0 -55 -45 -90t-122 -35t-119.5 34zM834 262.5q17 14.5 17 38.5q0 23 -17 37.5t-46 14.5
q-30 0 -47.5 -14.5t-17.5 -37.5q0 -24 17.5 -38.5t47.5 -14.5q29 0 46 14.5zM840.5 81.5q19.5 15.5 19.5 42.5t-19.5 43.5t-53.5 16.5t-54 -16.5t-20 -43.5q0 -26 20 -42t54 -16t53.5 15.5z" />
    <glyph glyph-name="seveneighths" unicode="&#x215e;" horiz-adv-x="913" 
d="M232 0h-114l505 700h114zM594.5 23q-42.5 34 -42.5 83q0 42 23 68t66 43q-38 13 -58.5 38.5t-20.5 57.5q0 54 42 85.5t113 31.5q69 0 112 -32t43 -81q0 -38 -21 -64t-60 -36q43 -13 66.5 -40t23.5 -63q0 -55 -45 -90t-122 -35t-119.5 34zM764 262.5q17 14.5 17 38.5
q0 23 -17 37.5t-46 14.5q-30 0 -47.5 -14.5t-17.5 -37.5q0 -24 17.5 -38.5t47.5 -14.5q29 0 46 14.5zM770.5 81.5q19.5 15.5 19.5 42.5t-19.5 43.5t-53.5 16.5t-54 -16.5t-20 -43.5q0 -26 20 -42t54 -16t53.5 15.5zM90 281q5 95 42 178t95 135q16 14 35 22h-237v84h325v-64
q-43 -48 -73 -93.5t-49.5 -110t-24.5 -151.5h-113z" />
    <glyph glyph-name="uni215F" unicode="&#x215f;" horiz-adv-x="757" 
d="M143 539q0 30 2 47q-16 -23 -47 -38.5t-63 -14.5v80q46 6 78.5 29t39.5 58h81v-419h-91v258zM230 0h-114l505 700h114z" />
    <glyph glyph-name="arrowleft" unicode="&#x2190;" horiz-adv-x="782" 
d="M250 288l251 -251h-157l-317 317l317 316h157l-251 -251h496v-131h-496z" />
    <glyph glyph-name="arrowup" unicode="&#x2191;" horiz-adv-x="691" 
d="M411 0h-131v496l-251 -252v158l316 316l317 -316v-158l-251 252v-496z" />
    <glyph glyph-name="arrowright" unicode="&#x2192;" horiz-adv-x="782" 
d="M438 37h-157l251 251h-496v131h496l-251 251h157l317 -316z" />
    <glyph glyph-name="arrowdown" unicode="&#x2193;" horiz-adv-x="691" 
d="M280 204v496h131v-496l251 252v-158l-317 -316l-316 316v158z" />
    <glyph glyph-name="uni2196" unicode="&#x2196;" horiz-adv-x="666" 
d="M620 233l-93 -93l-355 356l1 -356l-112 113v447h447l112 -112l-355 1z" />
    <glyph glyph-name="uni2197" unicode="&#x2197;" horiz-adv-x="666" 
d="M494 496l-355 -356l-93 93l355 356l-355 -1l112 112h447v-447l-112 -113z" />
    <glyph glyph-name="uni2198" unicode="&#x2198;" horiz-adv-x="669" 
d="M48 467l93 93l355 -356l-1 356l112 -113v-447h-447l-112 112l355 -1z" />
    <glyph glyph-name="uni2199" unicode="&#x2199;" horiz-adv-x="669" 
d="M173 204l355 356l93 -93l-355 -356l355 1l-112 -112h-447v447l112 113z" />
    <glyph glyph-name="partialdiff" unicode="&#x2202;" horiz-adv-x="599" 
d="M133 10.5q-54 28.5 -84.5 81t-30.5 119.5q0 68 30.5 124.5t86.5 90t128 33.5q58 0 107.5 -33t67.5 -78q0 28 1 47q1 9 1 25q0 85 -54.5 135.5t-143.5 55.5v107q93 0 165 -42t112 -119t40 -180q0 -111 -34.5 -200.5t-103 -142t-165.5 -52.5q-69 0 -123 28.5zM362.5 129
q38.5 40 38.5 103q0 53 -34 86t-90 33q-59 0 -96 -39t-37 -101q0 -54 32.5 -88t86.5 -34q61 0 99.5 40z" />
    <glyph glyph-name="emptyset" unicode="&#x2205;" horiz-adv-x="597" 
d="M490 419q33 -35 51 -80t18 -95q0 -71 -35 -131.5t-95 -95.5t-131 -35q-60 0 -114 26l-45 -61l-78 54l47 63q-34 36 -52.5 82t-18.5 98q0 70 35 130t95 95t131 35q64 0 118 -28l51 68l75 -55zM176 155l174 232q-23 10 -52 10q-40 0 -74.5 -20.5t-54.5 -56t-20 -76.5
q0 -48 27 -89zM372.5 110q34.5 21 55 57t20.5 77q0 46 -25 85l-172 -232q24 -8 47 -8q40 0 74.5 21z" />
    <glyph glyph-name="Delta" unicode="&#x2206;" horiz-adv-x="677" 
d="M650 0h-623v107l254 593h115l254 -593v-107zM146 108h383l-164 388q-20 48 -28 76q-10 -35 -27 -76z" />
    <glyph glyph-name="product" unicode="&#x220f;" horiz-adv-x="613" 
d="M582 700v-107h-86v-722h-119v722h-142v-722h-118v722h-86v107h551z" />
    <glyph glyph-name="summation" unicode="&#x2211;" horiz-adv-x="534" 
d="M35 -129v120l254 293l-254 293v123h465v-107h-331q24 -21 45 -49l182 -208v-101l-185 -211q-16 -20 -44 -46h333v-107h-465z" />
    <glyph glyph-name="minus" unicode="&#x2212;" horiz-adv-x="602" 
d="M538 245h-474v108h474v-108z" />
    <glyph glyph-name="uni2215" unicode="&#x2215;" horiz-adv-x="427" 
d="M144 0h-120l259 700h120z" />
    <glyph glyph-name="radical" unicode="&#x221a;" horiz-adv-x="559" 
d="M112 -129l-106 413h122l44 -188q17 -70 23 -111l15 80l6 32l119 603h214v-107h-119l-149 -722h-169z" />
    <glyph glyph-name="infinity" unicode="&#x221e;" horiz-adv-x="771" 
d="M86 174q-46 50 -46 129q0 78 47.5 127.5t123.5 49.5q56 0 97 -27.5t80 -76.5q40 50 79 77t98 27q73 0 119.5 -49.5t46.5 -127.5q0 -80 -47 -129.5t-123 -49.5q-51 0 -93.5 26t-84.5 82q-39 -53 -78 -80.5t-99 -27.5q-74 0 -120 50zM274.5 234.5q26.5 20.5 60.5 65.5
q-34 47 -60.5 68.5t-56.5 21.5q-35 0 -56 -23.5t-21 -63.5t21 -64.5t56 -24.5q30 0 56.5 20.5zM609 238.5q21 24.5 21 64.5t-21 63.5t-56 23.5q-29 0 -54.5 -19t-62.5 -67q37 -48 62 -69t55 -21q35 0 56 24.5z" />
    <glyph glyph-name="integral" unicode="&#x222b;" horiz-adv-x="352" 
d="M19 -204v107h26q37 0 55 20t18 62v525q0 96 46.5 143t142.5 47h26v-107h-26q-38 0 -55.5 -20t-17.5 -63v-525q0 -96 -46.5 -142.5t-142.5 -46.5h-26z" />
    <glyph glyph-name="approxequal" unicode="&#x2248;" horiz-adv-x="571" 
d="M57 319q0 80 41.5 117.5t106.5 37.5q40 0 94 -21q48 -16 69 -16q19 0 27.5 9.5t10.5 30.5h114q0 -73 -35.5 -112t-100.5 -39q-42 0 -106 20q-49 15 -66 15q-35 0 -40 -42h-115zM57 121q0 80 41.5 117.5t106.5 37.5q40 0 94 -21q48 -16 69 -16q19 0 27.5 9.5t10.5 30.5
h114q0 -73 -35.5 -112t-100.5 -39q-42 0 -106 20q-49 15 -66 15q-35 0 -40 -42h-115z" />
    <glyph glyph-name="notequal" unicode="&#x2260;" horiz-adv-x="590" 
d="M537 449v-108h-167l-39 -84h206v-108h-257l-61 -129h-113l61 129h-104v108h155l40 84h-195v108h246l61 129h112l-61 -129h116z" />
    <glyph glyph-name="lessequal" unicode="&#x2264;" horiz-adv-x="588" 
d="M529 147l-473 160v131l473 160v-129l-286 -78l-75 -19q41 -9 76 -19l285 -80v-126zM530 0h-474v108h474v-108z" />
    <glyph glyph-name="greaterequal" unicode="&#x2265;" horiz-adv-x="588" 
d="M69 147v129l286 78l21 5q18 4 54 14q-41 9 -76 19l-285 80v126l473 -160v-131zM543 0h-474v108h474v-108z" />
    <glyph glyph-name="angleleft" unicode="&#x2329;" horiz-adv-x="340" 
d="M326 731l-182 -426l189 -434h-128l-187 432l183 428h125z" />
    <glyph glyph-name="angleright" unicode="&#x232a;" horiz-adv-x="340" 
d="M7 731h128l187 -432l-183 -428h-125l182 426z" />
    <glyph glyph-name="uni2460" unicode="&#x2460;" horiz-adv-x="799" 
d="M217.5 32q-83.5 50 -132.5 134.5t-49 183.5t49 183.5t132.5 134.5t181.5 50q99 0 182 -49.5t132 -134.5t49 -184t-49 -184t-132 -134.5t-182 -49.5q-98 0 -181.5 50zM541.5 96q64.5 39 102 106t37.5 148t-37.5 148t-102 106t-142.5 39q-77 0 -141.5 -39t-102 -106
t-37.5 -148t37.5 -148t102 -106t141.5 -39q78 0 142.5 39zM377 397q0 34 4 54q-15 -25 -46.5 -43t-64.5 -18v80q45 7 78 30t39 58h78v-419h-88v258z" />
    <glyph glyph-name="uni2461" unicode="&#x2461;" horiz-adv-x="799" 
d="M217.5 32q-83.5 50 -132.5 134.5t-49 183.5t49 183.5t132.5 134.5t181.5 50q99 0 182 -49.5t132 -134.5t49 -184t-49 -184t-132 -134.5t-182 -49.5q-98 0 -181.5 50zM541.5 96q64.5 39 102 106t37.5 148t-37.5 148t-102 106t-142.5 39q-77 0 -141.5 -39t-102 -106
t-37.5 -148t37.5 -148t102 -106t141.5 -39q78 0 142.5 39zM249 146q3 62 28.5 104.5t74.5 74.5l60 41q26 16 37.5 33t11.5 42q0 24 -15 39t-39 15q-29 0 -45 -19t-18 -51h-95q2 39 21 72t54.5 53.5t82.5 20.5q72 0 108.5 -38.5t36.5 -92.5q0 -78 -96 -137l-50 -32
q-39 -25 -44 -45h187v-80h-300z" />
    <glyph glyph-name="uni2462" unicode="&#x2462;" horiz-adv-x="799" 
d="M217.5 32q-83.5 50 -132.5 134.5t-49 183.5t49 183.5t132.5 134.5t181.5 50q99 0 182 -49.5t132 -134.5t49 -184t-49 -184t-132 -134.5t-182 -49.5q-98 0 -181.5 50zM541.5 96q64.5 39 102 106t37.5 148t-37.5 148t-102 106t-142.5 39q-77 0 -141.5 -39t-102 -106
t-37.5 -148t37.5 -148t102 -106t141.5 -39q78 0 142.5 39zM282 169q-45 40 -45 114h86q1 -39 21 -58.5t53 -19.5t54 15t21 43q0 56 -74 56h-28v74h37q24 0 40 12t16 34q0 25 -16.5 40.5t-46.5 15.5q-32 0 -48.5 -18t-19.5 -43h-91q2 61 46.5 99t115.5 38q66 0 107.5 -34
t41.5 -89q0 -36 -22 -59.5t-57 -32.5q42 -9 65.5 -35t23.5 -65q0 -54 -44 -90.5t-120 -36.5q-71 0 -116 40z" />
    <glyph glyph-name="uni2463" unicode="&#x2463;" horiz-adv-x="799" 
d="M217.5 32q-83.5 50 -132.5 134.5t-49 183.5t49 183.5t132.5 134.5t181.5 50q99 0 182 -49.5t132 -134.5t49 -184t-49 -184t-132 -134.5t-182 -49.5q-98 0 -181.5 50zM541.5 96q64.5 39 102 106t37.5 148t-37.5 148t-102 106t-142.5 39q-77 0 -141.5 -39t-102 -106
t-37.5 -148t37.5 -148t102 -106t141.5 -39q78 0 142.5 39zM498 139h-88v99h-199v72l176 248h111v-252h76v-68h-76v-99zM410 306v167q-7 -15 -17 -30l-79 -111l-21 -26h117z" />
    <glyph glyph-name="uni2464" unicode="&#x2464;" horiz-adv-x="799" 
d="M217.5 32q-83.5 50 -132.5 134.5t-49 183.5t49 183.5t132.5 134.5t181.5 50q99 0 182 -49.5t132 -134.5t49 -184t-49 -184t-132 -134.5t-182 -49.5q-98 0 -181.5 50zM541.5 96q64.5 39 102 106t37.5 148t-37.5 148t-102 106t-142.5 39q-77 0 -141.5 -39t-102 -106
t-37.5 -148t37.5 -148t102 -106t141.5 -39q78 0 142.5 39zM282.5 166.5q-42.5 37.5 -43.5 94.5h89q1 -23 19 -39.5t48 -16.5q33 0 54 20t21 55q0 28 -18.5 48.5t-51.5 20.5q-39 0 -61 -25h-94l36 229h255v-84h-193l-12 -72q-1 -10 -6 -21q36 47 103 47q57 0 94 -38.5
t37 -104.5q0 -72 -46 -111.5t-115 -39.5q-73 0 -115.5 37.5z" />
    <glyph glyph-name="uni2465" unicode="&#x2465;" horiz-adv-x="799" 
d="M217.5 32q-83.5 50 -132.5 134.5t-49 183.5t49 183.5t132.5 134.5t181.5 50q99 0 182 -49.5t132 -134.5t49 -184t-49 -184t-132 -134.5t-182 -49.5q-98 0 -181.5 50zM541.5 96q64.5 39 102 106t37.5 148t-37.5 148t-102 106t-142.5 39q-77 0 -141.5 -39t-102 -106
t-37.5 -148t37.5 -148t102 -106t141.5 -39q78 0 142.5 39zM275.5 186.5q-45.5 57.5 -45.5 160.5q0 102 46.5 163t133.5 61q63 0 101 -34.5t43 -90.5h-88q-6 26 -20.5 37t-38.5 11q-42 0 -61 -30t-23 -83l-4 -25q40 59 106 59q58 0 97.5 -36t39.5 -97q0 -44 -20.5 -79
t-55.5 -54.5t-79 -19.5q-86 0 -131.5 57.5zM454.5 224q19.5 18 19.5 49t-19.5 48.5t-51.5 17.5t-51.5 -17.5t-19.5 -48.5t19.5 -49t51.5 -18t51.5 18z" />
    <glyph glyph-name="uni2466" unicode="&#x2466;" horiz-adv-x="799" 
d="M217.5 32q-83.5 50 -132.5 134.5t-49 183.5t49 183.5t132.5 134.5t181.5 50q99 0 182 -49.5t132 -134.5t49 -184t-49 -184t-132 -134.5t-182 -49.5q-98 0 -181.5 50zM541.5 96q64.5 39 102 106t37.5 148t-37.5 148t-102 106t-142.5 39q-77 0 -141.5 -39t-102 -106
t-37.5 -148t37.5 -148t102 -106t141.5 -39q78 0 142.5 39zM321 139q1 103 31.5 182t84.5 124q13 11 33 24h-210v84h296v-64q-62 -68 -92.5 -144.5t-33.5 -205.5h-109z" />
    <glyph glyph-name="uni2467" unicode="&#x2467;" horiz-adv-x="799" 
d="M217.5 32q-83.5 50 -132.5 134.5t-49 183.5t49 183.5t132.5 134.5t181.5 50q99 0 182 -49.5t132 -134.5t49 -184t-49 -184t-132 -134.5t-182 -49.5q-98 0 -181.5 50zM541.5 96q64.5 39 102 106t37.5 148t-37.5 148t-102 106t-142.5 39q-77 0 -141.5 -39t-102 -106
t-37.5 -148t37.5 -148t102 -106t141.5 -39q78 0 142.5 39zM278 162.5q-42 33.5 -42 83.5q0 42 23 68t65 43q-35 13 -56.5 37.5t-21.5 58.5q0 53 41.5 85.5t111.5 32.5q69 0 111 -32t42 -81q0 -40 -21 -66t-59 -35q41 -13 65.5 -39t24.5 -64q0 -56 -44.5 -90.5t-120.5 -34.5
q-77 0 -119 33.5zM446.5 402.5q17.5 14.5 17.5 38.5t-17.5 38t-46.5 14q-30 0 -47.5 -14t-17.5 -38t17.5 -38.5t47.5 -14.5q29 0 46.5 14.5zM454 222q21 16 21 42q0 28 -20.5 44.5t-55.5 16.5q-34 0 -54.5 -16.5t-20.5 -44.5q0 -26 20.5 -42t54.5 -16t55 16z" />
    <glyph glyph-name="uni2468" unicode="&#x2468;" horiz-adv-x="799" 
d="M217.5 32q-83.5 50 -132.5 134.5t-49 183.5t49 183.5t132.5 134.5t181.5 50q99 0 182 -49.5t132 -134.5t49 -184t-49 -184t-132 -134.5t-182 -49.5q-98 0 -181.5 50zM541.5 96q64.5 39 102 106t37.5 148t-37.5 148t-102 106t-142.5 39q-77 0 -141.5 -39t-102 -106
t-37.5 -148t37.5 -148t102 -106t141.5 -39q78 0 142.5 39zM290.5 160.5q-42.5 31.5 -46.5 101.5h88q4 -61 65 -61q44 0 60.5 29.5t24.5 94.5l4 20q-36 -61 -98 -61q-63 0 -103 38t-40 102q0 42 21.5 75.5t57 52.5t76.5 19q75 0 120 -58t45 -160q0 -112 -46 -168t-130 -56
q-56 0 -98.5 31.5zM447 379.5q19 19.5 19 48.5t-19 47.5t-48 18.5t-47.5 -18.5t-18.5 -47.5t19 -48.5t47 -19.5q29 0 48 19.5z" />
    <glyph glyph-name="uni24EA" unicode="&#x24ea;" horiz-adv-x="799" 
d="M217.5 32q-83.5 50 -132.5 134.5t-49 183.5t49 183.5t132.5 134.5t181.5 50q99 0 182 -49.5t132 -134.5t49 -184t-49 -184t-132 -134.5t-182 -49.5q-98 0 -181.5 50zM541.5 96q64.5 39 102 106t37.5 148t-37.5 148t-102 106t-142.5 39q-77 0 -141.5 -39t-102 -106
t-37.5 -148t37.5 -148t102 -106t141.5 -39q78 0 142.5 39zM275 188.5q-46 59.5 -46 158.5q0 103 46.5 163.5t123.5 60.5t123.5 -60.5t46.5 -163.5q0 -99 -45.5 -158.5t-124.5 -59.5q-78 0 -124 59.5zM457.5 242.5q22.5 36.5 22.5 104.5q0 73 -22 110t-58 37t-59.5 -37.5
t-23.5 -109.5q0 -67 23.5 -104t59.5 -37q35 0 57.5 36.5z" />
    <glyph glyph-name="uni24FF" unicode="&#x24ff;" horiz-adv-x="799" 
d="M580 31q84 49 133 133t49 186q0 99 -49 184t-132 134.5t-182 49.5q-98 0 -181.5 -50t-132.5 -134.5t-49 -183.5q0 -98 49 -183t131.5 -135t177.5 -50q102 0 186 49zM275.5 188.5q-45.5 59.5 -45.5 158.5q0 103 46.5 163.5t123.5 60.5q50 0 88.5 -27t60 -78t21.5 -119
q0 -99 -45.5 -158.5t-124.5 -59.5t-124.5 59.5zM458.5 242.5q22.5 36.5 22.5 104.5q0 73 -22 110t-58 37t-59.5 -37.5t-23.5 -109.5q0 -67 23.5 -104t59.5 -37q35 0 57.5 36.5z" />
    <glyph glyph-name="filledbox" unicode="&#x25a0;" horiz-adv-x="860" 
d="M780 0h-700v700h700v-700z" />
    <glyph glyph-name="H22073" unicode="&#x25a1;" horiz-adv-x="860" 
d="M780 0h-700v700h700v-700zM184 598v-496h492v496h-492z" />
    <glyph glyph-name="H18543" unicode="&#x25aa;" horiz-adv-x="540" 
d="M470 150h-400v400h400v-400z" />
    <glyph glyph-name="H18551" unicode="&#x25ab;" horiz-adv-x="540" 
d="M470 150h-400v400h400v-400zM170 453v-206h201v206h-201z" />
    <glyph glyph-name="triagup" unicode="&#x25b2;" horiz-adv-x="786" 
d="M771 0h-756l378 718z" />
    <glyph glyph-name="uni25B3" unicode="&#x25b3;" horiz-adv-x="785" 
d="M770 0h-755l377 718zM392 504l-213 -406h427z" />
    <glyph glyph-name="uni25B6" unicode="&#x25b6;" horiz-adv-x="717" 
d="M702 350l-625 -358v716z" />
    <glyph glyph-name="uni25B7" unicode="&#x25b7;" horiz-adv-x="717" 
d="M702 350l-625 -358v716zM176 539v-378l330 189z" />
    <glyph glyph-name="triagdn" unicode="&#x25bc;" horiz-adv-x="786" 
d="M393 -18l-378 718h756z" />
    <glyph glyph-name="uni25BD" unicode="&#x25bd;" horiz-adv-x="785" 
d="M392 -18l-377 718h755zM606 602h-427l213 -406z" />
    <glyph glyph-name="uni25C0" unicode="&#x25c0;" horiz-adv-x="717" 
d="M640 708v-716l-625 358z" />
    <glyph glyph-name="uni25C1" unicode="&#x25c1;" horiz-adv-x="717" 
d="M640 708v-716l-625 358zM211 350l330 -189v378z" />
    <glyph glyph-name="uni25C6" unicode="&#x25c6;" horiz-adv-x="836" 
d="M821 350l-403 -403l-403 403l403 402z" />
    <glyph glyph-name="uni25C7" unicode="&#x25c7;" horiz-adv-x="836" 
d="M821 350l-403 -403l-403 403l403 402zM156 350l262 -263l262 263l-262 262z" />
    <glyph glyph-name="lozenge" unicode="&#x25ca;" horiz-adv-x="527" 
d="M319 0h-111l-179 350l179 350h111l179 -350zM294 183l84 165l-82 162q-18 34 -33 72q-14 -36 -34 -72l-80 -158l84 -169q13 -27 30 -65q10 23 31 65z" />
    <glyph glyph-name="circle" unicode="&#x25cb;" horiz-adv-x="826" 
d="M225 25.5q-86 50.5 -136.5 137t-50.5 187.5t50.5 187.5t136.5 137t188 50.5t188 -50.5t136.5 -137t50.5 -187.5t-50.5 -187.5t-136.5 -137t-188 -50.5t-188 50.5zM549.5 109q62.5 37 98.5 101t36 140t-36 140t-98.5 101t-136.5 37t-136.5 -37t-98.5 -101t-36 -140
t36 -140t98.5 -101t136.5 -37t136.5 37z" />
    <glyph glyph-name="H18533" unicode="&#x25cf;" horiz-adv-x="810" 
d="M221.5 31.5q-84.5 49.5 -134 134.5t-49.5 184t49.5 184t134 134.5t183.5 49.5t183.5 -49.5t134 -134.5t49.5 -184t-49.5 -184t-134 -134.5t-183.5 -49.5t-183.5 49.5z" />
    <glyph glyph-name="uni25FB" unicode="&#x25fb;" horiz-adv-x="710" 
d="M630 75h-550v550h550v-550zM180 528v-356h350v356h-350z" />
    <glyph glyph-name="uni25FC" unicode="&#x25fc;" horiz-adv-x="710" 
d="M630 75h-550v550h550v-550z" />
    <glyph glyph-name="uni2661" unicode="&#x2661;" horiz-adv-x="792" 
d="M662.5 688.5q42.5 -26.5 66 -74.5t23.5 -111q0 -79 -39.5 -157t-115.5 -163.5t-202 -201.5q-124 115 -199.5 200t-115.5 164t-40 158q0 63 23.5 111t66 74.5t98.5 26.5t101.5 -31t66.5 -85q21 54 66.5 85t101.5 31t98.5 -26.5zM545.5 266q55.5 69 81 126t25.5 113
q0 54 -25 86t-70 32q-47 0 -74.5 -32t-30.5 -93h-112q-3 61 -30.5 93t-74.5 32q-45 0 -70 -31.5t-25 -85.5q0 -83 58.5 -175t196.5 -228q95 94 150.5 163z" />
    <glyph glyph-name="heart" unicode="&#x2665;" horiz-adv-x="792" 
d="M663 689q42 -26 65.5 -74t23.5 -110q0 -116 -86 -237t-271 -287q-181 163 -268 285.5t-87 239.5q0 62 23.5 109.5t66 73.5t96.5 26q67 0 111.5 -39t58.5 -105q14 66 58.5 105t111.5 39q55 0 97 -26z" />
    <glyph glyph-name="uni2776" unicode="&#x2776;" horiz-adv-x="799" 
d="M580 31q84 49 133 133t49 186q0 99 -49 184t-132 134.5t-182 49.5q-98 0 -181.5 -50t-132.5 -134.5t-49 -183.5q0 -98 49 -183t131.5 -135t177.5 -50q102 0 186 49zM377 397q0 34 4 54q-15 -25 -46.5 -43t-64.5 -18v80q45 7 78 30t39 58h78v-419h-88v258z" />
    <glyph glyph-name="uni2777" unicode="&#x2777;" horiz-adv-x="799" 
d="M580 31q84 49 133 133t49 186q0 99 -49 184t-132 134.5t-182 49.5q-98 0 -181.5 -50t-132.5 -134.5t-49 -183.5q0 -98 49 -183t131.5 -135t177.5 -50q102 0 186 49zM249 146q3 62 28.5 104.5t74.5 74.5l60 41q26 16 37.5 33t11.5 42q0 24 -15 39t-39 15q-29 0 -45 -19
t-18 -51h-95q2 39 21 72t54.5 53.5t82.5 20.5q72 0 108.5 -38.5t36.5 -92.5q0 -78 -96 -137l-50 -32q-39 -25 -44 -45h187v-80h-300z" />
    <glyph glyph-name="uni2778" unicode="&#x2778;" horiz-adv-x="799" 
d="M580 31q84 49 133 133t49 186q0 99 -49 184t-132 134.5t-182 49.5q-98 0 -181.5 -50t-132.5 -134.5t-49 -183.5q0 -98 49 -183t131.5 -135t177.5 -50q102 0 186 49zM282 169q-45 40 -45 114h86q1 -39 21 -58.5t53 -19.5t54 15t21 43q0 56 -74 56h-28v74h37q24 0 40 12
t16 34q0 25 -16.5 40.5t-46.5 15.5q-32 0 -48.5 -18t-19.5 -43h-91q2 61 46.5 99t115.5 38q66 0 107.5 -34t41.5 -89q0 -36 -22 -59.5t-57 -32.5q42 -9 65.5 -35t23.5 -65q0 -54 -44 -90.5t-120 -36.5q-71 0 -116 40z" />
    <glyph glyph-name="uni2779" unicode="&#x2779;" horiz-adv-x="799" 
d="M580 31q84 49 133 133t49 186q0 99 -49 184t-132 134.5t-182 49.5q-98 0 -181.5 -50t-132.5 -134.5t-49 -183.5q0 -98 49 -183t131.5 -135t177.5 -50q102 0 186 49zM498 139h-88v99h-199v72l176 248h111v-252h76v-68h-76v-99zM410 306v167q-7 -15 -17 -30l-79 -111
l-21 -26h117z" />
    <glyph glyph-name="uni277A" unicode="&#x277a;" horiz-adv-x="799" 
d="M580 31q84 49 133 133t49 186q0 99 -49 184t-132 134.5t-182 49.5q-98 0 -181.5 -50t-132.5 -134.5t-49 -183.5q0 -98 49 -183t131.5 -135t177.5 -50q102 0 186 49zM282.5 166.5q-42.5 37.5 -43.5 94.5h89q1 -23 19 -39.5t48 -16.5q33 0 54 20t21 55q0 28 -18.5 48.5
t-51.5 20.5q-39 0 -61 -25h-94l36 229h255v-84h-193l-12 -72q-1 -10 -6 -21q36 47 103 47q57 0 94 -38.5t37 -104.5q0 -72 -46 -111.5t-115 -39.5q-73 0 -115.5 37.5z" />
    <glyph glyph-name="uni277B" unicode="&#x277b;" horiz-adv-x="799" 
d="M580 31q84 49 133 133t49 186q0 99 -49 184t-132 134.5t-182 49.5q-98 0 -181.5 -50t-132.5 -134.5t-49 -183.5q0 -98 49 -183t131.5 -135t177.5 -50q102 0 186 49zM275.5 186.5q-45.5 57.5 -45.5 160.5q0 102 46.5 163t133.5 61q63 0 101 -34.5t43 -90.5h-88
q-6 26 -20.5 37t-38.5 11q-42 0 -61 -30t-23 -83l-4 -25q40 59 106 59q58 0 97.5 -36t39.5 -97q0 -44 -20.5 -79t-55.5 -54.5t-79 -19.5q-86 0 -131.5 57.5zM454.5 224q19.5 18 19.5 49t-19.5 48.5t-51.5 17.5t-51.5 -17.5t-19.5 -48.5t19.5 -49t51.5 -18t51.5 18z" />
    <glyph glyph-name="uni277C" unicode="&#x277c;" horiz-adv-x="799" 
d="M580 31q84 49 133 133t49 186q0 99 -49 184t-132 134.5t-182 49.5q-98 0 -181.5 -50t-132.5 -134.5t-49 -183.5q0 -98 49 -183t131.5 -135t177.5 -50q102 0 186 49zM321 139q1 103 31.5 182t84.5 124q13 11 33 24h-210v84h296v-64q-62 -68 -92.5 -144.5t-33.5 -205.5
h-109z" />
    <glyph glyph-name="uni277D" unicode="&#x277d;" horiz-adv-x="799" 
d="M580 31q84 49 133 133t49 186q0 99 -49 184t-132 134.5t-182 49.5q-98 0 -181.5 -50t-132.5 -134.5t-49 -183.5q0 -98 49 -183t131.5 -135t177.5 -50q102 0 186 49zM278.5 162.5q-41.5 33.5 -41.5 83.5q0 42 22.5 68t65.5 43q-35 13 -56.5 37.5t-21.5 58.5q0 53 41 85.5
t112 32.5q69 0 111 -32t42 -81q0 -40 -21.5 -66t-58.5 -35q41 -12 65 -38.5t24 -64.5q0 -56 -44 -90.5t-121 -34.5t-118.5 33.5zM446.5 402.5q17.5 14.5 17.5 38.5t-17.5 38t-46.5 14q-30 0 -47.5 -14t-17.5 -38t17.5 -38.5t47.5 -14.5q29 0 46.5 14.5zM454 222q21 16 21 42
q0 28 -20.5 44.5t-55.5 16.5q-34 0 -54.5 -16.5t-20.5 -44.5q0 -26 20.5 -42t54.5 -16t55 16z" />
    <glyph glyph-name="uni277E" unicode="&#x277e;" horiz-adv-x="799" 
d="M580 31q84 49 133 133t49 186q0 99 -49 184t-132 134.5t-182 49.5q-98 0 -181.5 -50t-132.5 -134.5t-49 -183.5q0 -98 49 -183t131.5 -135t177.5 -50q102 0 186 49zM290.5 160.5q-42.5 31.5 -46.5 101.5h88q4 -61 65 -61q44 0 60.5 29.5t24.5 94.5l4 20q-36 -61 -98 -61
q-63 0 -103 38t-40 102q0 42 21.5 75.5t57 52.5t76.5 19q75 0 120 -58t45 -160q0 -112 -46 -168t-130 -56q-56 0 -98.5 31.5zM447 379.5q19 19.5 19 48.5t-19 47.5t-48 18.5t-47.5 -18.5t-18.5 -47.5t19 -48.5t47 -19.5q29 0 48 19.5z" />
    <glyph glyph-name="uni300A" unicode="&#x300a;" horiz-adv-x="577" 
d="M326 731l-182 -426l189 -434h-128l-187 432l183 428h125zM563 731l-182 -426l189 -434h-128l-187 432l183 428h125z" />
    <glyph glyph-name="uni300B" unicode="&#x300b;" horiz-adv-x="577" 
d="M7 731h128l187 -432l-183 -428h-125l182 426zM244 731h128l187 -432l-183 -428h-125l182 426z" />
    <glyph glyph-name="uni300C" unicode="&#x300c;" horiz-adv-x="334" 
d="M190 300h-118v431h251v-90h-133v-341z" />
    <glyph glyph-name="uni300D" unicode="&#x300d;" horiz-adv-x="316" 
d="M142 300h118v-431h-251v90h133v341z" />
    <glyph glyph-name="uni300E" unicode="&#x300e;" horiz-adv-x="488" 
d="M319 214h-247v517h387v-227h-140v-290zM166 655v-355h59v282h141v73h-200z" />
    <glyph glyph-name="uni300F" unicode="&#x300f;" horiz-adv-x="477" 
d="M167 388h247v-517h-387v227h140v290zM320 -53v355h-59v-282h-141v-73h200z" />
    <glyph glyph-name="uni3010" unicode="&#x3010;" horiz-adv-x="341" 
d="M77 -129v860h266v-3q-80 -96 -118 -197t-38 -229t37.5 -229t118.5 -200v-2h-266z" />
    <glyph glyph-name="uni3011" unicode="&#x3011;" horiz-adv-x="336" 
d="M264 731v-860h-266v3q80 96 118 197t38 229t-37.5 229t-118.5 200v2h266z" />
    <glyph glyph-name="uni3014" unicode="&#x3014;" horiz-adv-x="284" 
d="M259 -86l-84 -59l-123 171v548l125 173l83 -60l-90 -123v-525z" />
    <glyph glyph-name="uni3015" unicode="&#x3015;" horiz-adv-x="284" 
d="M25 688l84 59l123 -171v-548l-125 -173l-83 60l90 123v525z" />
    <glyph glyph-name="uniE000" unicode="&#xe000;" horiz-adv-x="768" 
d="M383 273l-285 -291l-78 79l288 291l-280 287l79 79l279 -288l282 289l80 -76l-288 -291l287 -291l-80 -78z" />
    <glyph glyph-name="uniE001" unicode="&#xe001;" horiz-adv-x="875" 
d="M349 168l417 549l89 -72l-509 -660l-321 413l89 74z" />
    <glyph glyph-name="uniE002" unicode="&#xe002;" horiz-adv-x="914" 
d="M844 560h-774v111h774v-111zM844 295h-774v112h774v-112zM844 31h-774v111h774v-111z" />
    <glyph glyph-name="uniE003" unicode="&#xe003;" horiz-adv-x="859" 
d="M783 0h-706v700h706v-700zM192 594v-488h476v488h-476z" />
    <glyph glyph-name="uniE004" unicode="&#xe004;" horiz-adv-x="859" 
d="M250 450l89 57l101 -160l271 366l86 -66l-365 -487zM188 102h482v226h111v-328h-704v700h456v-102h-345v-496z" />
    <glyph glyph-name="uniE005" unicode="&#xe005;" horiz-adv-x="859" 
d="M782 0h-705v700h705v-700zM188 598v-496h483v496h-483zM505 278h-151v150h151v-150z" />
    <glyph glyph-name="uniE006" unicode="&#xe006;" horiz-adv-x="678" 
d="M398 316l126 133l80 -79l-263 -261l-262 261l79 79l127 -134v403h113v-402zM20 109h638v-109h-638v109z" />
    <glyph glyph-name="uniE008" unicode="&#xe008;" horiz-adv-x="676" 
d="M188 90.5q-69 40.5 -109.5 109.5t-40.5 150t40.5 150t109.5 109.5t150 40.5t150 -40.5t109.5 -109.5t40.5 -150t-40.5 -150t-109.5 -109.5t-150 -40.5t-150 40.5z" />
    <glyph glyph-name="uniE009" unicode="&#xe009;" horiz-adv-x="556" 
d="M158 142.5q-55 32.5 -87.5 87.5t-32.5 120t32.5 120t87.5 87.5t120 32.5t120 -32.5t87.5 -87.5t32.5 -120t-32.5 -120t-87.5 -87.5t-120 -32.5t-120 32.5z" />
    <glyph glyph-name="uniE010" unicode="&#xe010;" horiz-adv-x="706" 
d="M195.5 77.5q-72.5 42.5 -115 115t-42.5 157.5t42.5 157.5t115 115t157.5 42.5t157.5 -42.5t115 -115t42.5 -157.5t-42.5 -157.5t-115 -115t-157.5 -42.5t-157.5 42.5zM459.5 162.5q48.5 29.5 77.5 79t29 108.5t-29 108.5t-77.5 79t-106.5 29.5t-106.5 -29.5t-77.5 -79
t-29 -108.5t29 -108.5t77.5 -79t106.5 -29.5t106.5 29.5z" />
    <glyph glyph-name="uniE011" unicode="&#xe011;" horiz-adv-x="556" 
d="M158 142.5q-55 32.5 -87.5 87.5t-32.5 120t32.5 120t87.5 87.5t120 32.5t120 -32.5t87.5 -87.5t32.5 -120t-32.5 -120t-87.5 -87.5t-120 -32.5t-120 32.5zM351.5 222q33.5 20 52.5 54t19 74t-19 74t-52.5 54t-73.5 20t-73.5 -20t-52.5 -54t-19 -74t19 -74t52.5 -54
t73.5 -20t73.5 20z" />
    <glyph glyph-name="uniE012" unicode="&#xe012;" horiz-adv-x="826" 
d="M225.5 25.5q-86.5 50.5 -137 137t-50.5 187.5q0 102 50.5 188t137 136.5t187.5 50.5q102 0 188 -50.5t136.5 -136.5t50.5 -188q0 -101 -50.5 -187.5t-136.5 -137t-188 -50.5q-101 0 -187.5 50.5zM558.5 98.5q66.5 39.5 106 106t39.5 145.5t-39.5 145.5t-106 106
t-145.5 39.5t-145.5 -39.5t-106 -106t-39.5 -145.5t39.5 -145.5t106 -106t145.5 -39.5t145.5 39.5zM295 146q-54 32 -86 86t-32 118t32 118t86 86t118 32t118 -32t86 -86t32 -118t-32 -118t-86 -86t-118 -32t-118 32zM490 217.5q35 20.5 55.5 55.5t20.5 77q0 41 -20.5 76.5
t-55.5 56t-77 20.5t-77 -20.5t-55.5 -55.5t-20.5 -77t20.5 -77t55.5 -55.5t77 -20.5t77 20.5zM352 289q-26 26 -26 61q0 36 26 61.5t61 25.5q36 0 61.5 -25.5t25.5 -61.5q0 -35 -25.5 -61t-61.5 -26q-35 0 -61 26z" />
    <glyph glyph-name="uniE013" unicode="&#xe013;" horiz-adv-x="706" 
d="M195.5 77.5q-72.5 42.5 -115 115t-42.5 157.5t42.5 157.5t115 115t157.5 42.5t157.5 -42.5t115 -115t42.5 -157.5t-42.5 -157.5t-115 -115t-157.5 -42.5t-157.5 42.5zM462.5 156.5q50.5 30.5 80 81.5t29.5 112t-29.5 112t-80 81.5t-109.5 30.5t-109.5 -30.5t-80 -81.5
t-29.5 -112t29.5 -112t80 -81.5t109.5 -30.5t109.5 30.5zM270 207q-38 22 -60 60t-22 83t22 83t60 60t83 22t83 -22t60 -60t22 -83t-22 -83t-60 -60t-83 -22t-83 22zM406 297q22 22 22 53q0 32 -21.5 53.5t-53.5 21.5q-31 0 -53 -22t-22 -53t22 -53t53 -22t53 22z" />
    <glyph glyph-name="uniE014" unicode="&#xe014;" horiz-adv-x="556" 
d="M158 142.5q-55 32.5 -87.5 87.5t-32.5 120t32.5 120t87.5 87.5t120 32.5t120 -32.5t87.5 -87.5t32.5 -120t-32.5 -120t-87.5 -87.5t-120 -32.5t-120 32.5zM353 219.5q34 20.5 53.5 55t19.5 75.5t-19.5 75.5t-53.5 55t-75 20.5t-75 -20.5t-53.5 -55t-19.5 -75.5
t19.5 -75.5t53.5 -55t75 -20.5t75 20.5zM217 289q-26 26 -26 61q0 36 26 61.5t61 25.5q36 0 61.5 -25.5t25.5 -61.5q0 -35 -25.5 -61t-61.5 -26q-35 0 -61 26z" />
    <glyph glyph-name="uniE015" unicode="&#xe015;" horiz-adv-x="860" 
d="M780 0h-700v700h700v-700zM179 603v-506h502v506h-502zM626 154h-392v392h392v-392zM324 457v-214h212v214h-212zM480 300h-100v100h100v-100z" />
    <glyph glyph-name="uniE016" unicode="&#xe016;" horiz-adv-x="710" 
d="M630 75h-550v550h550v-550zM170 537v-374h370v374h-370zM492 212h-274v276h274v-276zM299 408v-116h112v116h-112z" />
    <glyph glyph-name="uniE017" unicode="&#xe017;" horiz-adv-x="540" 
d="M470 150h-400v400h400v-400zM164 459v-218h213v218h-213zM320 300h-100v100h100v-100z" />
    <glyph glyph-name="uniF8FF" unicode="&#xf8ff;" horiz-adv-x="928" 
d="M99.5 661q4.5 -11 7.5 -36q1 -5 4 -24t10 -36q9 -19 27 -47t33 -46q16 -18 41 -27t69 -7q46 3 80 3q39 0 76 -4q40 -4 58 -4q36 0 65 8q18 5 37 20.5t28 30.5q12 19 29 37t32 18q12 0 17 -9t5 -27q0 -13 8 -20t21 -7q19 0 29 10q2 2 14 19q8 13 14 20t15 7
q16 0 25.5 -27.5t9.5 -54.5q0 -61 -4.5 -89.5t-21.5 -73.5q-7 -16 -18 -71.5t-16 -87.5q-4 -27 -8 -96q-4 -44 -32 -40q-9 1 -17 11t-18 28q-8 15 -14.5 23t-12.5 8q-4 0 -5 -7t-1.5 -13t-0.5 -9q-1 -21 -3.5 -32.5t-9.5 -14.5q-6 -2 -10 -2q-12 0 -24 11t-17 36
q-13 55 -45 90q-20 23 -37 32.5t-52 9.5q-25 0 -66 -6q-37 -6 -56.5 -20t-27.5 -37.5t-13 -65.5q-7 -46 -24 -46q-13 0 -20.5 12.5t-13.5 33.5q-3 9 -6 16.5t-7 7.5q-7 0 -10.5 -7.5t-8.5 -25.5q-5 -21 -11.5 -33t-18.5 -12q-9 0 -17 8.5t-11 29.5l-22 184q-4 33 -12 72.5
t-11 47.5q-11 29 -31 64q-3 6 -13.5 25.5t-20.5 44.5q-9 24 -17 62.5t-8 71.5q0 34 9.5 54t29.5 20q15 0 19.5 -11zM686 510q-15 -9 -17 -19v-3q0 -11 6 -17zM825 485q0 7 -5 14q-8 -15 -8 -26q0 -8 4 -12q5 6 8 16q1 3 1 8zM724 368q0 8 -8.5 14t-30.5 16q-13 6 -21.5 -6.5
t-8.5 -27.5q16 19 32 16q17 -3 17 -17q0 -12 -5 -15.5t-15.5 -4t-14.5 -3.5q-8 -7 -8 -11q0 -5 12 -7q15 -3 23 -3q1 6 4 10.5t7 8.5q9 7 14 18q3 6 3 12zM800 331.5q7 7.5 7 16.5q0 13 -8 23t-16 10q-5 0 -8 -5q12 0 19 -20q3 -8 -3.5 -17.5t-18.5 -9.5q3 -5 6 -7t9 0
t13 9.5z" />
    <glyph glyph-name="G.aalt" horiz-adv-x="737" 
d="M198 27q-78 45 -119 128t-41 195q0 107 44 190.5t124 130.5t184 47q86 0 152 -30t104 -83t45 -122h-135q-8 55 -52 89.5t-112 34.5q-64 0 -114 -31t-77.5 -89.5t-27.5 -136.5q0 -119 57 -188t155 -69q55 0 97.5 21.5t65.5 60t23 86.5v1h-187v111h316v-100
q0 -78 -38.5 -144.5t-110 -106.5t-167.5 -40q-108 0 -186 45z" />
    <glyph glyph-name="Gbreve.aalt" horiz-adv-x="737" 
d="M283.5 800.5q-34.5 39.5 -34.5 111.5h89q0 -34 12 -51.5t39 -17.5q26 0 39.5 18.5t13.5 50.5h89q0 -73 -35 -112t-107 -39q-71 0 -105.5 39.5zM198 27q-78 45 -119 128t-41 195q0 107 44 190.5t124 130.5t184 47q86 0 152 -30t104 -83t45 -122h-135q-8 55 -52 89.5
t-112 34.5q-64 0 -114 -31t-77.5 -89.5t-27.5 -136.5q0 -119 57 -188t155 -69q55 0 97.5 21.5t65.5 60t23 86.5v1h-187v111h316v-100q0 -78 -38.5 -144.5t-110 -106.5t-167.5 -40q-108 0 -186 45z" />
    <glyph glyph-name="Gcircumflex.aalt" horiz-adv-x="737" 
d="M209 765l104 147h151l103 -147h-122l-29 42q-19 26 -27 46q-5 -12 -26 -46l-29 -42h-125zM198 27q-78 45 -119 128t-41 195q0 107 44 190.5t124 130.5t184 47q86 0 152 -30t104 -83t45 -122h-135q-8 55 -52 89.5t-112 34.5q-64 0 -114 -31t-77.5 -89.5t-27.5 -136.5
q0 -119 57 -188t155 -69q55 0 97.5 21.5t65.5 60t23 86.5v1h-187v111h316v-100q0 -78 -38.5 -144.5t-110 -106.5t-167.5 -40q-108 0 -186 45z" />
    <glyph glyph-name="uni0122.ss06" horiz-adv-x="737" 
d="M198 27q-78 45 -119 128t-41 195q0 107 44 190.5t124 130.5t184 47q86 0 152 -30t104 -83t45 -122h-135q-8 55 -52 89.5t-112 34.5q-64 0 -114 -31t-77.5 -89.5t-27.5 -136.5q0 -119 57 -188t155 -69q55 0 97.5 21.5t65.5 60t23 86.5v1h-187v111h316v-100
q0 -78 -38.5 -144.5t-110 -106.5t-167.5 -40q-108 0 -186 45zM322 -263q36 4 49.5 20.5t13.5 51.5h-63v114h128v-107q0 -72 -34 -102t-94 -33v56z" />
    <glyph glyph-name="uni0122.ss06.ss12" horiz-adv-x="737" 
d="M198 27q-78 45 -119 128t-41 195q0 107 44 190.5t124 130.5t184 47q86 0 152 -30t104 -83t45 -122h-135q-8 55 -52 89.5t-112 34.5q-64 0 -114 -31t-77.5 -89.5t-27.5 -136.5q0 -119 57 -188t155 -69q55 0 97.5 21.5t65.5 60t23 86.5v1h-187v111h316v-100
q0 -78 -38.5 -144.5t-110 -106.5t-167.5 -40q-108 0 -186 45zM359 -304h-93l67 227h124z" />
    <glyph glyph-name="uni0122.ss12" horiz-adv-x="746" 
d="M195 27.5q-75 45.5 -116 128.5t-41 194q0 107 44 190.5t124 130.5t184 47q86 0 151.5 -30t104 -83.5t45.5 -121.5h-135q-7 54 -51.5 89t-112.5 35q-64 0 -114 -31t-77.5 -89.5t-27.5 -136.5t27 -136.5t76 -89.5t113 -31q52 0 94 20.5t66.5 57.5t24.5 86v5h-190v111h310
v-373h-120v22q0 38 7 70q-26 -50 -80.5 -80t-132.5 -30q-98 0 -173 45.5zM359 -304h-93l67 227h124z" />
    <glyph glyph-name="Gdotaccent.aalt" horiz-adv-x="737" 
d="M454 774h-127v128h127v-128zM198 27q-78 45 -119 128t-41 195q0 107 44 190.5t124 130.5t184 47q86 0 152 -30t104 -83t45 -122h-135q-8 55 -52 89.5t-112 34.5q-64 0 -114 -31t-77.5 -89.5t-27.5 -136.5q0 -119 57 -188t155 -69q55 0 97.5 21.5t65.5 60t23 86.5v1h-187
v111h316v-100q0 -78 -38.5 -144.5t-110 -106.5t-167.5 -40q-108 0 -186 45z" />
    <glyph glyph-name="I.aalt" horiz-adv-x="441" 
d="M396 700v-111h-110v-478h110v-111h-350v111h109v478h-109v111h350z" />
    <glyph glyph-name="IJ.aalt" horiz-adv-x="1032" 
d="M396 700v-111h-110v-478h110v-111h-350v111h109v478h-109v111h350zM1018 589h-109v-380q0 -108 -62 -167.5t-166 -59.5q-119 0 -174 64t-53 179h131q0 -63 21 -97.5t73 -34.5q58 0 78 37t20 103v356h-159v111h400v-111z" />
    <glyph glyph-name="Iacute.aalt" horiz-adv-x="441" 
d="M235 912h140l-112 -147h-103zM396 700v-111h-110v-478h110v-111h-350v111h109v478h-109v111h350z" />
    <glyph glyph-name="Ibreve.aalt" horiz-adv-x="441" 
d="M114.5 800.5q-34.5 39.5 -34.5 111.5h89q0 -34 12 -51.5t39 -17.5q26 0 39.5 18.5t13.5 50.5h89q0 -73 -35 -112t-107 -39q-71 0 -105.5 39.5zM396 700v-111h-110v-478h110v-111h-350v111h109v478h-109v111h350z" />
    <glyph glyph-name="Icircumflex.aalt" horiz-adv-x="441" 
d="M165 765h-125l104 147h151l103 -147h-122l-29 42q-19 26 -27 46q-5 -12 -26 -46zM46 700h350v-111h-110v-478h110v-111h-350v111h109v478h-109v111z" />
    <glyph glyph-name="Idieresis.aalt" horiz-adv-x="441" 
d="M60 902h126v-128h-126v128zM256 902h125v-128h-125v128zM396 700v-111h-110v-478h110v-111h-350v111h109v478h-109v111h350z" />
    <glyph glyph-name="Idotaccent.aalt" horiz-adv-x="441" 
d="M158 902h127v-128h-127v128zM396 700v-111h-110v-478h110v-111h-350v111h109v478h-109v111h350z" />
    <glyph glyph-name="Igrave.aalt" horiz-adv-x="441" 
d="M223 912l66 -147h-107l-109 147h150zM396 700v-111h-110v-478h110v-111h-350v111h109v478h-109v111h350z" />
    <glyph glyph-name="Imacron.aalt" horiz-adv-x="441" 
d="M52 884h339v-92h-339v92zM396 700v-111h-110v-478h110v-111h-350v111h109v478h-109v111h350z" />
    <glyph glyph-name="Iogonek.aalt" horiz-adv-x="441" 
d="M396 589h-110v-478h110v-111h-110q-41 -24 -59.5 -44t-18.5 -40q0 -16 10.5 -24t25.5 -8q21 0 51 12v-76q-13 -8 -34 -13.5t-44 -5.5q-56 0 -86.5 27t-30.5 73q0 57 64 99h-118v111h109v478h-109v111h350v-111z" />
    <glyph glyph-name="Itilde.aalt" horiz-adv-x="441" 
d="M131 781h-96q0 64 28.5 96t80.5 32q23 0 42.5 -5t46.5 -15q13 -5 25.5 -9t21.5 -4q15 0 22.5 9t8.5 27h96q0 -129 -109 -129q-21 0 -40.5 5t-43.5 14q-37 13 -52 13q-31 0 -31 -34zM46 700h350v-111h-110v-478h110v-111h-350v111h109v478h-109v111z" />
    <glyph glyph-name="J.aalt" horiz-adv-x="591" 
d="M577 589h-109v-380q0 -108 -62 -167.5t-166 -59.5q-119 0 -174 64t-53 179h131q0 -63 21 -97.5t73 -34.5q58 0 78 37t20 103v356h-159v111h400v-111z" />
    <glyph glyph-name="Jcircumflex.aalt" horiz-adv-x="591" 
d="M346 765h-125l104 147h151l103 -147h-122l-29 42q-19 26 -27 46q-5 -12 -26 -46zM577 700v-111h-109v-380q0 -108 -62 -167.5t-166 -59.5q-119 0 -174 64t-53 179h131q0 -63 21 -97.5t73 -34.5q58 0 78 37t20 103v356h-159v111h400z" />
    <glyph glyph-name="uni0136.aalt" horiz-adv-x="663" 
d="M363 406l323 -406h-173l-238 314l-69 -71v-243h-129v700h129v-296q14 21 46 55l227 241h167zM326 -304h-93l67 227h124z" />
    <glyph glyph-name="Lcaron.aalt" horiz-adv-x="567" 
d="M560 0h-483v700h131v-589h352v-111zM423 473h-93l67 227h124z" />
    <glyph glyph-name="uni013B.aalt" horiz-adv-x="567" 
d="M560 0h-483v700h131v-589h352v-111zM291 -304h-93l67 227h124z" />
    <glyph glyph-name="uni0145.aalt" horiz-adv-x="779" 
d="M77 0v700h197l302 -527q-4 40 -4 105v422h131v-700h-172l-327 571q4 -40 4 -98v-473h-131zM372 -304h-93l67 227h124z" />
    <glyph glyph-name="R.aalt" horiz-adv-x="671" 
d="M659 0h-159l-213 294h-81v-294h-129v700h301q117 0 186.5 -50t69.5 -156q0 -87 -54.5 -137.5t-143.5 -60.5zM206 398h172q61 0 91.5 25.5t30.5 69.5q0 96 -122 96h-172v-191z" />
    <glyph glyph-name="Racute.aalt" horiz-adv-x="671" 
d="M338 912h140l-112 -147h-103zM659 0h-159l-213 294h-81v-294h-129v700h301q117 0 186.5 -50t69.5 -156q0 -87 -54.5 -137.5t-143.5 -60.5zM206 398h172q61 0 91.5 25.5t30.5 69.5q0 96 -122 96h-172v-191z" />
    <glyph glyph-name="Rcaron.aalt" horiz-adv-x="671" 
d="M399 765h-150l-103 147h124l29 -42q17 -24 26 -45q9 18 27 45l28 42h124zM659 0h-159l-213 294h-81v-294h-129v700h301q117 0 186.5 -50t69.5 -156q0 -87 -54.5 -137.5t-143.5 -60.5zM206 398h172q61 0 91.5 25.5t30.5 69.5q0 96 -122 96h-172v-191z" />
    <glyph glyph-name="uni0156.ss07" horiz-adv-x="671" 
d="M659 0h-159l-213 294h-81v-294h-129v700h301q117 0 186.5 -50t69.5 -156q0 -87 -54.5 -137.5t-143.5 -60.5zM206 398h172q61 0 91.5 25.5t30.5 69.5q0 96 -122 96h-172v-191zM289 -191v114h128v-107q0 -72 -34 -102t-94 -33v56q36 4 49.5 20.5t13.5 51.5h-63z" />
    <glyph glyph-name="uni0156.ss07.ss12" horiz-adv-x="671" 
d="M659 0h-159l-213 294h-81v-294h-129v700h301q117 0 186.5 -50t69.5 -156q0 -87 -54.5 -137.5t-143.5 -60.5zM206 398h172q61 0 91.5 25.5t30.5 69.5q0 96 -122 96h-172v-191zM326 -304h-93l67 227h124z" />
    <glyph glyph-name="uni0156.ss12" horiz-adv-x="661" 
d="M77 0v700h310q102 0 164 -47.5t62 -136.5q0 -67 -39 -110.5t-95 -60.5q60 -10 91.5 -52t31.5 -110v-183h-132v171q0 62 -25.5 87.5t-89.5 25.5h-147v-284h-131zM362 396q116 0 116 96q0 48 -29.5 72.5t-86.5 24.5h-154v-193h154zM316 -304h-93l67 227h124z" />
    <glyph glyph-name="uni0218.aalt" horiz-adv-x="655" 
d="M115 51.5q-81 69.5 -89 188.5h136q5 -70 55.5 -108.5t123.5 -38.5q63 0 101.5 24t38.5 72q0 39 -28.5 62.5t-86.5 34.5l-119 23q-88 17 -142 67.5t-54 130.5q0 61 35 109t97.5 75t140.5 27q129 0 202 -62.5t79 -167.5h-136q-2 52 -40.5 85.5t-112.5 33.5
q-59 0 -96.5 -23.5t-37.5 -65.5q0 -38 29 -56.5t89 -30.5l118 -23q88 -17 141.5 -67t53.5 -133q0 -66 -32.5 -117t-95 -80t-150.5 -29q-139 0 -220 69.5zM308 -304h-93l67 227h124z" />
    <glyph glyph-name="uni021A.aalt" horiz-adv-x="613" 
d="M372 0h-131v589h-234v111h598v-111h-233v-589zM279 -304h-93l67 227h124z" />
    <glyph glyph-name="a.salt" horiz-adv-x="591" 
d="M96.5 49.5q-61.5 67.5 -61.5 192.5q0 84 31.5 143t83 89t110.5 30q100 0 151 -86q-4 17 -4 48v22h122v-488h-122v20q0 30 4 47q-18 -34 -55.5 -59.5t-97.5 -25.5q-100 0 -161.5 67.5zM378 124q36 46 36 119q0 74 -35.5 119t-91.5 45q-36 0 -65.5 -21t-46 -58t-16.5 -85
q0 -75 36 -120t92 -45q55 0 91 46z" />
    <glyph glyph-name="aacute.aalt" horiz-adv-x="591" 
d="M337 553h-103l75 147h140zM96.5 49.5q-61.5 67.5 -61.5 192.5q0 84 31.5 143t83 89t110.5 30q100 0 151 -86q-4 17 -4 48v22h122v-488h-122v20q0 30 4 47q-18 -34 -55.5 -59.5t-97.5 -25.5q-100 0 -161.5 67.5zM378 124q36 46 36 119q0 74 -35.5 119t-91.5 45
q-36 0 -65.5 -21t-46 -58t-16.5 -85q0 -75 36 -120t92 -45q55 0 91 46z" />
    <glyph glyph-name="abreve.aalt" horiz-adv-x="591" 
d="M188.5 588.5q-34.5 39.5 -34.5 111.5h89q0 -34 12 -51.5t39 -17.5q26 0 39.5 18.5t13.5 50.5h89q0 -73 -35 -112t-107 -39q-71 0 -105.5 39.5zM96.5 49.5q-61.5 67.5 -61.5 192.5q0 84 31.5 143t83 89t110.5 30q100 0 151 -86q-4 17 -4 48v22h122v-488h-122v20q0 30 4 47
q-18 -34 -55.5 -59.5t-97.5 -25.5q-100 0 -161.5 67.5zM378 124q36 46 36 119q0 74 -35.5 119t-91.5 45q-36 0 -65.5 -21t-46 -58t-16.5 -85q0 -75 36 -120t92 -45q55 0 91 46z" />
    <glyph glyph-name="acircumflex.aalt" horiz-adv-x="591" 
d="M114 553l104 147h151l103 -147h-122l-29 42q-19 26 -27 46q-5 -12 -26 -46l-29 -42h-125zM96.5 49.5q-61.5 67.5 -61.5 192.5q0 84 31.5 143t83 89t110.5 30q100 0 151 -86q-4 17 -4 48v22h122v-488h-122v20q0 30 4 47q-18 -34 -55.5 -59.5t-97.5 -25.5
q-100 0 -161.5 67.5zM378 124q36 46 36 119q0 74 -35.5 119t-91.5 45q-36 0 -65.5 -21t-46 -58t-16.5 -85q0 -75 36 -120t92 -45q55 0 91 46z" />
    <glyph glyph-name="adieresis.aalt" horiz-adv-x="591" 
d="M260 562h-126v128h126v-128zM455 562h-125v128h125v-128zM96.5 49.5q-61.5 67.5 -61.5 192.5q0 84 31.5 143t83 89t110.5 30q100 0 151 -86q-4 17 -4 48v22h122v-488h-122v20q0 30 4 47q-18 -34 -55.5 -59.5t-97.5 -25.5q-100 0 -161.5 67.5zM378 124q36 46 36 119
q0 74 -35.5 119t-91.5 45q-36 0 -65.5 -21t-46 -58t-16.5 -85q0 -75 36 -120t92 -45q55 0 91 46z" />
    <glyph glyph-name="uni0227.aalt" horiz-adv-x="591" 
d="M359 562h-127v128h127v-128zM96.5 49.5q-61.5 67.5 -61.5 192.5q0 84 31.5 143t83 89t110.5 30q100 0 151 -86q-4 17 -4 48v22h122v-488h-122v20q0 30 4 47q-18 -34 -55.5 -59.5t-97.5 -25.5q-100 0 -161.5 67.5zM378 124q36 46 36 119q0 74 -35.5 119t-91.5 45
q-36 0 -65.5 -21t-46 -58t-16.5 -85q0 -75 36 -120t92 -45q55 0 91 46z" />
    <glyph glyph-name="agrave.aalt" horiz-adv-x="591" 
d="M363 553h-107l-109 147h150zM96.5 49.5q-61.5 67.5 -61.5 192.5q0 84 31.5 143t83 89t110.5 30q100 0 151 -86q-4 17 -4 48v22h122v-488h-122v20q0 30 4 47q-18 -34 -55.5 -59.5t-97.5 -25.5q-100 0 -161.5 67.5zM378 124q36 46 36 119q0 74 -35.5 119t-91.5 45
q-36 0 -65.5 -21t-46 -58t-16.5 -85q0 -75 36 -120t92 -45q55 0 91 46z" />
    <glyph glyph-name="amacron.aalt" horiz-adv-x="591" 
d="M465 580h-339v92h339v-92zM96.5 49.5q-61.5 67.5 -61.5 192.5q0 84 31.5 143t83 89t110.5 30q100 0 151 -86q-4 17 -4 48v22h122v-488h-122v20q0 30 4 47q-18 -34 -55.5 -59.5t-97.5 -25.5q-100 0 -161.5 67.5zM378 124q36 46 36 119q0 74 -35.5 119t-91.5 45
q-36 0 -65.5 -21t-46 -58t-16.5 -85q0 -75 36 -120t92 -45q55 0 91 46z" />
    <glyph glyph-name="aogonek.aalt" horiz-adv-x="591" 
d="M538 -104v-76q-13 -8 -34 -13.5t-44 -5.5q-56 0 -86.5 27t-30.5 73q0 57 64 99v20q0 30 4 47q-18 -34 -55.5 -59.5t-97.5 -25.5q-100 0 -161.5 67.5t-61.5 192.5q0 84 31.5 143t83 89t110.5 30q100 0 151 -86q-4 17 -4 48v22h122v-488q-41 -24 -59.5 -44t-18.5 -40
q0 -16 10.5 -24t25.5 -8q21 0 51 12zM378 124q36 46 36 119q0 74 -35.5 119t-91.5 45q-36 0 -65.5 -21t-46 -58t-16.5 -85q0 -75 36 -120t92 -45q55 0 91 46z" />
    <glyph glyph-name="aring.aalt" horiz-adv-x="591" 
d="M226 554q-28 27 -28 69q0 41 28 68t69 27t69.5 -27t28.5 -68q0 -42 -28.5 -69t-69.5 -27t-69 27zM316.5 598.5q8.5 9.5 8.5 24.5q0 14 -8.5 23.5t-21.5 9.5t-21.5 -9.5t-8.5 -23.5q0 -15 8.5 -24.5t21.5 -9.5t21.5 9.5zM96.5 49.5q-61.5 67.5 -61.5 192.5q0 84 31.5 143
t83 89t110.5 30q100 0 151 -86q-4 17 -4 48v22h122v-488h-122v20q0 30 4 47q-18 -34 -55.5 -59.5t-97.5 -25.5q-100 0 -161.5 67.5zM378 124q36 46 36 119q0 74 -35.5 119t-91.5 45q-36 0 -65.5 -21t-46 -58t-16.5 -85q0 -75 36 -120t92 -45q55 0 91 46z" />
    <glyph glyph-name="aringacute.aalt" horiz-adv-x="591" 
d="M341 751h-103l75 147h140zM226 554q-28 27 -28 69q0 41 28 68t69 27t69.5 -27t28.5 -68q0 -42 -28.5 -69t-69.5 -27t-69 27zM316.5 598.5q8.5 9.5 8.5 24.5q0 14 -8.5 23.5t-21.5 9.5t-21.5 -9.5t-8.5 -23.5q0 -15 8.5 -24.5t21.5 -9.5t21.5 9.5zM96.5 49.5
q-61.5 67.5 -61.5 192.5q0 84 31.5 143t83 89t110.5 30q100 0 151 -86q-4 17 -4 48v22h122v-488h-122v20q0 30 4 47q-18 -34 -55.5 -59.5t-97.5 -25.5q-100 0 -161.5 67.5zM378 124q36 46 36 119q0 74 -35.5 119t-91.5 45q-36 0 -65.5 -21t-46 -58t-16.5 -85q0 -75 36 -120
t92 -45q55 0 91 46z" />
    <glyph glyph-name="atilde.aalt" horiz-adv-x="591" 
d="M331.5 576q-19.5 5 -43.5 14q-37 13 -52 13q-31 0 -31 -34h-96q0 64 28.5 96t80.5 32q23 0 42.5 -5t46.5 -15q13 -5 25.5 -9t21.5 -4q16 0 23 9t8 27h96q0 -129 -109 -129q-21 0 -40.5 5zM96.5 49.5q-61.5 67.5 -61.5 192.5q0 84 31.5 143t83 89t110.5 30q100 0 151 -86
q-4 17 -4 48v22h122v-488h-122v20q0 30 4 47q-18 -34 -55.5 -59.5t-97.5 -25.5q-100 0 -161.5 67.5zM378 124q36 46 36 119q0 74 -35.5 119t-91.5 45q-36 0 -65.5 -21t-46 -58t-16.5 -85q0 -75 36 -120t92 -45q55 0 91 46z" />
    <glyph glyph-name="dcaron.aalt" horiz-adv-x="683" 
d="M96.5 49.5q-61.5 67.5 -61.5 192.5q0 84 31.5 143t83 89t110.5 30q100 0 151 -86q-4 18 -4 48v234h122v-700h-122v20q0 30 4 47q-18 -34 -55.5 -59.5t-97.5 -25.5q-100 0 -161.5 67.5zM642 473h-93l67 227h124zM378 124q36 46 36 119q0 74 -35.5 119t-91.5 45
q-36 0 -65.5 -21t-46 -58t-16.5 -85q0 -75 36 -120t92 -45q55 0 91 46z" />
    <glyph glyph-name="uni0123.aalt" horiz-adv-x="587" 
d="M309 781h93l-67 -227h-124zM116 -170.5q-60 51.5 -60 136.5h124q2 -44 29 -68t76 -24q51 0 84.5 29t33.5 82v53q0 36 4 61q-53 -81 -152 -81q-64 0 -113.5 29t-77.5 84t-28 130q0 73 30 128.5t79 85t104 29.5q61 0 97.5 -22t60.5 -64q-4 23 -4 48v22h122v-473
q0 -117 -65.5 -177t-177.5 -60q-106 0 -166 51.5zM375 156q35 41 35 105t-35 105t-89 41q-55 0 -90.5 -41t-35.5 -105t35.5 -105t90.5 -41q54 0 89 41z" />
    <glyph glyph-name="i.aalt" horiz-adv-x="246" 
d="M60 562v128h127v-128h-127zM62 488h122v-488h-122v488z" />
    <glyph glyph-name="lcaron.aalt" horiz-adv-x="321" 
d="M62 700h122v-700h-122v700zM205 473l67 227h124l-98 -227h-93z" />
    <glyph glyph-name="uni013C.aalt" horiz-adv-x="246" 
d="M184 700v-700h-122v700h122zM3 -304l67 227h124l-98 -227h-93z" />
    <glyph glyph-name="uni0146.aalt" horiz-adv-x="560" 
d="M62 0v488h122v-22q0 -23 -4 -48q47 86 150 86q81 0 126.5 -52.5t45.5 -143.5v-308h-122v290q0 54 -24.5 85.5t-67.5 31.5q-45 0 -74.5 -35t-29.5 -86v-286h-122zM263 -304h-93l67 227h124z" />
    <glyph glyph-name="q.aalt" horiz-adv-x="594" 
d="M528 -108h100v-96h-222v224q0 23 4 47q-20 -36 -59.5 -60.5t-96.5 -24.5q-64 0 -113.5 31t-78 89.5t-28.5 140.5q0 77 30.5 136.5t82 92t113.5 32.5q101 0 150 -86q-4 27 -4 48v22h122v-596zM377 122q35 44 35 121q0 76 -34 120t-91 44t-93 -44t-36 -120q0 -81 35.5 -123
t92.5 -42q56 0 91 44z" />
    <glyph glyph-name="uni0157.aalt" horiz-adv-x="362" 
d="M62 0v488h122v-37q0 -27 -4 -51q49 104 143 104q14 0 26 -3v-118q-16 4 -35 4q-60 0 -95 -34.5t-35 -110.5v-242h-122zM96 -304h-93l67 227h124z" />
    <glyph glyph-name="glyph277" horiz-adv-x="362" 
d="M349 501v-118q-16 4 -35 4q-60 0 -95 -34.5t-35 -110.5v-242h-122v488h122v-37q0 -27 -4 -51q49 104 143 104q14 0 26 -3zM96 -304h-93l67 227h124z" />
    <glyph glyph-name="uni0219.aalt" horiz-adv-x="500" 
d="M93 32q-61 50 -67 136h124q2 -44 29 -69.5t75 -25.5q41 0 65.5 17.5t24.5 45.5q0 24 -19.5 37t-60.5 21l-59 12q-160 31 -160 149q0 42 25 76t70.5 53.5t104.5 19.5q97 0 155.5 -46.5t60.5 -123.5h-122q-3 36 -28 57.5t-66 21.5q-35 0 -57.5 -14t-22.5 -39
q0 -22 17.5 -34.5t63.5 -21.5l59 -12q159 -31 159 -149q0 -46 -25.5 -83t-72.5 -57.5t-109 -20.5q-103 0 -164 50zM230 -304h-93l67 227h124z" />
    <glyph glyph-name="t.aalt" horiz-adv-x="397" 
d="M260 0h-122v391h-127v97h127v176h122v-176h127v-97h-127v-391z" />
    <glyph glyph-name="tbar.aalt" horiz-adv-x="416" 
d="M396 488v-97h-127v-83h93v-91h-93v-217h-122v217h-93v91h93v83h-127v97h127v176h122v-176h127z" />
    <glyph glyph-name="tcaron.ss03" horiz-adv-x="397" 
d="M308 566q35 1 51 12.5t18 34.5h-67v87h125v-66q0 -51 -34.5 -81t-92.5 -29v42zM260 0h-122v391h-127v97h127v176h122v-176h127v-97h-127v-391z" />
    <glyph glyph-name="tcaron.ss03.ss12" horiz-adv-x="397" 
d="M382 527h-86l62 173h114zM260 0h-122v391h-127v97h127v176h122v-176h127v-97h-127v-391z" />
    <glyph glyph-name="tcaron.ss12" horiz-adv-x="381" 
d="M363 527h-86l62 173h114zM119 152v239h-111v97h111v176h122v-176h120v-97h-120v-221q0 -40 17 -60.5t55 -20.5q19 0 37 3v-92q-10 -3 -30.5 -6t-41.5 -3q-159 0 -159 161z" />
    <glyph glyph-name="uni0163.ss03" horiz-adv-x="397" 
d="M260 0h-18l-36 -47q46 1 75.5 -21.5t29.5 -58.5q0 -41 -37 -66.5t-89 -25.5q-73 0 -120 46l43 50q14 -14 30.5 -21.5t38.5 -7.5t35.5 9t13.5 23q0 12 -10 19t-28 7q-16 0 -34 -9l-39 40l47 63h-24v391h-127v97h127v176h122v-176h127v-97h-127v-391z" />
    <glyph glyph-name="uni021B.ss03" horiz-adv-x="397" 
d="M260 0h-122v391h-127v97h127v176h122v-176h127v-97h-127v-391zM135 -263q36 4 49.5 20.5t13.5 51.5h-63v114h128v-107q0 -72 -34 -102t-94 -33v56z" />
    <glyph glyph-name="uni021B.ss03.ss12" horiz-adv-x="397" 
d="M260 0h-122v391h-127v97h127v176h122v-176h127v-97h-127v-391zM172 -304h-93l67 227h124z" />
    <glyph glyph-name="uni021B.ss12" horiz-adv-x="381" 
d="M119 152v239h-111v97h111v176h122v-176h120v-97h-120v-221q0 -40 17 -60.5t55 -20.5q19 0 37 3v-92q-10 -3 -30.5 -6t-41.5 -3q-159 0 -159 161zM194 -304h-93l67 227h124z" />
    <glyph glyph-name="u.aalt" horiz-adv-x="554" 
d="M114 35.5q-57 53.5 -57 157.5v295h123v-287q0 -56 24 -87.5t73 -31.5t73.5 32t24.5 87v287h122v-295q0 -105 -57 -158t-163 -53t-163 53.5z" />
    <glyph glyph-name="uacute.aalt" horiz-adv-x="554" 
d="M319 553h-103l75 147h140zM114 35.5q-57 53.5 -57 157.5v295h123v-287q0 -56 24 -87.5t73 -31.5t73.5 32t24.5 87v287h122v-295q0 -105 -57 -158t-163 -53t-163 53.5z" />
    <glyph glyph-name="ubreve.aalt" horiz-adv-x="554" 
d="M170.5 588.5q-34.5 39.5 -34.5 111.5h89q0 -34 12 -51.5t39 -17.5q26 0 39.5 18.5t13.5 50.5h89q0 -73 -35 -112t-107 -39q-71 0 -105.5 39.5zM114 35.5q-57 53.5 -57 157.5v295h123v-287q0 -56 24 -87.5t73 -31.5t73.5 32t24.5 87v287h122v-295q0 -105 -57 -158
t-163 -53t-163 53.5z" />
    <glyph glyph-name="ucircumflex.aalt" horiz-adv-x="554" 
d="M96 553l104 147h151l103 -147h-122l-29 42q-19 26 -27 46q-5 -12 -26 -46l-29 -42h-125zM114 35.5q-57 53.5 -57 157.5v295h123v-287q0 -56 24 -87.5t73 -31.5t73.5 32t24.5 87v287h122v-295q0 -105 -57 -158t-163 -53t-163 53.5z" />
    <glyph glyph-name="udieresis.aalt" horiz-adv-x="554" 
d="M242 562h-126v128h126v-128zM437 562h-125v128h125v-128zM114 35.5q-57 53.5 -57 157.5v295h123v-287q0 -56 24 -87.5t73 -31.5t73.5 32t24.5 87v287h122v-295q0 -105 -57 -158t-163 -53t-163 53.5z" />
    <glyph glyph-name="ugrave.aalt" horiz-adv-x="554" 
d="M345 553h-107l-109 147h150zM114 35.5q-57 53.5 -57 157.5v295h123v-287q0 -56 24 -87.5t73 -31.5t73.5 32t24.5 87v287h122v-295q0 -105 -57 -158t-163 -53t-163 53.5z" />
    <glyph glyph-name="uhungarumlaut.aalt" horiz-adv-x="554" 
d="M222 553h-93l48 147h154zM415 553h-96l48 147h156zM114 35.5q-57 53.5 -57 157.5v295h123v-287q0 -56 24 -87.5t73 -31.5t73.5 32t24.5 87v287h122v-295q0 -105 -57 -158t-163 -53t-163 53.5z" />
    <glyph glyph-name="umacron.aalt" horiz-adv-x="554" 
d="M447 580h-339v92h339v-92zM114 35.5q-57 53.5 -57 157.5v295h123v-287q0 -56 24 -87.5t73 -31.5t73.5 32t24.5 87v287h122v-295q0 -105 -57 -158t-163 -53t-163 53.5z" />
    <glyph glyph-name="uogonek.aalt" horiz-adv-x="554" 
d="M227.5 -172q-30.5 27 -30.5 73t41 83q-87 9 -134 62t-47 147v295h123v-287q0 -56 24 -87.5t73 -31.5t73.5 32t24.5 87v287h122v-295q0 -74 -29.5 -123t-84.5 -71q-41 -16 -59.5 -37.5t-18.5 -43.5q0 -16 10.5 -25t25.5 -9q21 0 51 12v-76q-12 -8 -33.5 -13.5t-44.5 -5.5
q-56 0 -86.5 27z" />
    <glyph glyph-name="uring.aalt" horiz-adv-x="554" 
d="M208 554q-28 27 -28 69q0 41 28 68t69 27t69.5 -27t28.5 -68q0 -42 -28.5 -69t-69.5 -27t-69 27zM298.5 598.5q8.5 9.5 8.5 24.5q0 14 -8.5 23.5t-21.5 9.5t-21.5 -9.5t-8.5 -23.5q0 -15 8.5 -24.5t21.5 -9.5t21.5 9.5zM114 35.5q-57 53.5 -57 157.5v295h123v-287
q0 -56 24 -87.5t73 -31.5t73.5 32t24.5 87v287h122v-295q0 -105 -57 -158t-163 -53t-163 53.5z" />
    <glyph glyph-name="utilde.aalt" horiz-adv-x="554" 
d="M313.5 576q-19.5 5 -43.5 14q-37 13 -52 13q-31 0 -31 -34h-96q0 64 28.5 96t80.5 32q23 0 42.5 -5t46.5 -15q13 -5 25.5 -9t21.5 -4q16 0 23 9t8 27h96q0 -129 -109 -129q-21 0 -40.5 5zM114 35.5q-57 53.5 -57 157.5v295h123v-287q0 -56 24 -87.5t73 -31.5t73.5 32
t24.5 87v287h122v-295q0 -105 -57 -158t-163 -53t-163 53.5z" />
    <glyph glyph-name="y.aalt" horiz-adv-x="508" 
d="M38 -212v95q22 -5 38 -5q36 0 61 21.5t47 79.5l10 26l-189 483h136l105 -315q9 -25 16 -57q3 18 15 57l99 315h127l-205 -550q-30 -81 -76.5 -120.5t-123.5 -39.5q-38 0 -60 10z" />
    <glyph glyph-name="yacute.aalt" horiz-adv-x="508" 
d="M301 553h-103l75 147h140zM38 -212v95q22 -5 38 -5q36 0 61 21.5t47 79.5l10 26l-189 483h136l105 -315q9 -25 16 -57q3 18 15 57l99 315h127l-205 -550q-30 -81 -76.5 -120.5t-123.5 -39.5q-38 0 -60 10z" />
    <glyph glyph-name="ycircumflex.aalt" horiz-adv-x="508" 
d="M78 553l104 147h151l103 -147h-122l-29 42q-19 26 -27 46q-5 -12 -26 -46l-29 -42h-125zM38 -212v95q22 -5 38 -5q36 0 61 21.5t47 79.5l10 26l-189 483h136l105 -315q9 -25 16 -57q3 18 15 57l99 315h127l-205 -550q-30 -81 -76.5 -120.5t-123.5 -39.5q-38 0 -60 10z
" />
    <glyph glyph-name="ydieresis.aalt" horiz-adv-x="508" 
d="M224 562h-126v128h126v-128zM419 562h-125v128h125v-128zM38 -212v95q22 -5 38 -5q36 0 61 21.5t47 79.5l10 26l-189 483h136l105 -315q9 -25 16 -57q3 18 15 57l99 315h127l-205 -550q-30 -81 -76.5 -120.5t-123.5 -39.5q-38 0 -60 10z" />
    <glyph glyph-name="ygrave.aalt" horiz-adv-x="508" 
d="M327 553h-107l-109 147h150zM38 -212v95q22 -5 38 -5q36 0 61 21.5t47 79.5l10 26l-189 483h136l105 -315q9 -25 16 -57q3 18 15 57l99 315h127l-205 -550q-30 -81 -76.5 -120.5t-123.5 -39.5q-38 0 -60 10z" />
    <glyph glyph-name="uni0233.aalt" horiz-adv-x="508" 
d="M429 580h-339v92h339v-92zM38 -212v95q22 -5 38 -5q36 0 61 21.5t47 79.5l10 26l-189 483h136l105 -315q9 -25 16 -57q3 18 15 57l99 315h127l-205 -550q-30 -81 -76.5 -120.5t-123.5 -39.5q-38 0 -60 10z" />
    <glyph glyph-name="zero.zero" horiz-adv-x="635" 
d="M464 674q62 -44 95.5 -127.5t33.5 -200.5q0 -113 -32.5 -194.5t-94.5 -125.5t-148 -44q-131 0 -203.5 97.5t-72.5 272.5q0 113 33.5 195.5t96 126.5t146.5 44t146 -44zM209 544.5q-39 -66.5 -39 -202.5q0 -59 9 -104l227 336q-36 37 -87 37q-71 0 -110 -66.5zM427 153.5
q39 64.5 39 190.5q0 69 -10 116l-225 -334q36 -37 88 -37q69 0 108 64.5z" />
    <glyph glyph-name="one.ss09" horiz-adv-x="365" 
d="M9 589v111h279v-700h-126v589h-153z" />
    <glyph glyph-name="three.ss10" horiz-adv-x="547" 
d="M354 406q94 -16 139.5 -70t45.5 -127q0 -65 -32.5 -117t-90.5 -81t-132 -29q-124 0 -192 64t-69 180h127q0 -63 35 -100t99 -37q56 0 91.5 31.5t35.5 83.5q0 116 -166 116q-22 0 -34 -1v98l153 163h-301v120h447v-127z" />
    <glyph glyph-name="four.ss09" horiz-adv-x="661" 
d="M510 0h-125v205h-317v495h126v-386h191v386h125v-386h129v-109h-129v-205z" />
    <glyph glyph-name="six.ss11" horiz-adv-x="581" 
d="M440 429.5q51 -29.5 80.5 -83.5t29.5 -125q0 -69 -32.5 -123.5t-91 -85t-132.5 -30.5t-132 31.5t-90.5 87t-32.5 124.5q0 68 18.5 116t56.5 108l157 251h148l-169 -257q37 16 77 16q62 0 113 -29.5zM387 126.5q37 35.5 37 92.5t-35.5 95.5t-90.5 38.5q-57 0 -94 -37.5
t-37 -93.5q0 -59 35 -95t92 -36q56 0 93 35.5z" />
    <glyph glyph-name="nine.ss11" horiz-adv-x="580" 
d="M422 687.5q57 -30.5 88 -87t31 -130.5q0 -66 -18.5 -118.5t-52.5 -105.5l-152 -246h-148l170 263q-36 -17 -77 -17q-62 0 -114 29t-82 82t-30 121t32.5 123t90 86t130.5 31q75 0 132 -30.5zM197 388.5q34 -36.5 88 -36.5q57 0 92.5 36t35.5 90q0 58 -33.5 94.5
t-89.5 36.5t-91.5 -36t-35.5 -93q0 -55 34 -91.5z" />
    <glyph glyph-name="uni24EA.aalt" horiz-adv-x="799" 
d="M581 668.5q83 -49.5 132 -134.5t49 -184t-49 -184t-132 -134.5t-182 -49.5q-98 0 -181.5 50t-132.5 134.5t-49 183.5t49 183.5t132.5 134.5t181.5 50q99 0 182 -49.5zM541.5 96q64.5 39 102 106t37.5 148t-37.5 148t-102 106t-142.5 39q-77 0 -141.5 -39t-102 -106
t-37.5 -148t37.5 -148t102 -106t141.5 -39q78 0 142.5 39zM522.5 510.5q46.5 -60.5 46.5 -163.5q0 -99 -45.5 -158.5t-124.5 -59.5q-78 0 -124 59.5t-46 158.5q0 103 46.5 163.5t123.5 60.5t123.5 -60.5zM340.5 456.5q-23.5 -37.5 -23.5 -109.5q0 -27 4 -46l120 177
q-17 16 -41 16q-36 0 -59.5 -37.5zM457.5 242.5q22.5 36.5 22.5 104.5q0 31 -5 59l-121 -180q20 -20 46 -20q35 0 57.5 36.5z" />
    <glyph glyph-name="uni2460.aalt" horiz-adv-x="799" 
d="M217.5 32q-83.5 50 -132.5 134.5t-49 183.5t49 183.5t132.5 134.5t181.5 50q99 0 182 -49.5t132 -134.5t49 -184t-49 -184t-132 -134.5t-182 -49.5q-98 0 -181.5 50zM541.5 96q64.5 39 102 106t37.5 148t-37.5 148t-102 106t-142.5 39q-77 0 -141.5 -39t-102 -106
t-37.5 -148t37.5 -148t102 -106t141.5 -39q78 0 142.5 39zM468 139h-88v335h-91v84h179v-419z" />
    <glyph glyph-name="uni2462.aalt" horiz-adv-x="799" 
d="M217.5 32q-83.5 50 -132.5 134.5t-49 183.5t49 183.5t132.5 134.5t181.5 50q99 0 182 -49.5t132 -134.5t49 -184t-49 -184t-132 -134.5t-182 -49.5q-98 0 -181.5 50zM541.5 96q64.5 39 102 106t37.5 148t-37.5 148t-102 106t-142.5 39q-77 0 -141.5 -39t-102 -106
t-37.5 -148t37.5 -148t102 -106t141.5 -39q78 0 142.5 39zM286.5 168.5q-44.5 39.5 -44.5 114.5h85q3 -78 75 -78q30 0 49.5 15t19.5 46q0 32 -28.5 47t-71.5 13v67l88 76h-192v84h285v-87l-98 -85q50 -10 78.5 -41t28.5 -74q0 -62 -43.5 -99.5t-117.5 -37.5
q-69 0 -113.5 39.5z" />
    <glyph glyph-name="uni2463.aalt" horiz-adv-x="799" 
d="M217.5 32q-83.5 50 -132.5 134.5t-49 183.5t49 183.5t132.5 134.5t181.5 50q99 0 182 -49.5t132 -134.5t49 -184t-49 -184t-132 -134.5t-182 -49.5q-98 0 -181.5 50zM541.5 96q64.5 39 102 106t37.5 148t-37.5 148t-102 106t-142.5 39q-77 0 -141.5 -39t-102 -106
t-37.5 -148t37.5 -148t102 -106t141.5 -39q78 0 142.5 39zM523 139h-87v120h-189v294h85v-226h104v226h87v-226h77v-68h-77v-120z" />
    <glyph glyph-name="uni2465.aalt" horiz-adv-x="799" 
d="M217.5 32q-83.5 50 -132.5 134.5t-49 183.5t49 183.5t132.5 134.5t181.5 50q99 0 182 -49.5t132 -134.5t49 -184t-49 -184t-132 -134.5t-182 -49.5q-98 0 -181.5 50zM541.5 96q64.5 39 102 106t37.5 148t-37.5 148t-102 106t-142.5 39q-77 0 -141.5 -39t-102 -106
t-37.5 -148t37.5 -148t102 -106t141.5 -39q78 0 142.5 39zM314.5 149.5q-35.5 20.5 -55 54.5t-19.5 73q0 63 38 121l101 160h100l-102 -151q19 8 41 8q36 0 67 -17t49 -48.5t18 -72.5q0 -65 -43.5 -106.5t-111.5 -41.5q-47 0 -82.5 20.5zM445.5 223q18.5 19 18.5 49
t-19 48.5t-48 18.5t-47.5 -18.5t-18.5 -48.5t18.5 -49t47.5 -19q30 0 48.5 19z" />
    <glyph glyph-name="uni2468.aalt" horiz-adv-x="799" 
d="M217.5 32q-83.5 50 -132.5 134.5t-49 183.5t49 183.5t132.5 134.5t181.5 50q99 0 182 -49.5t132 -134.5t49 -184t-49 -184t-132 -134.5t-182 -49.5q-98 0 -181.5 50zM541.5 96q64.5 39 102 106t37.5 148t-37.5 148t-102 106t-142.5 39q-77 0 -141.5 -39t-102 -106
t-37.5 -148t37.5 -148t102 -106t141.5 -39q78 0 142.5 39zM415 288q-12 -3 -27 -3q-61 0 -101.5 38.5t-40.5 100.5q0 42 20.5 75.5t56 52.5t77.5 19q44 0 79 -20t54 -53t19 -73q0 -41 -11.5 -72t-34.5 -70l-81 -144h-100zM446 379.5q19 19.5 19 48.5t-18.5 47.5t-47.5 18.5
q-28 0 -46.5 -18.5t-18.5 -47.5t18.5 -48.5t46.5 -19.5t47 19.5z" />
    <glyph glyph-name="uni24FF.aalt" horiz-adv-x="799" 
d="M580 31q84 49 133 133t49 186q0 99 -49 184t-132 134.5t-182 49.5q-98 0 -181.5 -50t-132.5 -134.5t-49 -183.5q0 -98 49 -183t131.5 -135t177.5 -50q102 0 186 49zM275 188.5q-46 59.5 -46 158.5q0 103 46.5 163.5t123.5 60.5t123.5 -60.5t46.5 -163.5
q0 -99 -45.5 -158.5t-124.5 -59.5q-78 0 -124 59.5zM440 479q-18 15 -40 15q-41 0 -62.5 -43.5t-21.5 -100.5q0 -24 5 -49zM460.5 248q20.5 42 20.5 101q0 31 -6 58l-121 -181q19 -20 46 -20q40 0 60.5 42z" />
    <glyph glyph-name="uni2776.aalt" horiz-adv-x="799" 
d="M580 31q84 49 133 133t49 186q0 99 -49 184t-132 134.5t-182 49.5q-98 0 -181.5 -50t-132.5 -134.5t-49 -183.5q0 -98 49 -183t131.5 -135t177.5 -50q102 0 186 49zM468 139h-88v335h-91v84h179v-419z" />
    <glyph glyph-name="uni2778.aalt" horiz-adv-x="799" 
d="M580 31q84 49 133 133t49 186q0 99 -49 184t-132 134.5t-182 49.5q-98 0 -181.5 -50t-132.5 -134.5t-49 -183.5q0 -98 49 -183t131.5 -135t177.5 -50q102 0 186 49zM286.5 168.5q-44.5 39.5 -44.5 114.5h85q3 -78 75 -78q30 0 49.5 15t19.5 46q0 32 -28.5 47t-71.5 13v67
l88 76h-192v84h285v-87l-98 -85q50 -10 78.5 -41t28.5 -74q0 -62 -43.5 -99.5t-117.5 -37.5q-69 0 -113.5 39.5z" />
    <glyph glyph-name="uni2779.aalt" horiz-adv-x="799" 
d="M580 31q84 49 133 133t49 186q0 99 -49 184t-132 134.5t-182 49.5q-98 0 -181.5 -50t-132.5 -134.5t-49 -183.5q0 -98 49 -183t131.5 -135t177.5 -50q102 0 186 49zM523 139h-87v120h-189v294h85v-226h104v226h87v-226h77v-68h-77v-120z" />
    <glyph glyph-name="uni277B.aalt" horiz-adv-x="799" 
d="M580 31q84 49 133 133t49 186q0 99 -49 184t-132 134.5t-182 49.5q-98 0 -181.5 -50t-132.5 -134.5t-49 -183.5q0 -98 49 -183t131.5 -135t177.5 -50q102 0 186 49zM314.5 149.5q-35.5 20.5 -55 54.5t-19.5 73q0 63 38 121l101 160h100l-102 -151q19 8 41 8q36 0 67 -17
t49 -48.5t18 -72.5q0 -65 -43.5 -106.5t-111.5 -41.5q-47 0 -82.5 20.5zM445.5 223q18.5 19 18.5 49t-19 48.5t-48 18.5t-47.5 -18.5t-18.5 -48.5t18.5 -49t47.5 -19q30 0 48.5 19z" />
    <glyph glyph-name="uni277E.aalt" horiz-adv-x="799" 
d="M580 31q84 49 133 133t49 186q0 99 -49 184t-132 134.5t-182 49.5q-98 0 -181.5 -50t-132.5 -134.5t-49 -183.5q0 -98 49 -183t131.5 -135t177.5 -50q102 0 186 49zM415 288q-12 -3 -27 -3q-61 0 -101.5 38.5t-40.5 100.5q0 42 20.5 75.5t56 52.5t77.5 19q44 0 79 -20
t54 -53t19 -73q0 -41 -11.5 -72t-34.5 -70l-81 -144h-100zM446 379.5q19 19.5 19 48.5t-18.5 47.5t-47.5 18.5q-28 0 -46.5 -18.5t-18.5 -47.5t18.5 -48.5t46.5 -19.5t47 19.5z" />
    <glyph glyph-name="zero.tnum" 
d="M96.5 79.5q-72.5 97.5 -72.5 272.5q0 113 33.5 195.5t96 126.5t146.5 44t146 -44t95.5 -127.5t33.5 -200.5q0 -113 -32.5 -194.5t-94.5 -125.5t-148 -44q-131 0 -203.5 97.5zM409 153.5q39 64.5 39 190.5q0 134 -39 200.5t-108 66.5q-71 0 -110 -66.5t-39 -202.5
q0 -125 40 -189t109 -64t108 64.5z" />
    <glyph glyph-name="zero.tnum.zero" 
d="M446 674q62 -44 95.5 -127.5t33.5 -200.5q0 -113 -32.5 -194.5t-94.5 -125.5t-148 -44q-131 0 -203.5 97.5t-72.5 272.5q0 113 33.5 195.5t96 126.5t146.5 44t146 -44zM191 544.5q-39 -66.5 -39 -202.5q0 -59 9 -104l227 336q-36 37 -87 37q-71 0 -110 -66.5zM409 153.5
q39 64.5 39 190.5q0 69 -10 116l-225 -334q36 -37 88 -37q69 0 108 64.5z" />
    <glyph glyph-name="one.tnum" 
d="M376 115h194v-115h-521v115h202v373q0 28 4 49q-25 -42 -65.5 -66t-95.5 -26v119q70 10 115 44.5t58 91.5h109v-585z" />
    <glyph glyph-name="one.tnum.ss09" 
d="M376 700v-585h194v-115h-521v115h202v474h-153v111h278z" />
    <glyph glyph-name="two.tnum" 
d="M46 0q2 74 29 126.5t68 89.5t115 90l41 29q65 46 97 84.5t32 86.5q0 49 -29.5 77t-81.5 28q-63 0 -95.5 -40t-32.5 -110v-7h-134v6q0 77 31.5 135.5t90.5 90.5t140 32q74 0 127.5 -27.5t82 -76t28.5 -109.5t-25.5 -108.5t-65.5 -84t-102 -80.5l-47 -33
q-55 -40 -72.5 -54.5t-23.5 -27.5h336v-117h-509z" />
    <glyph glyph-name="three.tnum" 
d="M107 46.5q-70 64.5 -70 179.5h128q0 -66 37 -101.5t97 -35.5q62 0 99.5 29.5t37.5 82.5q0 47 -36.5 76.5t-97.5 29.5h-50v108h51q52 0 85.5 24.5t33.5 73.5q0 44 -31 71t-86 27q-57 0 -92 -31.5t-39 -84.5h-132q3 67 37 117.5t93 78t136 27.5q70 0 124.5 -25t85 -70
t30.5 -105q0 -57 -36 -97t-93 -56q63 -18 102.5 -62.5t39.5 -113.5q0 -60 -33.5 -107t-92.5 -73.5t-135 -26.5q-123 0 -193 64.5z" />
    <glyph glyph-name="three.tnum.ss10" 
d="M375 406q94 -16 139.5 -70t45.5 -127q0 -65 -32.5 -117t-90.5 -81t-132 -29q-124 0 -192 64t-69 180h127q0 -63 35 -100t99 -37q56 0 91.5 31.5t35.5 83.5q0 116 -166 116q-22 0 -34 -1v98l153 163h-301v120h447v-127z" />
    <glyph glyph-name="four.tnum" 
d="M463 0h-126v170h-330v108l294 422h162v-423h128v-107h-128v-170zM337 277v301q-12 -25 -29 -48l-150 -213q-25 -34 -31 -40h210z" />
    <glyph glyph-name="four.tnum.ss09" 
d="M456 0h-125v205h-317v495h126v-386h191v386h125v-386h129v-109h-129v-205z" />
    <glyph glyph-name="five.tnum" 
d="M162 10.5q-58 28.5 -89 78.5t-32 112h127q2 -48 36 -80t90 -32q59 0 98 38.5t39 103.5q0 57 -34 96.5t-95 39.5q-44 0 -76.5 -19.5t-47.5 -53.5h-127l55 406h413v-120h-320l-22 -151q-3 -22 -10 -42q65 86 168 86q65 0 115.5 -31.5t78.5 -87t28 -123.5q0 -78 -34 -134
t-93 -85.5t-132 -29.5q-78 0 -136 28.5z" />
    <glyph glyph-name="six.tnum" 
d="M62 158q-29 76 -29 178q0 68 13.5 132.5t39.5 111.5q37 67 97.5 102.5t143.5 35.5q105 0 166.5 -56.5t68.5 -148.5h-128q-5 47 -33.5 72.5t-77.5 25.5q-75 0 -114 -56t-44 -154q-2 -32 -5 -45q28 43 75.5 73t108.5 30q63 0 113 -28.5t79 -80t29 -118.5
q0 -71 -32.5 -128.5t-90 -89.5t-128.5 -32q-184 0 -252 176zM404 125q35 36 35 97q0 59 -34.5 94t-92.5 35q-61 0 -97 -34.5t-36 -92.5q0 -62 35.5 -98.5t95.5 -36.5q59 0 94 36z" />
    <glyph glyph-name="six.tnum.ss11" 
d="M445 429.5q51 -29.5 80.5 -83.5t29.5 -125q0 -69 -32.5 -123.5t-91 -85t-132.5 -30.5t-132 31.5t-90.5 87t-32.5 124.5q0 68 18.5 116t56.5 108l157 251h148l-169 -257q37 16 77 16q62 0 113 -29.5zM392 126.5q37 35.5 37 92.5t-35.5 95.5t-90.5 38.5q-57 0 -94 -37.5
t-37 -93.5q0 -59 35 -95t92 -36q56 0 93 35.5z" />
    <glyph glyph-name="seven.tnum" 
d="M157 0q12 185 80.5 331.5t170.5 227.5q17 13 35 21h-398v120h512v-127q-230 -203 -248 -573h-152z" />
    <glyph glyph-name="eight.tnum" 
d="M155 7.5q-59 25.5 -89.5 70.5t-30.5 102q0 65 39.5 112.5t108.5 70.5q-60 19 -95 57t-35 96q0 60 30 105.5t86 71t131 25.5q74 0 129.5 -25.5t86 -70t30.5 -101.5q0 -60 -35 -101.5t-96 -56.5q69 -21 109.5 -66.5t40.5 -108.5q0 -61 -32.5 -107.5t-92.5 -72.5t-142 -26
q-84 0 -143 25.5zM387.5 439q34.5 27 34.5 71q0 47 -33.5 74t-88.5 27q-56 0 -89.5 -26.5t-33.5 -69.5q0 -46 34 -74.5t89 -28.5q53 0 87.5 27zM399.5 121q39.5 32 39.5 80q0 47 -39.5 79t-99.5 32q-59 0 -99 -31t-40 -78q0 -49 39.5 -81.5t99.5 -32.5t99.5 32z" />
    <glyph glyph-name="nine.tnum" 
d="M112.5 40.5q-64.5 58.5 -66.5 158.5h127q2 -52 32 -83t83 -31q78 0 116 65.5t34 163.5q0 23 1 31q-26 -40 -74.5 -70t-111.5 -30q-57 0 -106 28.5t-78 81t-29 123.5t34 125.5t91.5 84.5t126.5 30q83 0 144.5 -44.5t92.5 -125.5q32 -85 32 -198q0 -69 -13 -132t-38 -108
q-35 -63 -92 -95.5t-131 -32.5q-110 0 -174.5 58.5zM380 388.5q35 35.5 35 96.5q0 59 -33 92.5t-89 33.5q-55 0 -91 -34.5t-36 -92.5q0 -62 34 -96.5t92 -34.5q53 0 88 35.5z" />
    <glyph glyph-name="nine.tnum.ss11" 
d="M433 687.5q57 -30.5 88 -87t31 -130.5q0 -66 -18.5 -118.5t-52.5 -105.5l-152 -246h-148l170 263q-36 -17 -77 -17q-62 0 -114 29t-82 82t-30 121t32.5 123t90 86t130.5 31q75 0 132 -30.5zM208 388.5q34 -36.5 88 -36.5q57 0 92.5 36t35.5 90q0 58 -33.5 94.5
t-89.5 36.5t-91.5 -36t-35.5 -93q0 -55 34 -91.5z" />
    <glyph glyph-name="zero.dnom" horiz-adv-x="404" 
d="M76.5 48q-46.5 59 -46.5 159q0 102 47 162.5t125 60.5t125 -60.5t47 -162.5q0 -100 -46.5 -159t-125.5 -59t-125.5 59zM260.5 104q21.5 38 21.5 103q0 68 -21 107.5t-58 39.5t-59 -39.5t-22 -107.5q0 -65 22 -103t59 -38q36 0 57.5 38z" />
    <glyph glyph-name="zero.dnom.zero" horiz-adv-x="404" 
d="M325.5 370q46.5 -60 46.5 -163q0 -99 -45.5 -158.5t-124.5 -59.5q-78 0 -124 59.5t-46 158.5q0 103 46.5 163t123.5 60t123.5 -60zM143.5 316.5q-23.5 -37.5 -23.5 -109.5q0 -28 4 -47l120 178q-17 16 -41 16q-36 0 -59.5 -37.5zM261 102.5q23 36.5 23 104.5q0 30 -5 60
l-122 -182q20 -19 46 -19q35 0 58 36.5z" />
    <glyph glyph-name="one.dnom" horiz-adv-x="266" 
d="M127 258q0 30 2 47q-16 -23 -47 -38.5t-63 -14.5v80q46 6 78.5 29t39.5 58h81v-419h-91v258z" />
    <glyph glyph-name="one.dnom.ss09" horiz-adv-x="252" 
d="M203 0h-91v335h-91v84h182v-419z" />
    <glyph glyph-name="two.dnom" horiz-adv-x="368" 
d="M29 0q3 64 28 107.5t75 74.5l64 40q27 16 38 34.5t11 44.5q0 24 -15 39t-40 15q-30 0 -46.5 -19t-19.5 -52h-95q4 61 46 103.5t114 42.5q73 0 109.5 -38t36.5 -92q0 -48 -27.5 -82.5t-67.5 -58.5l-52 -32q-39 -24 -46 -47h191v-80h-304z" />
    <glyph glyph-name="three.dnom" horiz-adv-x="384" 
d="M64.5 29q-45.5 40 -45.5 113h89q1 -38 20.5 -57.5t52.5 -19.5t53.5 14.5t20.5 43.5q0 56 -73 56h-30v74h39q24 0 39 12t15 34q0 26 -16 41t-45 15q-31 0 -47.5 -18t-18.5 -43h-95q2 61 47.5 98.5t116.5 37.5q65 0 106.5 -34t41.5 -88q0 -34 -20 -58t-58 -35
q42 -9 65 -34.5t23 -64.5q0 -54 -43 -90.5t-120 -36.5q-72 0 -117.5 40z" />
    <glyph glyph-name="three.dnom.ss10" horiz-adv-x="384" 
d="M66 28q-44 39 -45 114h86q1 -77 74 -77q30 0 50 15t20 46q0 32 -29 48t-72 14v66l89 81h-193v84h285v-87l-98 -90q50 -9 78.5 -40.5t28.5 -75.5q0 -62 -43.5 -99.5t-116.5 -37.5q-70 0 -114 39z" />
    <glyph glyph-name="four.dnom" horiz-adv-x="406" 
d="M310 0h-91v98h-200v72l177 249h114v-252h77v-69h-77v-98zM219 167v160l-16 -24l-77 -109q-11 -16 -22 -27h115z" />
    <glyph glyph-name="four.dnom.ss09" horiz-adv-x="420" 
d="M325 0h-92v119h-194v300h91v-232h103v232h92v-232h76v-68h-76v-119z" />
    <glyph glyph-name="five.dnom" horiz-adv-x="374" 
d="M69 26.5q-43 37.5 -44 93.5h93q1 -22 18 -38.5t46 -16.5q34 0 54 20t20 54q0 30 -18 51t-50 21q-40 0 -59 -25h-98l36 233h258v-84h-193l-10 -62l-6 -30q39 42 99 42q58 0 95.5 -39t37.5 -107q0 -71 -46.5 -110.5t-115.5 -39.5q-74 0 -117 37.5z" />
    <glyph glyph-name="six.dnom" horiz-adv-x="394" 
d="M77.5 45.5q-46.5 56.5 -46.5 161.5t48 164t134 59q64 0 102.5 -34.5t43.5 -90.5h-92q-6 26 -19.5 37.5t-36.5 11.5q-38 0 -57.5 -27.5t-25.5 -85.5l-3 -19q39 52 103 52q59 0 98.5 -36t39.5 -97q0 -43 -20.5 -78t-56 -54.5t-79.5 -19.5q-86 0 -132.5 56.5zM256.5 84.5
q18.5 18.5 18.5 48.5t-18.5 48t-50.5 18t-50.5 -18t-18.5 -48t18.5 -48.5t50.5 -18.5t50.5 18.5z" />
    <glyph glyph-name="six.dnom.ss11" horiz-adv-x="372" 
d="M306.5 236q39.5 -38 39.5 -99q0 -66 -43.5 -107t-112.5 -41q-48 0 -84 20.5t-55.5 54.5t-19.5 73q0 62 38 121l101 161h104l-101 -151q17 6 38 6q56 0 95.5 -38zM237.5 82q17.5 18 17.5 49q0 30 -18 49t-46 19q-29 0 -47 -19t-18 -49q0 -31 18 -49t47 -18t46.5 18z" />
    <glyph glyph-name="seven.dnom" horiz-adv-x="358" 
d="M83 0q5 95 42 178t95 135q16 14 35 22h-237v84h325v-64q-43 -48 -73 -93.5t-49.5 -110t-24.5 -151.5h-113z" />
    <glyph glyph-name="eight.dnom" horiz-adv-x="389" 
d="M72.5 23q-42.5 34 -42.5 83q0 42 23 68t66 43q-38 13 -58.5 38.5t-20.5 57.5q0 54 42 85.5t113 31.5q69 0 112 -32t43 -81q0 -38 -21 -64t-60 -36q43 -13 66.5 -40t23.5 -63q0 -55 -45 -90t-122 -35t-119.5 34zM242 262.5q17 14.5 17 38.5q0 23 -17 37.5t-46 14.5
q-30 0 -47.5 -14.5t-17.5 -37.5q0 -24 17.5 -38.5t47.5 -14.5q29 0 46 14.5zM248.5 81.5q19.5 15.5 19.5 42.5t-19.5 43.5t-53.5 16.5t-54 -16.5t-20 -43.5q0 -26 20 -42t54 -16t53.5 15.5z" />
    <glyph glyph-name="nine.dnom" horiz-adv-x="386" 
d="M77.5 20.5q-43.5 31.5 -47.5 100.5h91q4 -60 64 -60q42 0 58 28t24 90l3 17q-35 -53 -94 -53q-63 0 -104 38.5t-41 102.5q0 41 21.5 74.5t58 52.5t77.5 19q77 0 122 -58.5t45 -159.5q0 -109 -45.5 -166t-132.5 -57q-56 0 -99.5 31.5zM233 239q19 19 19 49
q0 29 -18.5 47.5t-46.5 18.5q-29 0 -47 -18.5t-18 -47.5q0 -30 18.5 -49t46.5 -19q27 0 46 19z" />
    <glyph glyph-name="nine.dnom.ss11" horiz-adv-x="372" 
d="M267 410q35 -20 54.5 -53t19.5 -73t-11 -69.5t-35 -71.5l-82 -143h-103l90 148q-12 -3 -25 -3q-62 0 -103 38.5t-41 100.5q0 42 21 75t56.5 52t78.5 19q45 0 80 -20zM140.5 239q18.5 -19 45.5 -19t45.5 19t18.5 49q0 28 -18.5 47t-45.5 19q-28 0 -46 -18.5t-18 -47.5
q0 -30 18.5 -49z" />
    <glyph glyph-name="zero.numr" horiz-adv-x="404" 
d="M76.5 329q-46.5 59 -46.5 159q0 102 47 162.5t125 60.5t125 -60.5t47 -162.5q0 -100 -46.5 -159t-125.5 -59t-125.5 59zM260.5 385q21.5 38 21.5 103q0 68 -21 107.5t-58 39.5t-59 -39.5t-22 -107.5q0 -65 22 -103t59 -38q36 0 57.5 38z" />
    <glyph glyph-name="zero.numr.zero" horiz-adv-x="404" 
d="M325.5 651q46.5 -60 46.5 -163q0 -99 -45.5 -158.5t-124.5 -59.5q-78 0 -124 59.5t-46 158.5q0 103 46.5 163t123.5 60t123.5 -60zM143.5 597.5q-23.5 -37.5 -23.5 -109.5q0 -28 4 -47l120 178q-17 16 -41 16q-36 0 -59.5 -37.5zM261 383.5q23 36.5 23 104.5q0 30 -5 60
l-122 -182q20 -19 46 -19q35 0 58 36.5z" />
    <glyph glyph-name="one.numr" horiz-adv-x="266" 
d="M127 539q0 30 2 47q-16 -23 -47 -38.5t-63 -14.5v80q46 6 78.5 29t39.5 58h81v-419h-91v258z" />
    <glyph glyph-name="one.numr.ss09" horiz-adv-x="252" 
d="M203 281h-91v335h-91v84h182v-419z" />
    <glyph glyph-name="two.numr" horiz-adv-x="368" 
d="M29 281q3 64 28 107.5t75 74.5l64 40q27 16 38 34.5t11 44.5q0 24 -15 39t-40 15q-30 0 -46.5 -19t-19.5 -52h-95q4 61 46 103.5t114 42.5q73 0 109.5 -38t36.5 -92q0 -48 -27.5 -82.5t-67.5 -58.5l-52 -32q-39 -24 -46 -47h191v-80h-304z" />
    <glyph glyph-name="three.numr" horiz-adv-x="384" 
d="M64.5 312q-45.5 40 -45.5 113h89q1 -38 20.5 -57.5t52.5 -19.5t53.5 14.5t20.5 43.5q0 56 -73 56h-30v74h39q24 0 39 12t15 34q0 26 -16 41t-45 15q-31 0 -47.5 -18t-18.5 -43h-95q2 61 47.5 98.5t116.5 37.5q65 0 106.5 -34t41.5 -88q0 -34 -20 -58t-58 -35
q42 -9 65 -34.5t23 -64.5q0 -54 -43 -90.5t-120 -36.5q-72 0 -117.5 40z" />
    <glyph glyph-name="three.numr.ss10" horiz-adv-x="384" 
d="M66 311q-44 39 -45 114h86q1 -77 74 -77q30 0 50 15t20 46q0 32 -29 48t-72 14v66l89 81h-193v84h285v-87l-98 -90q50 -9 78.5 -40.5t28.5 -75.5q0 -62 -43.5 -99.5t-116.5 -37.5q-70 0 -114 39z" />
    <glyph glyph-name="four.numr" horiz-adv-x="406" 
d="M310 281h-91v98h-200v72l177 249h114v-252h77v-69h-77v-98zM219 448v160l-16 -24l-77 -109q-11 -16 -22 -27h115z" />
    <glyph glyph-name="four.numr.ss09" horiz-adv-x="420" 
d="M325 281h-92v119h-194v300h91v-232h103v232h92v-232h76v-68h-76v-119z" />
    <glyph glyph-name="five.numr" horiz-adv-x="374" 
d="M69 307.5q-43 37.5 -44 93.5h93q1 -22 18 -38.5t46 -16.5q34 0 54 20t20 54q0 30 -18 51t-50 21q-40 0 -59 -25h-98l36 233h258v-84h-193l-10 -62l-6 -30q39 42 99 42q58 0 95.5 -39t37.5 -107q0 -71 -46.5 -110.5t-115.5 -39.5q-74 0 -117 37.5z" />
    <glyph glyph-name="six.numr" horiz-adv-x="394" 
d="M77.5 326.5q-46.5 56.5 -46.5 161.5t48 164t134 59q64 0 102.5 -34.5t43.5 -90.5h-92q-6 26 -19.5 37.5t-36.5 11.5q-38 0 -57.5 -27.5t-25.5 -85.5l-3 -19q39 52 103 52q59 0 98.5 -36t39.5 -97q0 -43 -20.5 -78t-56 -54.5t-79.5 -19.5q-86 0 -132.5 56.5zM256.5 365.5
q18.5 18.5 18.5 48.5t-18.5 48t-50.5 18t-50.5 -18t-18.5 -48t18.5 -48.5t50.5 -18.5t50.5 18.5z" />
    <glyph glyph-name="six.numr.ss11" horiz-adv-x="372" 
d="M306.5 517q39.5 -38 39.5 -99q0 -66 -43.5 -107t-112.5 -41q-48 0 -84 20.5t-55.5 54.5t-19.5 73q0 62 38 121l101 161h104l-101 -151q17 6 38 6q56 0 95.5 -38zM237.5 363q17.5 18 17.5 49q0 30 -18 49t-46 19q-29 0 -47 -19t-18 -49q0 -31 18 -49t47 -18t46.5 18z" />
    <glyph glyph-name="seven.numr" horiz-adv-x="358" 
d="M83 281q5 95 42 178t95 135q16 14 35 22h-237v84h325v-64q-43 -48 -73 -93.5t-49.5 -110t-24.5 -151.5h-113z" />
    <glyph glyph-name="eight.numr" horiz-adv-x="389" 
d="M72.5 304q-42.5 34 -42.5 83q0 42 23 68t66 43q-38 13 -58.5 38.5t-20.5 57.5q0 54 42 85.5t113 31.5q69 0 112 -32t43 -81q0 -38 -21 -64t-60 -36q43 -13 66.5 -40t23.5 -63q0 -55 -45 -90t-122 -35t-119.5 34zM242 543.5q17 14.5 17 38.5q0 23 -17 37.5t-46 14.5
q-30 0 -47.5 -14.5t-17.5 -37.5q0 -24 17.5 -38.5t47.5 -14.5q29 0 46 14.5zM248.5 362.5q19.5 15.5 19.5 42.5t-19.5 43.5t-53.5 16.5t-54 -16.5t-20 -43.5q0 -26 20 -42t54 -16t53.5 15.5z" />
    <glyph glyph-name="nine.numr" horiz-adv-x="386" 
d="M77.5 301.5q-43.5 31.5 -47.5 100.5h91q4 -60 64 -60q42 0 58 28t24 90l3 17q-35 -53 -94 -53q-63 0 -104 38.5t-41 102.5q0 41 21.5 74.5t58 52.5t77.5 19q77 0 122 -58.5t45 -159.5q0 -109 -45.5 -166t-132.5 -57q-56 0 -99.5 31.5zM233 520q19 19 19 49
q0 29 -18.5 47.5t-46.5 18.5q-29 0 -47 -18.5t-18 -47.5q0 -30 18.5 -49t46.5 -19q27 0 46 19z" />
    <glyph glyph-name="nine.numr.ss11" horiz-adv-x="372" 
d="M267 691q35 -20 54.5 -53t19.5 -73t-11 -69.5t-35 -71.5l-82 -143h-103l90 148q-12 -3 -25 -3q-62 0 -103 38.5t-41 100.5q0 42 21 75t56.5 52t78.5 19q45 0 80 -20zM140.5 520q18.5 -19 45.5 -19t45.5 19t18.5 49q0 28 -18.5 47t-45.5 19q-28 0 -46 -18.5t-18 -47.5
q0 -30 18.5 -49z" />
    <glyph glyph-name="uni2070.aalt" horiz-adv-x="444" 
d="M319.5 784.5q42.5 -29.5 66 -85t23.5 -130.5q0 -109 -50 -174.5t-137 -65.5q-57 0 -99 30t-65 84t-23 126q0 75 23.5 130.5t66 85t97.5 29.5t97.5 -29.5zM158 689q-26 -41 -26 -120q0 -31 4 -51l132 195q-20 17 -45 17q-39 0 -65 -41zM287 454q25 40 25 115q0 37 -6 65
l-133 -199q23 -21 50 -21q39 0 64 40z" />
    <glyph glyph-name="uni00B9.aalt" horiz-adv-x="277" 
d="M223 341h-100v369h-100v92h200v-461z" />
    <glyph glyph-name="uni00B3.aalt" horiz-adv-x="384" 
d="M66 402q-44 39 -45 114h86q1 -77 74 -77q30 0 50 15t20 46q0 32 -29 48t-72 14v66l89 81h-193v84h285v-87l-98 -90q50 -9 78.5 -40.5t28.5 -75.5q0 -62 -43.5 -99.5t-116.5 -37.5q-70 0 -114 39z" />
    <glyph glyph-name="uni2074.aalt" horiz-adv-x="462" 
d="M358 341h-102v131h-213v330h100v-255h113v255h102v-255h83v-75h-83v-131z" />
    <glyph glyph-name="uni2076.aalt" horiz-adv-x="409" 
d="M306 623.5q34 -18.5 54.5 -53t20.5 -78.5q0 -73 -48 -118t-124 -45q-53 0 -92.5 22.5t-61 60t-21.5 80.5q0 66 42 133l111 177h114l-111 -167q21 7 42 7q40 0 74 -18.5zM261.5 431q19.5 20 19.5 54q0 33 -20 54t-51 21t-51 -21t-20 -54q0 -34 19.5 -54t51.5 -20t51.5 20z
" />
    <glyph glyph-name="uni2079.aalt" horiz-adv-x="409" 
d="M293.5 792q38.5 -22 60 -58.5t21.5 -80.5q0 -43 -12 -75.5t-38 -79.5l-91 -157h-113l99 163q-12 -3 -27 -3q-69 0 -114 42t-45 110q0 46 23 83t62.5 57.5t86.5 20.5q49 0 87.5 -22zM154.5 604q20.5 -21 50.5 -21t50 21t20 54q0 31 -20 51.5t-50 20.5q-31 0 -51 -20.5
t-20 -51.5q0 -33 20.5 -54z" />
    <glyph glyph-name="uni215F.aalt" horiz-adv-x="740" 
d="M218 281h-91v335h-91v84h182v-419zM214 0h-114l505 700h114z" />
    <glyph glyph-name="onehalf.aalt" horiz-adv-x="905" 
d="M218 281h-91v335h-91v84h182v-419zM214 0h-114l505 700h114zM562 0q3 64 28 107.5t75 74.5l64 40q27 16 38 34.5t11 44.5q0 24 -15 39t-40 15q-30 0 -46.5 -19t-19.5 -52h-95q4 61 46 103.5t114 42.5q73 0 109.5 -38t36.5 -92q0 -48 -27.5 -82.5t-67.5 -58.5l-52 -32
q-39 -24 -46 -47h191v-80h-304z" />
    <glyph glyph-name="onethird.ss09" horiz-adv-x="912" 
d="M218 281h-91v335h-91v84h182v-419zM214 0h-114l505 700h114zM591.5 29q-45.5 40 -45.5 113h89q1 -38 20.5 -57.5t52.5 -19.5t53.5 14.5t20.5 43.5q0 56 -73 56h-30v74h39q24 0 39 12t15 34q0 26 -16 41t-45 15q-31 0 -47.5 -18t-18.5 -43h-95q2 61 47.5 98.5t116.5 37.5
q65 0 106.5 -34t41.5 -88q0 -34 -20 -58t-58 -35q42 -9 65 -34.5t23 -64.5q0 -54 -43 -90.5t-120 -36.5q-72 0 -117.5 40z" />
    <glyph glyph-name="onethird.ss09.ss10" horiz-adv-x="912" 
d="M218 281h-91v335h-91v84h182v-419zM214 0h-114l505 700h114zM593 28q-44 39 -45 114h86q1 -77 74 -77q30 0 50 15t20 46q0 32 -29 48t-72 14v66l89 81h-193v84h285v-87l-98 -90q50 -9 78.5 -40.5t28.5 -75.5q0 -62 -43.5 -99.5t-116.5 -37.5q-70 0 -114 39z" />
    <glyph glyph-name="onethird.ss10" horiz-adv-x="918" 
d="M133 539q0 30 2 47q-16 -23 -47 -38.5t-63 -14.5v80q46 6 78.5 29t39.5 58h81v-419h-91v258zM220 0h-114l505 700h114zM599 28q-44 39 -45 114h86q1 -77 74 -77q30 0 50 15t20 46q0 32 -29 48t-72 14v66l89 81h-193v84h285v-87l-98 -90q50 -9 78.5 -40.5t28.5 -75.5
q0 -62 -43.5 -99.5t-116.5 -37.5q-70 0 -114 39z" />
    <glyph glyph-name="twothirds.aalt" horiz-adv-x="1015" 
d="M34 281q3 64 28 107.5t75 74.5l64 40q27 16 38 34.5t11 44.5q0 24 -15 39t-40 15q-30 0 -46.5 -19t-19.5 -52h-95q4 61 46 103.5t114 42.5q73 0 109.5 -38t36.5 -92q0 -48 -27.5 -82.5t-67.5 -58.5l-52 -32q-39 -24 -46 -47h191v-80h-304zM321 0h-114l505 700h114z
M700 28q-44 39 -45 114h86q1 -77 74 -77q30 0 50 15t20 46q0 32 -29 48t-72 14v66l89 81h-193v84h285v-87l-98 -90q50 -9 78.5 -40.5t28.5 -75.5q0 -62 -43.5 -99.5t-116.5 -37.5q-70 0 -114 39z" />
    <glyph glyph-name="onequarter.aalt" horiz-adv-x="971" 
d="M869 0h-92v119h-194v300h91v-232h103v232h92v-232h76v-68h-76v-119zM218 281h-91v335h-91v84h182v-419zM214 0h-114l505 700h114z" />
    <glyph glyph-name="threequarters.ss09" horiz-adv-x="1061" 
d="M69.5 312q-45.5 40 -45.5 113h89q1 -38 20.5 -57.5t52.5 -19.5t53.5 14.5t20.5 43.5q0 56 -73 56h-30v74h39q24 0 39 12t15 34q0 26 -16 41t-45 15q-31 0 -47.5 -18t-18.5 -43h-95q2 61 47.5 98.5t116.5 37.5q65 0 106.5 -34t41.5 -88q0 -34 -20 -58t-58 -35
q42 -9 65 -34.5t23 -64.5q0 -54 -43 -90.5t-120 -36.5q-72 0 -117.5 40zM304 0h-114l505 700h114zM959 0h-92v119h-194v300h91v-232h103v232h92v-232h76v-68h-76v-119z" />
    <glyph glyph-name="threequarters.ss09.ss10" horiz-adv-x="1061" 
d="M70 311q-44 39 -45 114h86q1 -77 74 -77q30 0 50 15t20 46q0 32 -29 48t-72 14v66l89 81h-193v84h285v-87l-98 -90q50 -9 78.5 -40.5t28.5 -75.5q0 -62 -43.5 -99.5t-116.5 -37.5q-70 0 -114 39zM304 0h-114l505 700h114zM959 0h-92v119h-194v300h91v-232h103v232h92
v-232h76v-68h-76v-119z" />
    <glyph glyph-name="threequarters.ss10" horiz-adv-x="967" 
d="M70 311q-44 39 -45 114h86q1 -77 74 -77q30 0 50 15t20 46q0 32 -29 48t-72 14v66l89 81h-193v84h285v-87l-98 -90q50 -9 78.5 -40.5t28.5 -75.5q0 -62 -43.5 -99.5t-116.5 -37.5q-70 0 -114 39zM304 0h-114l505 700h114zM865 0h-91v98h-200v72l177 249h114v-252h77v-69
h-77v-98zM774 167v160l-16 -24l-77 -109q-11 -16 -22 -27h115z" />
    <glyph glyph-name="uni2155.aalt" horiz-adv-x="923" 
d="M608 26.5q-43 37.5 -44 93.5h93q1 -22 18 -38.5t46 -16.5q34 0 54 20t20 54q0 30 -18 51t-50 21q-40 0 -59 -25h-98l36 233h258v-84h-193l-10 -62l-6 -30q39 42 99 42q58 0 95.5 -39t37.5 -107q0 -71 -46.5 -110.5t-115.5 -39.5q-74 0 -117 37.5zM218 281h-91v335h-91v84
h182v-419zM214 0h-114l505 700h114z" />
    </font>
</defs>
</svg>
